<svg aria-roledescription="er" role="graphics-document document" viewBox="0 0 1103.939208984375 419" style="max-width: 1103.939208984375px;" xmlns:xlink="http://www.w3.org/1999/xlink" xmlns="http://www.w3.org/2000/svg" width="100%" id="mermaid-1725319190480"><style>#mermaid-1725319190480{font-family:"trebuchet ms",verdana,arial,sans-serif;font-size:16px;fill:#ccc;}#mermaid-1725319190480 .error-icon{fill:#a44141;}#mermaid-1725319190480 .error-text{fill:#ddd;stroke:#ddd;}#mermaid-1725319190480 .edge-thickness-normal{stroke-width:1px;}#mermaid-1725319190480 .edge-thickness-thick{stroke-width:3.5px;}#mermaid-1725319190480 .edge-pattern-solid{stroke-dasharray:0;}#mermaid-1725319190480 .edge-thickness-invisible{stroke-width:0;fill:none;}#mermaid-1725319190480 .edge-pattern-dashed{stroke-dasharray:3;}#mermaid-1725319190480 .edge-pattern-dotted{stroke-dasharray:2;}#mermaid-1725319190480 .marker{fill:lightgrey;stroke:lightgrey;}#mermaid-1725319190480 .marker.cross{stroke:lightgrey;}#mermaid-1725319190480 svg{font-family:"trebuchet ms",verdana,arial,sans-serif;font-size:16px;}#mermaid-1725319190480 p{margin:0;}#mermaid-1725319190480 .entityBox{fill:#1f2020;stroke:#ccc;}#mermaid-1725319190480 .attributeBoxOdd{fill:hsl(0, 0%, 32%);stroke:#ccc;}#mermaid-1725319190480 .attributeBoxEven{fill:hsl(0, 0%, 22%);stroke:#ccc;}#mermaid-1725319190480 .relationshipLabelBox{fill:hsl(20, 1.5873015873%, 12.3529411765%);opacity:0.7;background-color:hsl(20, 1.5873015873%, 12.3529411765%);}#mermaid-1725319190480 .relationshipLabelBox rect{opacity:0.5;}#mermaid-1725319190480 .relationshipLine{stroke:lightgrey;}#mermaid-1725319190480 .entityTitleText{text-anchor:middle;font-size:18px;fill:#ccc;}#mermaid-1725319190480 #MD_PARENT_START{fill:#f5f5f5!important;stroke:lightgrey!important;stroke-width:1;}#mermaid-1725319190480 #MD_PARENT_END{fill:#f5f5f5!important;stroke:lightgrey!important;stroke-width:1;}#mermaid-1725319190480 :root{--mermaid-font-family:"trebuchet ms",verdana,arial,sans-serif;}</style><g></g><defs><marker orient="auto" markerHeight="240" markerWidth="190" refY="7" refX="0" id="MD_PARENT_START"><path d="M 18,7 L9,13 L1,7 L9,1 Z"></path></marker></defs><defs><marker orient="auto" markerHeight="28" markerWidth="20" refY="7" refX="19" id="MD_PARENT_END"><path d="M 18,7 L9,13 L1,7 L9,1 Z"></path></marker></defs><defs><marker orient="auto" markerHeight="18" markerWidth="18" refY="9" refX="0" id="ONLY_ONE_START"><path d="M9,0 L9,18 M15,0 L15,18" fill="none" stroke="gray"></path></marker></defs><defs><marker orient="auto" markerHeight="18" markerWidth="18" refY="9" refX="18" id="ONLY_ONE_END"><path d="M3,0 L3,18 M9,0 L9,18" fill="none" stroke="gray"></path></marker></defs><defs><marker orient="auto" markerHeight="18" markerWidth="30" refY="9" refX="0" id="ZERO_OR_ONE_START"><circle r="6" cy="9" cx="21" fill="white" stroke="gray"></circle><path d="M9,0 L9,18" fill="none" stroke="gray"></path></marker></defs><defs><marker orient="auto" markerHeight="18" markerWidth="30" refY="9" refX="30" id="ZERO_OR_ONE_END"><circle r="6" cy="9" cx="9" fill="white" stroke="gray"></circle><path d="M21,0 L21,18" fill="none" stroke="gray"></path></marker></defs><defs><marker orient="auto" markerHeight="36" markerWidth="45" refY="18" refX="18" id="ONE_OR_MORE_START"><path d="M0,18 Q 18,0 36,18 Q 18,36 0,18 M42,9 L42,27" fill="none" stroke="gray"></path></marker></defs><defs><marker orient="auto" markerHeight="36" markerWidth="45" refY="18" refX="27" id="ONE_OR_MORE_END"><path d="M3,9 L3,27 M9,18 Q27,0 45,18 Q27,36 9,18" fill="none" stroke="gray"></path></marker></defs><defs><marker orient="auto" markerHeight="36" markerWidth="57" refY="18" refX="18" id="ZERO_OR_MORE_START"><circle r="6" cy="18" cx="48" fill="white" stroke="gray"></circle><path d="M0,18 Q18,0 36,18 Q18,36 0,18" fill="none" stroke="gray"></path></marker></defs><defs><marker orient="auto" markerHeight="36" markerWidth="57" refY="18" refX="39" id="ZERO_OR_MORE_END"><circle r="6" cy="18" cx="9" fill="white" stroke="gray"></circle><path d="M21,18 Q39,0 57,18 Q39,36 21,18" fill="none" stroke="gray"></path></marker></defs><path style="stroke: gray; fill: none;" marker-start="url(#ONLY_ONE_START)" marker-end="url(#ZERO_OR_MORE_END)" d="M199.473,170L192.806,178.333C186.139,186.667,172.806,203.333,166.139,220C159.473,236.667,159.473,253.333,159.473,261.667L159.473,270" class="er relationshipLine"></path><path style="stroke: gray; fill: none;" marker-start="url(#ONLY_ONE_START)" marker-end="url(#ZERO_OR_MORE_END)" d="M388.651,147.616L418.269,159.68C447.887,171.744,507.123,195.872,536.741,216.269C566.359,236.667,566.359,253.333,566.359,261.667L566.359,270" class="er relationshipLine"></path><path style="stroke: gray; fill: none;" marker-start="url(#ONLY_ONE_START)" marker-end="url(#ZERO_OR_ONE_END)" d="M215.805,270L223.083,261.667C230.361,253.333,244.917,236.667,252.195,220C259.473,203.333,259.473,186.667,259.473,178.333L259.473,170" class="er relationshipLine"></path><path style="stroke: gray; fill: none;" marker-start="url(#ONLY_ONE_START)" marker-end="url(#ZERO_OR_ONE_END)" d="M867.224,159.5L854.157,169.583C841.09,179.667,814.957,199.833,816.155,220C817.353,240.167,845.883,260.333,860.148,270.417L874.414,280.5" class="er relationshipLine"></path><path style="stroke: gray; fill: none;" marker-start="url(#ONLY_ONE_START)" marker-end="url(#ZERO_OR_MORE_END)" d="M953.28,280.5L953.741,270.417C954.202,260.333,955.125,240.167,955.164,220C955.203,199.833,954.357,179.667,953.935,169.583L953.512,159.5" class="er relationshipLine"></path><g transform="translate(130.2948455810547,20 )" id="entity-reservas-2b504ec3-5592-5c5d-94e2-38dd0a6cac7a"><rect height="150" width="258.3557586669922" y="0" x="0" class="er entityBox"></rect><text style="dominant-baseline: middle; text-anchor: middle; font-size: 12px;" transform="translate(129.1778793334961,12)" y="0" x="0" id="text-entity-reservas-2b504ec3-5592-5c5d-94e2-38dd0a6cac7a" class="er entityLabel">reservas</text><rect height="21" width="71.171875" y="24" x="0" class="er attributeBoxOdd"></rect><text style="dominant-baseline: middle; font-size: 10.2px;" transform="translate(5,34.5)" y="0" x="0" id="text-entity-reservas-2b504ec3-5592-5c5d-94e2-38dd0a6cac7a-attr-1-type" class="er entityLabel">EnRel</text><rect height="21" width="86.23306274414062" y="24" x="71.171875" class="er attributeBoxOdd"></rect><text style="dominant-baseline: middle; font-size: 10.2px;" transform="translate(76.171875,34.5)" y="0" x="0" id="text-entity-reservas-2b504ec3-5592-5c5d-94e2-38dd0a6cac7a-attr-1-name" class="er entityLabel">hospede</text><rect height="21" width="100.95082092285156" y="24" x="157.40493774414062" class="er attributeBoxOdd"></rect><text style="dominant-baseline: middle; font-size: 10.2px;" transform="translate(162.40493774414062,34.5)" y="0" x="0" id="text-entity-reservas-2b504ec3-5592-5c5d-94e2-38dd0a6cac7a-attr-1-comment" class="er entityLabel">Hóspede</text><rect height="21" width="71.171875" y="45" x="0" class="er attributeBoxEven"></rect><text style="dominant-baseline: middle; font-size: 10.2px;" transform="translate(5,55.5)" y="0" x="0" id="text-entity-reservas-2b504ec3-5592-5c5d-94e2-38dd0a6cac7a-attr-2-type" class="er entityLabel">EnRel</text><rect height="21" width="86.23306274414062" y="45" x="71.171875" class="er attributeBoxEven"></rect><text style="dominant-baseline: middle; font-size: 10.2px;" transform="translate(76.171875,55.5)" y="0" x="0" id="text-entity-reservas-2b504ec3-5592-5c5d-94e2-38dd0a6cac7a-attr-2-name" class="er entityLabel">quarto</text><rect height="21" width="100.95082092285156" y="45" x="157.40493774414062" class="er attributeBoxEven"></rect><text style="dominant-baseline: middle; font-size: 10.2px;" transform="translate(162.40493774414062,55.5)" y="0" x="0" id="text-entity-reservas-2b504ec3-5592-5c5d-94e2-38dd0a6cac7a-attr-2-comment" class="er entityLabel">Quarto</text><rect height="21" width="71.171875" y="66" x="0" class="er attributeBoxOdd"></rect><text style="dominant-baseline: middle; font-size: 10.2px;" transform="translate(5,76.5)" y="0" x="0" id="text-entity-reservas-2b504ec3-5592-5c5d-94e2-38dd0a6cac7a-attr-3-type" class="er entityLabel">EnlCalendar</text><rect height="21" width="86.23306274414062" y="66" x="71.171875" class="er attributeBoxOdd"></rect><text style="dominant-baseline: middle; font-size: 10.2px;" transform="translate(76.171875,76.5)" y="0" x="0" id="text-entity-reservas-2b504ec3-5592-5c5d-94e2-38dd0a6cac7a-attr-3-name" class="er entityLabel">data_checkin</text><rect height="21" width="100.95082092285156" y="66" x="157.40493774414062" class="er attributeBoxOdd"></rect><text style="dominant-baseline: middle; font-size: 10.2px;" transform="translate(162.40493774414062,76.5)" y="0" x="0" id="text-entity-reservas-2b504ec3-5592-5c5d-94e2-38dd0a6cac7a-attr-3-comment" class="er entityLabel">Data de Check-In</text><rect height="21" width="71.171875" y="87" x="0" class="er attributeBoxEven"></rect><text style="dominant-baseline: middle; font-size: 10.2px;" transform="translate(5,97.5)" y="0" x="0" id="text-entity-reservas-2b504ec3-5592-5c5d-94e2-38dd0a6cac7a-attr-4-type" class="er entityLabel">EnlCalendar</text><rect height="21" width="86.23306274414062" y="87" x="71.171875" class="er attributeBoxEven"></rect><text style="dominant-baseline: middle; font-size: 10.2px;" transform="translate(76.171875,97.5)" y="0" x="0" id="text-entity-reservas-2b504ec3-5592-5c5d-94e2-38dd0a6cac7a-attr-4-name" class="er entityLabel">data_checkout</text><rect height="21" width="100.95082092285156" y="87" x="157.40493774414062" class="er attributeBoxEven"></rect><text style="dominant-baseline: middle; font-size: 10.2px;" transform="translate(162.40493774414062,97.5)" y="0" x="0" id="text-entity-reservas-2b504ec3-5592-5c5d-94e2-38dd0a6cac7a-attr-4-comment" class="er entityLabel">Data de Check-Out</text><rect height="21" width="71.171875" y="108" x="0" class="er attributeBoxOdd"></rect><text style="dominant-baseline: middle; font-size: 10.2px;" transform="translate(5,118.5)" y="0" x="0" id="text-entity-reservas-2b504ec3-5592-5c5d-94e2-38dd0a6cac7a-attr-5-type" class="er entityLabel">EnlDropdown</text><rect height="21" width="86.23306274414062" y="108" x="71.171875" class="er attributeBoxOdd"></rect><text style="dominant-baseline: middle; font-size: 10.2px;" transform="translate(76.171875,118.5)" y="0" x="0" id="text-entity-reservas-2b504ec3-5592-5c5d-94e2-38dd0a6cac7a-attr-5-name" class="er entityLabel">status_reserva</text><rect height="21" width="100.95082092285156" y="108" x="157.40493774414062" class="er attributeBoxOdd"></rect><text style="dominant-baseline: middle; font-size: 10.2px;" transform="translate(162.40493774414062,118.5)" y="0" x="0" id="text-entity-reservas-2b504ec3-5592-5c5d-94e2-38dd0a6cac7a-attr-5-comment" class="er entityLabel">Status da Reserva</text><rect height="21" width="71.171875" y="129" x="0" class="er attributeBoxEven"></rect><text style="dominant-baseline: middle; font-size: 10.2px;" transform="translate(5,139.5)" y="0" x="0" id="text-entity-reservas-2b504ec3-5592-5c5d-94e2-38dd0a6cac7a-attr-6-type" class="er entityLabel">EnlNumber</text><rect height="21" width="86.23306274414062" y="129" x="71.171875" class="er attributeBoxEven"></rect><text style="dominant-baseline: middle; font-size: 10.2px;" transform="translate(76.171875,139.5)" y="0" x="0" id="text-entity-reservas-2b504ec3-5592-5c5d-94e2-38dd0a6cac7a-attr-6-name" class="er entityLabel">total_pagamento</text><rect height="21" width="100.95082092285156" y="129" x="157.40493774414062" class="er attributeBoxEven"></rect><text style="dominant-baseline: middle; font-size: 10.2px;" transform="translate(162.40493774414062,139.5)" y="0" x="0" id="text-entity-reservas-2b504ec3-5592-5c5d-94e2-38dd0a6cac7a-attr-6-comment" class="er entityLabel">Total do Pagamento</text></g><g transform="translate(20,270 )" id="entity-hospedes-aacc18ec-dcad-59a7-9356-da0f096f2a6a"><rect height="129" width="278.9454345703125" y="0" x="0" class="er entityBox"></rect><text style="dominant-baseline: middle; text-anchor: middle; font-size: 12px;" transform="translate(139.47271728515625,12)" y="0" x="0" id="text-entity-hospedes-aacc18ec-dcad-59a7-9356-da0f096f2a6a" class="er entityLabel">hospedes</text><rect height="21" width="59.265625" y="24" x="0" class="er attributeBoxOdd"></rect><text style="dominant-baseline: middle; font-size: 10.2px;" transform="translate(5,34.5)" y="0" x="0" id="text-entity-hospedes-aacc18ec-dcad-59a7-9356-da0f096f2a6a-attr-1-type" class="er entityLabel">inputText</text><rect height="21" width="92.671875" y="24" x="59.265625" class="er attributeBoxOdd"></rect><text style="dominant-baseline: middle; font-size: 10.2px;" transform="translate(64.265625,34.5)" y="0" x="0" id="text-entity-hospedes-aacc18ec-dcad-59a7-9356-da0f096f2a6a-attr-1-name" class="er entityLabel">nome</text><rect height="21" width="127.0079345703125" y="24" x="151.9375" class="er attributeBoxOdd"></rect><text style="dominant-baseline: middle; font-size: 10.2px;" transform="translate(156.9375,34.5)" y="0" x="0" id="text-entity-hospedes-aacc18ec-dcad-59a7-9356-da0f096f2a6a-attr-1-comment" class="er entityLabel">Nome Completo</text><rect height="21" width="59.265625" y="45" x="0" class="er attributeBoxEven"></rect><text style="dominant-baseline: middle; font-size: 10.2px;" transform="translate(5,55.5)" y="0" x="0" id="text-entity-hospedes-aacc18ec-dcad-59a7-9356-da0f096f2a6a-attr-2-type" class="er entityLabel">inputText</text><rect height="21" width="92.671875" y="45" x="59.265625" class="er attributeBoxEven"></rect><text style="dominant-baseline: middle; font-size: 10.2px;" transform="translate(64.265625,55.5)" y="0" x="0" id="text-entity-hospedes-aacc18ec-dcad-59a7-9356-da0f096f2a6a-attr-2-name" class="er entityLabel">email</text><rect height="21" width="127.0079345703125" y="45" x="151.9375" class="er attributeBoxEven"></rect><text style="dominant-baseline: middle; font-size: 10.2px;" transform="translate(156.9375,55.5)" y="0" x="0" id="text-entity-hospedes-aacc18ec-dcad-59a7-9356-da0f096f2a6a-attr-2-comment" class="er entityLabel">E-mail</text><rect height="21" width="59.265625" y="66" x="0" class="er attributeBoxOdd"></rect><text style="dominant-baseline: middle; font-size: 10.2px;" transform="translate(5,76.5)" y="0" x="0" id="text-entity-hospedes-aacc18ec-dcad-59a7-9356-da0f096f2a6a-attr-3-type" class="er entityLabel">inputText</text><rect height="21" width="92.671875" y="66" x="59.265625" class="er attributeBoxOdd"></rect><text style="dominant-baseline: middle; font-size: 10.2px;" transform="translate(64.265625,76.5)" y="0" x="0" id="text-entity-hospedes-aacc18ec-dcad-59a7-9356-da0f096f2a6a-attr-3-name" class="er entityLabel">telefone</text><rect height="21" width="127.0079345703125" y="66" x="151.9375" class="er attributeBoxOdd"></rect><text style="dominant-baseline: middle; font-size: 10.2px;" transform="translate(156.9375,76.5)" y="0" x="0" id="text-entity-hospedes-aacc18ec-dcad-59a7-9356-da0f096f2a6a-attr-3-comment" class="er entityLabel">Telefone</text><rect height="21" width="59.265625" y="87" x="0" class="er attributeBoxEven"></rect><text style="dominant-baseline: middle; font-size: 10.2px;" transform="translate(5,97.5)" y="0" x="0" id="text-entity-hospedes-aacc18ec-dcad-59a7-9356-da0f096f2a6a-attr-4-type" class="er entityLabel">inputText</text><rect height="21" width="92.671875" y="87" x="59.265625" class="er attributeBoxEven"></rect><text style="dominant-baseline: middle; font-size: 10.2px;" transform="translate(64.265625,97.5)" y="0" x="0" id="text-entity-hospedes-aacc18ec-dcad-59a7-9356-da0f096f2a6a-attr-4-name" class="er entityLabel">documento</text><rect height="21" width="127.0079345703125" y="87" x="151.9375" class="er attributeBoxEven"></rect><text style="dominant-baseline: middle; font-size: 10.2px;" transform="translate(156.9375,97.5)" y="0" x="0" id="text-entity-hospedes-aacc18ec-dcad-59a7-9356-da0f096f2a6a-attr-4-comment" class="er entityLabel">Documento de Identidade</text><rect height="21" width="59.265625" y="108" x="0" class="er attributeBoxOdd"></rect><text style="dominant-baseline: middle; font-size: 10.2px;" transform="translate(5,118.5)" y="0" x="0" id="text-entity-hospedes-aacc18ec-dcad-59a7-9356-da0f096f2a6a-attr-5-type" class="er entityLabel">EnRelMulti</text><rect height="21" width="92.671875" y="108" x="59.265625" class="er attributeBoxOdd"></rect><text style="dominant-baseline: middle; font-size: 10.2px;" transform="translate(64.265625,118.5)" y="0" x="0" id="text-entity-hospedes-aacc18ec-dcad-59a7-9356-da0f096f2a6a-attr-5-name" class="er entityLabel">historico_reservas</text><rect height="21" width="127.0079345703125" y="108" x="151.9375" class="er attributeBoxOdd"></rect><text style="dominant-baseline: middle; font-size: 10.2px;" transform="translate(156.9375,118.5)" y="0" x="0" id="text-entity-hospedes-aacc18ec-dcad-59a7-9356-da0f096f2a6a-attr-5-comment" class="er entityLabel">Histórico de Reservas</text></g><g transform="translate(443.7063636779785,270 )" id="entity-quartos-c7df21bd-a229-563c-891b-6f30c4034f6c"><rect height="129" width="245.30441284179688" y="0" x="0" class="er entityBox"></rect><text style="dominant-baseline: middle; text-anchor: middle; font-size: 12px;" transform="translate(122.65220642089844,12)" y="0" x="0" id="text-entity-quartos-c7df21bd-a229-563c-891b-6f30c4034f6c" class="er entityLabel">quartos</text><rect height="21" width="71.171875" y="24" x="0" class="er attributeBoxOdd"></rect><text style="dominant-baseline: middle; font-size: 10.2px;" transform="translate(5,34.5)" y="0" x="0" id="text-entity-quartos-c7df21bd-a229-563c-891b-6f30c4034f6c-attr-1-type" class="er entityLabel">inputText</text><rect height="21" width="79.42813110351562" y="24" x="71.171875" class="er attributeBoxOdd"></rect><text style="dominant-baseline: middle; font-size: 10.2px;" transform="translate(76.171875,34.5)" y="0" x="0" id="text-entity-quartos-c7df21bd-a229-563c-891b-6f30c4034f6c-attr-1-name" class="er entityLabel">numero_quarto</text><rect height="21" width="94.70440673828125" y="24" x="150.60000610351562" class="er attributeBoxOdd"></rect><text style="dominant-baseline: middle; font-size: 10.2px;" transform="translate(155.60000610351562,34.5)" y="0" x="0" id="text-entity-quartos-c7df21bd-a229-563c-891b-6f30c4034f6c-attr-1-comment" class="er entityLabel">Número do Quarto</text><rect height="21" width="71.171875" y="45" x="0" class="er attributeBoxEven"></rect><text style="dominant-baseline: middle; font-size: 10.2px;" transform="translate(5,55.5)" y="0" x="0" id="text-entity-quartos-c7df21bd-a229-563c-891b-6f30c4034f6c-attr-2-type" class="er entityLabel">EnlDropdown</text><rect height="21" width="79.42813110351562" y="45" x="71.171875" class="er attributeBoxEven"></rect><text style="dominant-baseline: middle; font-size: 10.2px;" transform="translate(76.171875,55.5)" y="0" x="0" id="text-entity-quartos-c7df21bd-a229-563c-891b-6f30c4034f6c-attr-2-name" class="er entityLabel">tipo_quarto</text><rect height="21" width="94.70440673828125" y="45" x="150.60000610351562" class="er attributeBoxEven"></rect><text style="dominant-baseline: middle; font-size: 10.2px;" transform="translate(155.60000610351562,55.5)" y="0" x="0" id="text-entity-quartos-c7df21bd-a229-563c-891b-6f30c4034f6c-attr-2-comment" class="er entityLabel">Tipo de Quarto</text><rect height="21" width="71.171875" y="66" x="0" class="er attributeBoxOdd"></rect><text style="dominant-baseline: middle; font-size: 10.2px;" transform="translate(5,76.5)" y="0" x="0" id="text-entity-quartos-c7df21bd-a229-563c-891b-6f30c4034f6c-attr-3-type" class="er entityLabel">EnlNumber</text><rect height="21" width="79.42813110351562" y="66" x="71.171875" class="er attributeBoxOdd"></rect><text style="dominant-baseline: middle; font-size: 10.2px;" transform="translate(76.171875,76.5)" y="0" x="0" id="text-entity-quartos-c7df21bd-a229-563c-891b-6f30c4034f6c-attr-3-name" class="er entityLabel">capacidade</text><rect height="21" width="94.70440673828125" y="66" x="150.60000610351562" class="er attributeBoxOdd"></rect><text style="dominant-baseline: middle; font-size: 10.2px;" transform="translate(155.60000610351562,76.5)" y="0" x="0" id="text-entity-quartos-c7df21bd-a229-563c-891b-6f30c4034f6c-attr-3-comment" class="er entityLabel">Capacidade</text><rect height="21" width="71.171875" y="87" x="0" class="er attributeBoxEven"></rect><text style="dominant-baseline: middle; font-size: 10.2px;" transform="translate(5,97.5)" y="0" x="0" id="text-entity-quartos-c7df21bd-a229-563c-891b-6f30c4034f6c-attr-4-type" class="er entityLabel">EnlNumber</text><rect height="21" width="79.42813110351562" y="87" x="71.171875" class="er attributeBoxEven"></rect><text style="dominant-baseline: middle; font-size: 10.2px;" transform="translate(76.171875,97.5)" y="0" x="0" id="text-entity-quartos-c7df21bd-a229-563c-891b-6f30c4034f6c-attr-4-name" class="er entityLabel">preco_diaria</text><rect height="21" width="94.70440673828125" y="87" x="150.60000610351562" class="er attributeBoxEven"></rect><text style="dominant-baseline: middle; font-size: 10.2px;" transform="translate(155.60000610351562,97.5)" y="0" x="0" id="text-entity-quartos-c7df21bd-a229-563c-891b-6f30c4034f6c-attr-4-comment" class="er entityLabel">Preço da Diária</text><rect height="21" width="71.171875" y="108" x="0" class="er attributeBoxOdd"></rect><text style="dominant-baseline: middle; font-size: 10.2px;" transform="translate(5,118.5)" y="0" x="0" id="text-entity-quartos-c7df21bd-a229-563c-891b-6f30c4034f6c-attr-5-type" class="er entityLabel">inputSwitch</text><rect height="21" width="79.42813110351562" y="108" x="71.171875" class="er attributeBoxOdd"></rect><text style="dominant-baseline: middle; font-size: 10.2px;" transform="translate(76.171875,118.5)" y="0" x="0" id="text-entity-quartos-c7df21bd-a229-563c-891b-6f30c4034f6c-attr-5-name" class="er entityLabel">disponibilidade</text><rect height="21" width="94.70440673828125" y="108" x="150.60000610351562" class="er attributeBoxOdd"></rect><text style="dominant-baseline: middle; font-size: 10.2px;" transform="translate(155.60000610351562,118.5)" y="0" x="0" id="text-entity-quartos-c7df21bd-a229-563c-891b-6f30c4034f6c-attr-5-comment" class="er entityLabel">Disponibilidade</text></g><g transform="translate(488.6505889892578,51.5 )" id="entity-servicosadicionais-7b782bc7-9764-5efa-a2e6-a3d0d933779d"><rect height="87" width="223.78878784179688" y="0" x="0" class="er entityBox"></rect><text style="dominant-baseline: middle; text-anchor: middle; font-size: 12px;" transform="translate(111.89439392089844,12)" y="0" x="0" id="text-entity-servicosadicionais-7b782bc7-9764-5efa-a2e6-a3d0d933779d" class="er entityLabel">servicos_adicionais</text><rect height="21" width="61.56488037109375" y="24" x="0" class="er attributeBoxOdd"></rect><text style="dominant-baseline: middle; font-size: 10.2px;" transform="translate(5,34.5)" y="0" x="0" id="text-entity-servicosadicionais-7b782bc7-9764-5efa-a2e6-a3d0d933779d-attr-1-type" class="er entityLabel">inputText</text><rect height="21" width="73.75238037109375" y="24" x="61.56488037109375" class="er attributeBoxOdd"></rect><text style="dominant-baseline: middle; font-size: 10.2px;" transform="translate(66.56488037109375,34.5)" y="0" x="0" id="text-entity-servicosadicionais-7b782bc7-9764-5efa-a2e6-a3d0d933779d-attr-1-name" class="er entityLabel">nome_servico</text><rect height="21" width="88.47152709960938" y="24" x="135.3172607421875" class="er attributeBoxOdd"></rect><text style="dominant-baseline: middle; font-size: 10.2px;" transform="translate(140.3172607421875,34.5)" y="0" x="0" id="text-entity-servicosadicionais-7b782bc7-9764-5efa-a2e6-a3d0d933779d-attr-1-comment" class="er entityLabel">Nome do Serviço</text><rect height="21" width="61.56488037109375" y="45" x="0" class="er attributeBoxEven"></rect><text style="dominant-baseline: middle; font-size: 10.2px;" transform="translate(5,55.5)" y="0" x="0" id="text-entity-servicosadicionais-7b782bc7-9764-5efa-a2e6-a3d0d933779d-attr-2-type" class="er entityLabel">inputText</text><rect height="21" width="73.75238037109375" y="45" x="61.56488037109375" class="er attributeBoxEven"></rect><text style="dominant-baseline: middle; font-size: 10.2px;" transform="translate(66.56488037109375,55.5)" y="0" x="0" id="text-entity-servicosadicionais-7b782bc7-9764-5efa-a2e6-a3d0d933779d-attr-2-name" class="er entityLabel">descricao</text><rect height="21" width="88.47152709960938" y="45" x="135.3172607421875" class="er attributeBoxEven"></rect><text style="dominant-baseline: middle; font-size: 10.2px;" transform="translate(140.3172607421875,55.5)" y="0" x="0" id="text-entity-servicosadicionais-7b782bc7-9764-5efa-a2e6-a3d0d933779d-attr-2-comment" class="er entityLabel">Descrição</text><rect height="21" width="61.56488037109375" y="66" x="0" class="er attributeBoxOdd"></rect><text style="dominant-baseline: middle; font-size: 10.2px;" transform="translate(5,76.5)" y="0" x="0" id="text-entity-servicosadicionais-7b782bc7-9764-5efa-a2e6-a3d0d933779d-attr-3-type" class="er entityLabel">EnlNumber</text><rect height="21" width="73.75238037109375" y="66" x="61.56488037109375" class="er attributeBoxOdd"></rect><text style="dominant-baseline: middle; font-size: 10.2px;" transform="translate(66.56488037109375,76.5)" y="0" x="0" id="text-entity-servicosadicionais-7b782bc7-9764-5efa-a2e6-a3d0d933779d-attr-3-name" class="er entityLabel">preco</text><rect height="21" width="88.47152709960938" y="66" x="135.3172607421875" class="er attributeBoxOdd"></rect><text style="dominant-baseline: middle; font-size: 10.2px;" transform="translate(140.3172607421875,76.5)" y="0" x="0" id="text-entity-servicosadicionais-7b782bc7-9764-5efa-a2e6-a3d0d933779d-attr-3-comment" class="er entityLabel">Preço</text></g><g transform="translate(817.6784477233887,30.5 )" id="entity-funcionarios-11efb482-e159-55ff-a7fb-ec9e0034dfa4"><rect height="129" width="266.26072692871094" y="0" x="0" class="er entityBox"></rect><text style="dominant-baseline: middle; text-anchor: middle; font-size: 12px;" transform="translate(133.13036346435547,12)" y="0" x="0" id="text-entity-funcionarios-11efb482-e159-55ff-a7fb-ec9e0034dfa4" class="er entityLabel">funcionarios</text><rect height="21" width="71.171875" y="24" x="0" class="er attributeBoxOdd"></rect><text style="dominant-baseline: middle; font-size: 10.2px;" transform="translate(5,34.5)" y="0" x="0" id="text-entity-funcionarios-11efb482-e159-55ff-a7fb-ec9e0034dfa4-attr-1-type" class="er entityLabel">inputText</text><rect height="21" width="89.62060546875" y="24" x="71.171875" class="er attributeBoxOdd"></rect><text style="dominant-baseline: middle; font-size: 10.2px;" transform="translate(76.171875,34.5)" y="0" x="0" id="text-entity-funcionarios-11efb482-e159-55ff-a7fb-ec9e0034dfa4-attr-1-name" class="er entityLabel">nome</text><rect height="21" width="105.46824645996094" y="24" x="160.79248046875" class="er attributeBoxOdd"></rect><text style="dominant-baseline: middle; font-size: 10.2px;" transform="translate(165.79248046875,34.5)" y="0" x="0" id="text-entity-funcionarios-11efb482-e159-55ff-a7fb-ec9e0034dfa4-attr-1-comment" class="er entityLabel">Nome Completo</text><rect height="21" width="71.171875" y="45" x="0" class="er attributeBoxEven"></rect><text style="dominant-baseline: middle; font-size: 10.2px;" transform="translate(5,55.5)" y="0" x="0" id="text-entity-funcionarios-11efb482-e159-55ff-a7fb-ec9e0034dfa4-attr-2-type" class="er entityLabel">EnlDropdown</text><rect height="21" width="89.62060546875" y="45" x="71.171875" class="er attributeBoxEven"></rect><text style="dominant-baseline: middle; font-size: 10.2px;" transform="translate(76.171875,55.5)" y="0" x="0" id="text-entity-funcionarios-11efb482-e159-55ff-a7fb-ec9e0034dfa4-attr-2-name" class="er entityLabel">cargo</text><rect height="21" width="105.46824645996094" y="45" x="160.79248046875" class="er attributeBoxEven"></rect><text style="dominant-baseline: middle; font-size: 10.2px;" transform="translate(165.79248046875,55.5)" y="0" x="0" id="text-entity-funcionarios-11efb482-e159-55ff-a7fb-ec9e0034dfa4-attr-2-comment" class="er entityLabel">Cargo</text><rect height="21" width="71.171875" y="66" x="0" class="er attributeBoxOdd"></rect><text style="dominant-baseline: middle; font-size: 10.2px;" transform="translate(5,76.5)" y="0" x="0" id="text-entity-funcionarios-11efb482-e159-55ff-a7fb-ec9e0034dfa4-attr-3-type" class="er entityLabel">inputText</text><rect height="21" width="89.62060546875" y="66" x="71.171875" class="er attributeBoxOdd"></rect><text style="dominant-baseline: middle; font-size: 10.2px;" transform="translate(76.171875,76.5)" y="0" x="0" id="text-entity-funcionarios-11efb482-e159-55ff-a7fb-ec9e0034dfa4-attr-3-name" class="er entityLabel">telefone</text><rect height="21" width="105.46824645996094" y="66" x="160.79248046875" class="er attributeBoxOdd"></rect><text style="dominant-baseline: middle; font-size: 10.2px;" transform="translate(165.79248046875,76.5)" y="0" x="0" id="text-entity-funcionarios-11efb482-e159-55ff-a7fb-ec9e0034dfa4-attr-3-comment" class="er entityLabel">Telefone</text><rect height="21" width="71.171875" y="87" x="0" class="er attributeBoxEven"></rect><text style="dominant-baseline: middle; font-size: 10.2px;" transform="translate(5,97.5)" y="0" x="0" id="text-entity-funcionarios-11efb482-e159-55ff-a7fb-ec9e0034dfa4-attr-4-type" class="er entityLabel">inputText</text><rect height="21" width="89.62060546875" y="87" x="71.171875" class="er attributeBoxEven"></rect><text style="dominant-baseline: middle; font-size: 10.2px;" transform="translate(76.171875,97.5)" y="0" x="0" id="text-entity-funcionarios-11efb482-e159-55ff-a7fb-ec9e0034dfa4-attr-4-name" class="er entityLabel">email</text><rect height="21" width="105.46824645996094" y="87" x="160.79248046875" class="er attributeBoxEven"></rect><text style="dominant-baseline: middle; font-size: 10.2px;" transform="translate(165.79248046875,97.5)" y="0" x="0" id="text-entity-funcionarios-11efb482-e159-55ff-a7fb-ec9e0034dfa4-attr-4-comment" class="er entityLabel">E-mail</text><rect height="21" width="71.171875" y="108" x="0" class="er attributeBoxOdd"></rect><text style="dominant-baseline: middle; font-size: 10.2px;" transform="translate(5,118.5)" y="0" x="0" id="text-entity-funcionarios-11efb482-e159-55ff-a7fb-ec9e0034dfa4-attr-5-type" class="er entityLabel">EnRelMulti</text><rect height="21" width="89.62060546875" y="108" x="71.171875" class="er attributeBoxOdd"></rect><text style="dominant-baseline: middle; font-size: 10.2px;" transform="translate(76.171875,118.5)" y="0" x="0" id="text-entity-funcionarios-11efb482-e159-55ff-a7fb-ec9e0034dfa4-attr-5-name" class="er entityLabel">horarios_trabalho</text><rect height="21" width="105.46824645996094" y="108" x="160.79248046875" class="er attributeBoxOdd"></rect><text style="dominant-baseline: middle; font-size: 10.2px;" transform="translate(165.79248046875,118.5)" y="0" x="0" id="text-entity-funcionarios-11efb482-e159-55ff-a7fb-ec9e0034dfa4-attr-5-comment" class="er entityLabel">Horários de Trabalho</text></g><g transform="translate(839.0107765197754,280.5 )" id="entity-horariostrabalho-a092122c-315b-5e8e-9318-b99bbbcf1098"><rect height="108" width="223.59605407714844" y="0" x="0" class="er entityBox"></rect><text style="dominant-baseline: middle; text-anchor: middle; font-size: 12px;" transform="translate(111.79802703857422,12)" y="0" x="0" id="text-entity-horariostrabalho-a092122c-315b-5e8e-9318-b99bbbcf1098" class="er entityLabel">horarios_trabalho</text><rect height="21" width="71.171875" y="24" x="0" class="er attributeBoxOdd"></rect><text style="dominant-baseline: middle; font-size: 10.2px;" transform="translate(5,34.5)" y="0" x="0" id="text-entity-horariostrabalho-a092122c-315b-5e8e-9318-b99bbbcf1098-attr-1-type" class="er entityLabel">EnlDropdown</text><rect height="21" width="65.83816528320312" y="24" x="71.171875" class="er attributeBoxOdd"></rect><text style="dominant-baseline: middle; font-size: 10.2px;" transform="translate(76.171875,34.5)" y="0" x="0" id="text-entity-horariostrabalho-a092122c-315b-5e8e-9318-b99bbbcf1098-attr-1-name" class="er entityLabel">dia_semana</text><rect height="21" width="86.58601379394531" y="24" x="137.01004028320312" class="er attributeBoxOdd"></rect><text style="dominant-baseline: middle; font-size: 10.2px;" transform="translate(142.01004028320312,34.5)" y="0" x="0" id="text-entity-horariostrabalho-a092122c-315b-5e8e-9318-b99bbbcf1098-attr-1-comment" class="er entityLabel">Dia da Semana</text><rect height="21" width="71.171875" y="45" x="0" class="er attributeBoxEven"></rect><text style="dominant-baseline: middle; font-size: 10.2px;" transform="translate(5,55.5)" y="0" x="0" id="text-entity-horariostrabalho-a092122c-315b-5e8e-9318-b99bbbcf1098-attr-2-type" class="er entityLabel">EnlCalendar</text><rect height="21" width="65.83816528320312" y="45" x="71.171875" class="er attributeBoxEven"></rect><text style="dominant-baseline: middle; font-size: 10.2px;" transform="translate(76.171875,55.5)" y="0" x="0" id="text-entity-horariostrabalho-a092122c-315b-5e8e-9318-b99bbbcf1098-attr-2-name" class="er entityLabel">hora_inicio</text><rect height="21" width="86.58601379394531" y="45" x="137.01004028320312" class="er attributeBoxEven"></rect><text style="dominant-baseline: middle; font-size: 10.2px;" transform="translate(142.01004028320312,55.5)" y="0" x="0" id="text-entity-horariostrabalho-a092122c-315b-5e8e-9318-b99bbbcf1098-attr-2-comment" class="er entityLabel">Hora de Início</text><rect height="21" width="71.171875" y="66" x="0" class="er attributeBoxOdd"></rect><text style="dominant-baseline: middle; font-size: 10.2px;" transform="translate(5,76.5)" y="0" x="0" id="text-entity-horariostrabalho-a092122c-315b-5e8e-9318-b99bbbcf1098-attr-3-type" class="er entityLabel">EnlCalendar</text><rect height="21" width="65.83816528320312" y="66" x="71.171875" class="er attributeBoxOdd"></rect><text style="dominant-baseline: middle; font-size: 10.2px;" transform="translate(76.171875,76.5)" y="0" x="0" id="text-entity-horariostrabalho-a092122c-315b-5e8e-9318-b99bbbcf1098-attr-3-name" class="er entityLabel">hora_fim</text><rect height="21" width="86.58601379394531" y="66" x="137.01004028320312" class="er attributeBoxOdd"></rect><text style="dominant-baseline: middle; font-size: 10.2px;" transform="translate(142.01004028320312,76.5)" y="0" x="0" id="text-entity-horariostrabalho-a092122c-315b-5e8e-9318-b99bbbcf1098-attr-3-comment" class="er entityLabel">Hora de Término</text><rect height="21" width="71.171875" y="87" x="0" class="er attributeBoxEven"></rect><text style="dominant-baseline: middle; font-size: 10.2px;" transform="translate(5,97.5)" y="0" x="0" id="text-entity-horariostrabalho-a092122c-315b-5e8e-9318-b99bbbcf1098-attr-4-type" class="er entityLabel">EnRel</text><rect height="21" width="65.83816528320312" y="87" x="71.171875" class="er attributeBoxEven"></rect><text style="dominant-baseline: middle; font-size: 10.2px;" transform="translate(76.171875,97.5)" y="0" x="0" id="text-entity-horariostrabalho-a092122c-315b-5e8e-9318-b99bbbcf1098-attr-4-name" class="er entityLabel">funcionario</text><rect height="21" width="86.58601379394531" y="87" x="137.01004028320312" class="er attributeBoxEven"></rect><text style="dominant-baseline: middle; font-size: 10.2px;" transform="translate(142.01004028320312,97.5)" y="0" x="0" id="text-entity-horariostrabalho-a092122c-315b-5e8e-9318-b99bbbcf1098-attr-4-comment" class="er entityLabel">Funcionário</text></g><rect height="14" width="46.369140625" y="208.6361541748047" x="144.8462371826172" class="er relationshipLabelBox"></rect><text style="text-anchor: middle; dominant-baseline: middle; font-size: 12px;" y="215.6361541748047" x="168.0308074951172" id="rel1" class="er relationshipLabel">hospede</text><rect height="14" width="34.3515625" y="185.43458557128906" x="476.5680847167969" class="er relationshipLabelBox"></rect><text style="text-anchor: middle; dominant-baseline: middle; font-size: 12px;" y="192.43458557128906" x="493.7438659667969" id="rel2" class="er relationshipLabel">quarto</text><rect height="14" width="97.375" y="218.0203399658203" x="201.1053466796875" class="er relationshipLabelBox"></rect><text style="text-anchor: middle; dominant-baseline: middle; font-size: 12px;" y="225.0203399658203" x="249.7928466796875" id="rel3" class="er relationshipLabel">historico_reservas</text><rect height="14" width="93.71875" y="215.19500732421875" x="769.5322875976562" class="er relationshipLabelBox"></rect><text style="text-anchor: middle; dominant-baseline: middle; font-size: 12px;" y="222.19500732421875" x="816.3916625976562" id="rel4" class="er relationshipLabel">horarios_trabalho</text><rect height="14" width="59.03125" y="213.00338745117188" x="925.6483764648438" class="er relationshipLabelBox"></rect><text style="text-anchor: middle; dominant-baseline: middle; font-size: 12px;" y="220.00338745117188" x="955.1640014648438" id="rel5" class="er relationshipLabel">funcionario</text></svg>