<svg aria-roledescription="er" role="graphics-document document" viewBox="0 0 847.7743530273438 461" style="max-width: 847.7743530273438px;" xmlns:xlink="http://www.w3.org/1999/xlink" xmlns="http://www.w3.org/2000/svg" width="100%" id="mermaid-1725299128199"><style>#mermaid-1725299128199{font-family:"trebuchet ms",verdana,arial,sans-serif;font-size:16px;fill:#ccc;}#mermaid-1725299128199 .error-icon{fill:#a44141;}#mermaid-1725299128199 .error-text{fill:#ddd;stroke:#ddd;}#mermaid-1725299128199 .edge-thickness-normal{stroke-width:1px;}#mermaid-1725299128199 .edge-thickness-thick{stroke-width:3.5px;}#mermaid-1725299128199 .edge-pattern-solid{stroke-dasharray:0;}#mermaid-1725299128199 .edge-thickness-invisible{stroke-width:0;fill:none;}#mermaid-1725299128199 .edge-pattern-dashed{stroke-dasharray:3;}#mermaid-1725299128199 .edge-pattern-dotted{stroke-dasharray:2;}#mermaid-1725299128199 .marker{fill:lightgrey;stroke:lightgrey;}#mermaid-1725299128199 .marker.cross{stroke:lightgrey;}#mermaid-1725299128199 svg{font-family:"trebuchet ms",verdana,arial,sans-serif;font-size:16px;}#mermaid-1725299128199 p{margin:0;}#mermaid-1725299128199 .entityBox{fill:#1f2020;stroke:#ccc;}#mermaid-1725299128199 .attributeBoxOdd{fill:hsl(0, 0%, 32%);stroke:#ccc;}#mermaid-1725299128199 .attributeBoxEven{fill:hsl(0, 0%, 22%);stroke:#ccc;}#mermaid-1725299128199 .relationshipLabelBox{fill:hsl(20, 1.5873015873%, 12.3529411765%);opacity:0.7;background-color:hsl(20, 1.5873015873%, 12.3529411765%);}#mermaid-1725299128199 .relationshipLabelBox rect{opacity:0.5;}#mermaid-1725299128199 .relationshipLine{stroke:lightgrey;}#mermaid-1725299128199 .entityTitleText{text-anchor:middle;font-size:18px;fill:#ccc;}#mermaid-1725299128199 #MD_PARENT_START{fill:#f5f5f5!important;stroke:lightgrey!important;stroke-width:1;}#mermaid-1725299128199 #MD_PARENT_END{fill:#f5f5f5!important;stroke:lightgrey!important;stroke-width:1;}#mermaid-1725299128199 :root{--mermaid-font-family:"trebuchet ms",verdana,arial,sans-serif;}</style><g></g><defs><marker orient="auto" markerHeight="240" markerWidth="190" refY="7" refX="0" id="MD_PARENT_START"><path d="M 18,7 L9,13 L1,7 L9,1 Z"></path></marker></defs><defs><marker orient="auto" markerHeight="28" markerWidth="20" refY="7" refX="19" id="MD_PARENT_END"><path d="M 18,7 L9,13 L1,7 L9,1 Z"></path></marker></defs><defs><marker orient="auto" markerHeight="18" markerWidth="18" refY="9" refX="0" id="ONLY_ONE_START"><path d="M9,0 L9,18 M15,0 L15,18" fill="none" stroke="gray"></path></marker></defs><defs><marker orient="auto" markerHeight="18" markerWidth="18" refY="9" refX="18" id="ONLY_ONE_END"><path d="M3,0 L3,18 M9,0 L9,18" fill="none" stroke="gray"></path></marker></defs><defs><marker orient="auto" markerHeight="18" markerWidth="30" refY="9" refX="0" id="ZERO_OR_ONE_START"><circle r="6" cy="9" cx="21" fill="white" stroke="gray"></circle><path d="M9,0 L9,18" fill="none" stroke="gray"></path></marker></defs><defs><marker orient="auto" markerHeight="18" markerWidth="30" refY="9" refX="30" id="ZERO_OR_ONE_END"><circle r="6" cy="9" cx="9" fill="white" stroke="gray"></circle><path d="M21,0 L21,18" fill="none" stroke="gray"></path></marker></defs><defs><marker orient="auto" markerHeight="36" markerWidth="45" refY="18" refX="18" id="ONE_OR_MORE_START"><path d="M0,18 Q 18,0 36,18 Q 18,36 0,18 M42,9 L42,27" fill="none" stroke="gray"></path></marker></defs><defs><marker orient="auto" markerHeight="36" markerWidth="45" refY="18" refX="27" id="ONE_OR_MORE_END"><path d="M3,9 L3,27 M9,18 Q27,0 45,18 Q27,36 9,18" fill="none" stroke="gray"></path></marker></defs><defs><marker orient="auto" markerHeight="36" markerWidth="57" refY="18" refX="18" id="ZERO_OR_MORE_START"><circle r="6" cy="18" cx="48" fill="white" stroke="gray"></circle><path d="M0,18 Q18,0 36,18 Q18,36 0,18" fill="none" stroke="gray"></path></marker></defs><defs><marker orient="auto" markerHeight="36" markerWidth="57" refY="18" refX="39" id="ZERO_OR_MORE_END"><circle r="6" cy="18" cx="9" fill="white" stroke="gray"></circle><path d="M21,18 Q39,0 57,18 Q39,36 21,18" fill="none" stroke="gray"></path></marker></defs><path style="stroke: gray; fill: none;" marker-start="url(#ONLY_ONE_START)" marker-end="url(#ZERO_OR_MORE_END)" d="M254.46,158.623L221.586,172.353C188.713,186.082,122.966,213.541,94.126,237.354C65.285,261.167,73.352,281.333,77.385,291.417L81.419,301.5" class="er relationshipLine"></path><path style="stroke: gray; fill: none;" marker-start="url(#ONLY_ONE_START)" marker-end="url(#ZERO_OR_ONE_END)" d="M326.622,191L321.258,199.333C315.894,207.667,305.166,224.333,309.279,246.25C313.393,268.167,332.349,295.333,341.826,308.917L351.304,322.5" class="er relationshipLine"></path><path style="stroke: gray; fill: none;" marker-start="url(#ONLY_ONE_START)" marker-end="url(#ZERO_OR_ONE_END)" d="M508.853,188.228L522.376,197.023C535.899,205.819,562.944,223.409,583.69,240.538C604.435,257.667,618.88,274.333,626.102,282.667L633.324,291" class="er relationshipLine"></path><path style="stroke: gray; fill: none;" marker-start="url(#ONLY_ONE_START)" marker-end="url(#ZERO_OR_ONE_END)" d="M152.224,301.5L159.259,291.417C166.295,281.333,180.366,261.167,198.916,242.75C217.466,224.333,240.494,207.667,252.008,199.333L263.522,191" class="er relationshipLine"></path><path style="stroke: gray; fill: none;" marker-start="url(#ONLY_ONE_START)" marker-end="url(#ZERO_OR_ONE_END)" d="M419.357,322.5L431.129,308.917C442.901,295.333,466.446,268.167,471.556,246.25C476.665,224.333,463.34,207.667,456.677,199.333L450.015,191" class="er relationshipLine"></path><path style="stroke: gray; fill: none;" marker-start="url(#ONLY_ONE_START)" marker-end="url(#ZERO_OR_MORE_END)" d="M728.325,291L731.658,282.667C734.991,274.333,741.658,257.667,705.079,234.584C668.501,211.502,588.677,182.003,548.765,167.254L508.853,152.505" class="er relationshipLine"></path><g transform="translate(254.4599609375,20 )" id="entity-postagens-bf61dbf7-cf3d-5361-875a-35e50b2d6191"><rect height="171" width="254.392578125" y="0" x="0" class="er entityBox"></rect><text style="dominant-baseline: middle; text-anchor: middle; font-size: 12px;" transform="translate(127.1962890625,12)" y="0" x="0" id="text-entity-postagens-bf61dbf7-cf3d-5361-875a-35e50b2d6191" class="er entityLabel">postagens</text><rect height="21" width="71.171875" y="24" x="0" class="er attributeBoxOdd"></rect><text style="dominant-baseline: middle; font-size: 10.2px;" transform="translate(5,34.5)" y="0" x="0" id="text-entity-postagens-bf61dbf7-cf3d-5361-875a-35e50b2d6191-attr-1-type" class="er entityLabel">inputText</text><rect height="21" width="84.53680419921875" y="24" x="71.171875" class="er attributeBoxOdd"></rect><text style="dominant-baseline: middle; font-size: 10.2px;" transform="translate(76.171875,34.5)" y="0" x="0" id="text-entity-postagens-bf61dbf7-cf3d-5361-875a-35e50b2d6191-attr-1-name" class="er entityLabel">titulo</text><rect height="21" width="98.68389892578125" y="24" x="155.70867919921875" class="er attributeBoxOdd"></rect><text style="dominant-baseline: middle; font-size: 10.2px;" transform="translate(160.70867919921875,34.5)" y="0" x="0" id="text-entity-postagens-bf61dbf7-cf3d-5361-875a-35e50b2d6191-attr-1-comment" class="er entityLabel">Título</text><rect height="21" width="71.171875" y="45" x="0" class="er attributeBoxEven"></rect><text style="dominant-baseline: middle; font-size: 10.2px;" transform="translate(5,55.5)" y="0" x="0" id="text-entity-postagens-bf61dbf7-cf3d-5361-875a-35e50b2d6191-attr-2-type" class="er entityLabel">EnHtml</text><rect height="21" width="84.53680419921875" y="45" x="71.171875" class="er attributeBoxEven"></rect><text style="dominant-baseline: middle; font-size: 10.2px;" transform="translate(76.171875,55.5)" y="0" x="0" id="text-entity-postagens-bf61dbf7-cf3d-5361-875a-35e50b2d6191-attr-2-name" class="er entityLabel">conteudo</text><rect height="21" width="98.68389892578125" y="45" x="155.70867919921875" class="er attributeBoxEven"></rect><text style="dominant-baseline: middle; font-size: 10.2px;" transform="translate(160.70867919921875,55.5)" y="0" x="0" id="text-entity-postagens-bf61dbf7-cf3d-5361-875a-35e50b2d6191-attr-2-comment" class="er entityLabel">Conteúdo</text><rect height="21" width="71.171875" y="66" x="0" class="er attributeBoxOdd"></rect><text style="dominant-baseline: middle; font-size: 10.2px;" transform="translate(5,76.5)" y="0" x="0" id="text-entity-postagens-bf61dbf7-cf3d-5361-875a-35e50b2d6191-attr-3-type" class="er entityLabel">EnRel</text><rect height="21" width="84.53680419921875" y="66" x="71.171875" class="er attributeBoxOdd"></rect><text style="dominant-baseline: middle; font-size: 10.2px;" transform="translate(76.171875,76.5)" y="0" x="0" id="text-entity-postagens-bf61dbf7-cf3d-5361-875a-35e50b2d6191-attr-3-name" class="er entityLabel">autor</text><rect height="21" width="98.68389892578125" y="66" x="155.70867919921875" class="er attributeBoxOdd"></rect><text style="dominant-baseline: middle; font-size: 10.2px;" transform="translate(160.70867919921875,76.5)" y="0" x="0" id="text-entity-postagens-bf61dbf7-cf3d-5361-875a-35e50b2d6191-attr-3-comment" class="er entityLabel">Autor</text><rect height="21" width="71.171875" y="87" x="0" class="er attributeBoxEven"></rect><text style="dominant-baseline: middle; font-size: 10.2px;" transform="translate(5,97.5)" y="0" x="0" id="text-entity-postagens-bf61dbf7-cf3d-5361-875a-35e50b2d6191-attr-4-type" class="er entityLabel">EnlCalendar</text><rect height="21" width="84.53680419921875" y="87" x="71.171875" class="er attributeBoxEven"></rect><text style="dominant-baseline: middle; font-size: 10.2px;" transform="translate(76.171875,97.5)" y="0" x="0" id="text-entity-postagens-bf61dbf7-cf3d-5361-875a-35e50b2d6191-attr-4-name" class="er entityLabel">data_publicacao</text><rect height="21" width="98.68389892578125" y="87" x="155.70867919921875" class="er attributeBoxEven"></rect><text style="dominant-baseline: middle; font-size: 10.2px;" transform="translate(160.70867919921875,97.5)" y="0" x="0" id="text-entity-postagens-bf61dbf7-cf3d-5361-875a-35e50b2d6191-attr-4-comment" class="er entityLabel">Data de Publicação</text><rect height="21" width="71.171875" y="108" x="0" class="er attributeBoxOdd"></rect><text style="dominant-baseline: middle; font-size: 10.2px;" transform="translate(5,118.5)" y="0" x="0" id="text-entity-postagens-bf61dbf7-cf3d-5361-875a-35e50b2d6191-attr-5-type" class="er entityLabel">EnlDropdown</text><rect height="21" width="84.53680419921875" y="108" x="71.171875" class="er attributeBoxOdd"></rect><text style="dominant-baseline: middle; font-size: 10.2px;" transform="translate(76.171875,118.5)" y="0" x="0" id="text-entity-postagens-bf61dbf7-cf3d-5361-875a-35e50b2d6191-attr-5-name" class="er entityLabel">status</text><rect height="21" width="98.68389892578125" y="108" x="155.70867919921875" class="er attributeBoxOdd"></rect><text style="dominant-baseline: middle; font-size: 10.2px;" transform="translate(160.70867919921875,118.5)" y="0" x="0" id="text-entity-postagens-bf61dbf7-cf3d-5361-875a-35e50b2d6191-attr-5-comment" class="er entityLabel">Status</text><rect height="21" width="71.171875" y="129" x="0" class="er attributeBoxEven"></rect><text style="dominant-baseline: middle; font-size: 10.2px;" transform="translate(5,139.5)" y="0" x="0" id="text-entity-postagens-bf61dbf7-cf3d-5361-875a-35e50b2d6191-attr-6-type" class="er entityLabel">EnRelMulti</text><rect height="21" width="84.53680419921875" y="129" x="71.171875" class="er attributeBoxEven"></rect><text style="dominant-baseline: middle; font-size: 10.2px;" transform="translate(76.171875,139.5)" y="0" x="0" id="text-entity-postagens-bf61dbf7-cf3d-5361-875a-35e50b2d6191-attr-6-name" class="er entityLabel">categorias</text><rect height="21" width="98.68389892578125" y="129" x="155.70867919921875" class="er attributeBoxEven"></rect><text style="dominant-baseline: middle; font-size: 10.2px;" transform="translate(160.70867919921875,139.5)" y="0" x="0" id="text-entity-postagens-bf61dbf7-cf3d-5361-875a-35e50b2d6191-attr-6-comment" class="er entityLabel">Categorias</text><rect height="21" width="71.171875" y="150" x="0" class="er attributeBoxOdd"></rect><text style="dominant-baseline: middle; font-size: 10.2px;" transform="translate(5,160.5)" y="0" x="0" id="text-entity-postagens-bf61dbf7-cf3d-5361-875a-35e50b2d6191-attr-7-type" class="er entityLabel">EnRelMulti</text><rect height="21" width="84.53680419921875" y="150" x="71.171875" class="er attributeBoxOdd"></rect><text style="dominant-baseline: middle; font-size: 10.2px;" transform="translate(76.171875,160.5)" y="0" x="0" id="text-entity-postagens-bf61dbf7-cf3d-5361-875a-35e50b2d6191-attr-7-name" class="er entityLabel">comentarios</text><rect height="21" width="98.68389892578125" y="150" x="155.70867919921875" class="er attributeBoxOdd"></rect><text style="dominant-baseline: middle; font-size: 10.2px;" transform="translate(160.70867919921875,160.5)" y="0" x="0" id="text-entity-postagens-bf61dbf7-cf3d-5361-875a-35e50b2d6191-attr-7-comment" class="er entityLabel">Comentários</text></g><g transform="translate(20,301.5 )" id="entity-autores-9747bce4-cd48-551a-8837-1edd5d3d52ff"><rect height="129" width="174.4375" y="0" x="0" class="er entityBox"></rect><text style="dominant-baseline: middle; text-anchor: middle; font-size: 12px;" transform="translate(87.21875,12)" y="0" x="0" id="text-entity-autores-9747bce4-cd48-551a-8837-1edd5d3d52ff" class="er entityLabel">autores</text><rect height="21" width="59.265625" y="24" x="0" class="er attributeBoxOdd"></rect><text style="dominant-baseline: middle; font-size: 10.2px;" transform="translate(5,34.5)" y="0" x="0" id="text-entity-autores-9747bce4-cd48-551a-8837-1edd5d3d52ff-attr-1-type" class="er entityLabel">inputText</text><rect height="21" width="57.015625" y="24" x="59.265625" class="er attributeBoxOdd"></rect><text style="dominant-baseline: middle; font-size: 10.2px;" transform="translate(64.265625,34.5)" y="0" x="0" id="text-entity-autores-9747bce4-cd48-551a-8837-1edd5d3d52ff-attr-1-name" class="er entityLabel">nome</text><rect height="21" width="58.15625" y="24" x="116.28125" class="er attributeBoxOdd"></rect><text style="dominant-baseline: middle; font-size: 10.2px;" transform="translate(121.28125,34.5)" y="0" x="0" id="text-entity-autores-9747bce4-cd48-551a-8837-1edd5d3d52ff-attr-1-comment" class="er entityLabel">Nome</text><rect height="21" width="59.265625" y="45" x="0" class="er attributeBoxEven"></rect><text style="dominant-baseline: middle; font-size: 10.2px;" transform="translate(5,55.5)" y="0" x="0" id="text-entity-autores-9747bce4-cd48-551a-8837-1edd5d3d52ff-attr-2-type" class="er entityLabel">EnHtml</text><rect height="21" width="57.015625" y="45" x="59.265625" class="er attributeBoxEven"></rect><text style="dominant-baseline: middle; font-size: 10.2px;" transform="translate(64.265625,55.5)" y="0" x="0" id="text-entity-autores-9747bce4-cd48-551a-8837-1edd5d3d52ff-attr-2-name" class="er entityLabel">bio</text><rect height="21" width="58.15625" y="45" x="116.28125" class="er attributeBoxEven"></rect><text style="dominant-baseline: middle; font-size: 10.2px;" transform="translate(121.28125,55.5)" y="0" x="0" id="text-entity-autores-9747bce4-cd48-551a-8837-1edd5d3d52ff-attr-2-comment" class="er entityLabel">Bio</text><rect height="21" width="59.265625" y="66" x="0" class="er attributeBoxOdd"></rect><text style="dominant-baseline: middle; font-size: 10.2px;" transform="translate(5,76.5)" y="0" x="0" id="text-entity-autores-9747bce4-cd48-551a-8837-1edd5d3d52ff-attr-3-type" class="er entityLabel">inputText</text><rect height="21" width="57.015625" y="66" x="59.265625" class="er attributeBoxOdd"></rect><text style="dominant-baseline: middle; font-size: 10.2px;" transform="translate(64.265625,76.5)" y="0" x="0" id="text-entity-autores-9747bce4-cd48-551a-8837-1edd5d3d52ff-attr-3-name" class="er entityLabel">email</text><rect height="21" width="58.15625" y="66" x="116.28125" class="er attributeBoxOdd"></rect><text style="dominant-baseline: middle; font-size: 10.2px;" transform="translate(121.28125,76.5)" y="0" x="0" id="text-entity-autores-9747bce4-cd48-551a-8837-1edd5d3d52ff-attr-3-comment" class="er entityLabel">E-mail</text><rect height="21" width="59.265625" y="87" x="0" class="er attributeBoxEven"></rect><text style="dominant-baseline: middle; font-size: 10.2px;" transform="translate(5,97.5)" y="0" x="0" id="text-entity-autores-9747bce4-cd48-551a-8837-1edd5d3d52ff-attr-4-type" class="er entityLabel">EnlFile</text><rect height="21" width="57.015625" y="87" x="59.265625" class="er attributeBoxEven"></rect><text style="dominant-baseline: middle; font-size: 10.2px;" transform="translate(64.265625,97.5)" y="0" x="0" id="text-entity-autores-9747bce4-cd48-551a-8837-1edd5d3d52ff-attr-4-name" class="er entityLabel">avatar</text><rect height="21" width="58.15625" y="87" x="116.28125" class="er attributeBoxEven"></rect><text style="dominant-baseline: middle; font-size: 10.2px;" transform="translate(121.28125,97.5)" y="0" x="0" id="text-entity-autores-9747bce4-cd48-551a-8837-1edd5d3d52ff-attr-4-comment" class="er entityLabel">Avatar</text><rect height="21" width="59.265625" y="108" x="0" class="er attributeBoxOdd"></rect><text style="dominant-baseline: middle; font-size: 10.2px;" transform="translate(5,118.5)" y="0" x="0" id="text-entity-autores-9747bce4-cd48-551a-8837-1edd5d3d52ff-attr-5-type" class="er entityLabel">EnRelMulti</text><rect height="21" width="57.015625" y="108" x="59.265625" class="er attributeBoxOdd"></rect><text style="dominant-baseline: middle; font-size: 10.2px;" transform="translate(64.265625,118.5)" y="0" x="0" id="text-entity-autores-9747bce4-cd48-551a-8837-1edd5d3d52ff-attr-5-name" class="er entityLabel">postagens</text><rect height="21" width="58.15625" y="108" x="116.28125" class="er attributeBoxOdd"></rect><text style="dominant-baseline: middle; font-size: 10.2px;" transform="translate(121.28125,118.5)" y="0" x="0" id="text-entity-autores-9747bce4-cd48-551a-8837-1edd5d3d52ff-attr-5-comment" class="er entityLabel">Postagens</text></g><g transform="translate(294.4375,322.5 )" id="entity-categorias-197a0a7a-fe9a-5764-9516-641a8d715c91"><rect height="87" width="174.4375" y="0" x="0" class="er entityBox"></rect><text style="dominant-baseline: middle; text-anchor: middle; font-size: 12px;" transform="translate(87.21875,12)" y="0" x="0" id="text-entity-categorias-197a0a7a-fe9a-5764-9516-641a8d715c91" class="er entityLabel">categorias</text><rect height="21" width="59.265625" y="24" x="0" class="er attributeBoxOdd"></rect><text style="dominant-baseline: middle; font-size: 10.2px;" transform="translate(5,34.5)" y="0" x="0" id="text-entity-categorias-197a0a7a-fe9a-5764-9516-641a8d715c91-attr-1-type" class="er entityLabel">inputText</text><rect height="21" width="57.015625" y="24" x="59.265625" class="er attributeBoxOdd"></rect><text style="dominant-baseline: middle; font-size: 10.2px;" transform="translate(64.265625,34.5)" y="0" x="0" id="text-entity-categorias-197a0a7a-fe9a-5764-9516-641a8d715c91-attr-1-name" class="er entityLabel">nome</text><rect height="21" width="58.15625" y="24" x="116.28125" class="er attributeBoxOdd"></rect><text style="dominant-baseline: middle; font-size: 10.2px;" transform="translate(121.28125,34.5)" y="0" x="0" id="text-entity-categorias-197a0a7a-fe9a-5764-9516-641a8d715c91-attr-1-comment" class="er entityLabel">Nome</text><rect height="21" width="59.265625" y="45" x="0" class="er attributeBoxEven"></rect><text style="dominant-baseline: middle; font-size: 10.2px;" transform="translate(5,55.5)" y="0" x="0" id="text-entity-categorias-197a0a7a-fe9a-5764-9516-641a8d715c91-attr-2-type" class="er entityLabel">inputText</text><rect height="21" width="57.015625" y="45" x="59.265625" class="er attributeBoxEven"></rect><text style="dominant-baseline: middle; font-size: 10.2px;" transform="translate(64.265625,55.5)" y="0" x="0" id="text-entity-categorias-197a0a7a-fe9a-5764-9516-641a8d715c91-attr-2-name" class="er entityLabel">descricao</text><rect height="21" width="58.15625" y="45" x="116.28125" class="er attributeBoxEven"></rect><text style="dominant-baseline: middle; font-size: 10.2px;" transform="translate(121.28125,55.5)" y="0" x="0" id="text-entity-categorias-197a0a7a-fe9a-5764-9516-641a8d715c91-attr-2-comment" class="er entityLabel">Descrição</text><rect height="21" width="59.265625" y="66" x="0" class="er attributeBoxOdd"></rect><text style="dominant-baseline: middle; font-size: 10.2px;" transform="translate(5,76.5)" y="0" x="0" id="text-entity-categorias-197a0a7a-fe9a-5764-9516-641a8d715c91-attr-3-type" class="er entityLabel">EnRelMulti</text><rect height="21" width="57.015625" y="66" x="59.265625" class="er attributeBoxOdd"></rect><text style="dominant-baseline: middle; font-size: 10.2px;" transform="translate(64.265625,76.5)" y="0" x="0" id="text-entity-categorias-197a0a7a-fe9a-5764-9516-641a8d715c91-attr-3-name" class="er entityLabel">postagens</text><rect height="21" width="58.15625" y="66" x="116.28125" class="er attributeBoxOdd"></rect><text style="dominant-baseline: middle; font-size: 10.2px;" transform="translate(121.28125,76.5)" y="0" x="0" id="text-entity-categorias-197a0a7a-fe9a-5764-9516-641a8d715c91-attr-3-comment" class="er entityLabel">Postagens</text></g><g transform="translate(568.875,291 )" id="entity-comentarios-10c3bb18-788a-5683-94d8-2d96f203cd29"><rect height="150" width="258.89935302734375" y="0" x="0" class="er entityBox"></rect><text style="dominant-baseline: middle; text-anchor: middle; font-size: 12px;" transform="translate(129.44967651367188,12)" y="0" x="0" id="text-entity-comentarios-10c3bb18-788a-5683-94d8-2d96f203cd29" class="er entityLabel">comentarios</text><rect height="21" width="71.171875" y="24" x="0" class="er attributeBoxOdd"></rect><text style="dominant-baseline: middle; font-size: 10.2px;" transform="translate(5,34.5)" y="0" x="0" id="text-entity-comentarios-10c3bb18-788a-5683-94d8-2d96f203cd29-attr-1-type" class="er entityLabel">inputText</text><rect height="21" width="86.22311401367188" y="24" x="71.171875" class="er attributeBoxOdd"></rect><text style="dominant-baseline: middle; font-size: 10.2px;" transform="translate(76.171875,34.5)" y="0" x="0" id="text-entity-comentarios-10c3bb18-788a-5683-94d8-2d96f203cd29-attr-1-name" class="er entityLabel">autor</text><rect height="21" width="101.50436401367188" y="24" x="157.39498901367188" class="er attributeBoxOdd"></rect><text style="dominant-baseline: middle; font-size: 10.2px;" transform="translate(162.39498901367188,34.5)" y="0" x="0" id="text-entity-comentarios-10c3bb18-788a-5683-94d8-2d96f203cd29-attr-1-comment" class="er entityLabel">Autor</text><rect height="21" width="71.171875" y="45" x="0" class="er attributeBoxEven"></rect><text style="dominant-baseline: middle; font-size: 10.2px;" transform="translate(5,55.5)" y="0" x="0" id="text-entity-comentarios-10c3bb18-788a-5683-94d8-2d96f203cd29-attr-2-type" class="er entityLabel">inputText</text><rect height="21" width="86.22311401367188" y="45" x="71.171875" class="er attributeBoxEven"></rect><text style="dominant-baseline: middle; font-size: 10.2px;" transform="translate(76.171875,55.5)" y="0" x="0" id="text-entity-comentarios-10c3bb18-788a-5683-94d8-2d96f203cd29-attr-2-name" class="er entityLabel">email</text><rect height="21" width="101.50436401367188" y="45" x="157.39498901367188" class="er attributeBoxEven"></rect><text style="dominant-baseline: middle; font-size: 10.2px;" transform="translate(162.39498901367188,55.5)" y="0" x="0" id="text-entity-comentarios-10c3bb18-788a-5683-94d8-2d96f203cd29-attr-2-comment" class="er entityLabel">E-mail</text><rect height="21" width="71.171875" y="66" x="0" class="er attributeBoxOdd"></rect><text style="dominant-baseline: middle; font-size: 10.2px;" transform="translate(5,76.5)" y="0" x="0" id="text-entity-comentarios-10c3bb18-788a-5683-94d8-2d96f203cd29-attr-3-type" class="er entityLabel">EnHtml</text><rect height="21" width="86.22311401367188" y="66" x="71.171875" class="er attributeBoxOdd"></rect><text style="dominant-baseline: middle; font-size: 10.2px;" transform="translate(76.171875,76.5)" y="0" x="0" id="text-entity-comentarios-10c3bb18-788a-5683-94d8-2d96f203cd29-attr-3-name" class="er entityLabel">conteudo</text><rect height="21" width="101.50436401367188" y="66" x="157.39498901367188" class="er attributeBoxOdd"></rect><text style="dominant-baseline: middle; font-size: 10.2px;" transform="translate(162.39498901367188,76.5)" y="0" x="0" id="text-entity-comentarios-10c3bb18-788a-5683-94d8-2d96f203cd29-attr-3-comment" class="er entityLabel">Conteúdo</text><rect height="21" width="71.171875" y="87" x="0" class="er attributeBoxEven"></rect><text style="dominant-baseline: middle; font-size: 10.2px;" transform="translate(5,97.5)" y="0" x="0" id="text-entity-comentarios-10c3bb18-788a-5683-94d8-2d96f203cd29-attr-4-type" class="er entityLabel">EnlCalendar</text><rect height="21" width="86.22311401367188" y="87" x="71.171875" class="er attributeBoxEven"></rect><text style="dominant-baseline: middle; font-size: 10.2px;" transform="translate(76.171875,97.5)" y="0" x="0" id="text-entity-comentarios-10c3bb18-788a-5683-94d8-2d96f203cd29-attr-4-name" class="er entityLabel">data_comentario</text><rect height="21" width="101.50436401367188" y="87" x="157.39498901367188" class="er attributeBoxEven"></rect><text style="dominant-baseline: middle; font-size: 10.2px;" transform="translate(162.39498901367188,97.5)" y="0" x="0" id="text-entity-comentarios-10c3bb18-788a-5683-94d8-2d96f203cd29-attr-4-comment" class="er entityLabel">Data do Comentário</text><rect height="21" width="71.171875" y="108" x="0" class="er attributeBoxOdd"></rect><text style="dominant-baseline: middle; font-size: 10.2px;" transform="translate(5,118.5)" y="0" x="0" id="text-entity-comentarios-10c3bb18-788a-5683-94d8-2d96f203cd29-attr-5-type" class="er entityLabel">EnRel</text><rect height="21" width="86.22311401367188" y="108" x="71.171875" class="er attributeBoxOdd"></rect><text style="dominant-baseline: middle; font-size: 10.2px;" transform="translate(76.171875,118.5)" y="0" x="0" id="text-entity-comentarios-10c3bb18-788a-5683-94d8-2d96f203cd29-attr-5-name" class="er entityLabel">postagem</text><rect height="21" width="101.50436401367188" y="108" x="157.39498901367188" class="er attributeBoxOdd"></rect><text style="dominant-baseline: middle; font-size: 10.2px;" transform="translate(162.39498901367188,118.5)" y="0" x="0" id="text-entity-comentarios-10c3bb18-788a-5683-94d8-2d96f203cd29-attr-5-comment" class="er entityLabel">Postagem</text><rect height="21" width="71.171875" y="129" x="0" class="er attributeBoxEven"></rect><text style="dominant-baseline: middle; font-size: 10.2px;" transform="translate(5,139.5)" y="0" x="0" id="text-entity-comentarios-10c3bb18-788a-5683-94d8-2d96f203cd29-attr-6-type" class="er entityLabel">EnlDropdown</text><rect height="21" width="86.22311401367188" y="129" x="71.171875" class="er attributeBoxEven"></rect><text style="dominant-baseline: middle; font-size: 10.2px;" transform="translate(76.171875,139.5)" y="0" x="0" id="text-entity-comentarios-10c3bb18-788a-5683-94d8-2d96f203cd29-attr-6-name" class="er entityLabel">status</text><rect height="21" width="101.50436401367188" y="129" x="157.39498901367188" class="er attributeBoxEven"></rect><text style="dominant-baseline: middle; font-size: 10.2px;" transform="translate(162.39498901367188,139.5)" y="0" x="0" id="text-entity-comentarios-10c3bb18-788a-5683-94d8-2d96f203cd29-attr-6-comment" class="er entityLabel">Status</text></g><rect height="14" width="27.359375" y="202.46405029296875" x="125.71125793457031" class="er relationshipLabelBox"></rect><text style="text-anchor: middle; dominant-baseline: middle; font-size: 12px;" y="209.46405029296875" x="139.3909454345703" id="rel1" class="er relationshipLabel">autor</text><rect height="14" width="55.375" y="252.65060424804688" x="285.5576171875" class="er relationshipLabelBox"></rect><text style="text-anchor: middle; dominant-baseline: middle; font-size: 12px;" y="259.6506042480469" x="313.2451171875" id="rel2" class="er relationshipLabel">categorias</text><rect height="14" width="65.375" y="227.14370727539062" x="543.0081176757812" class="er relationshipLabelBox"></rect><text style="text-anchor: middle; dominant-baseline: middle; font-size: 12px;" y="234.14370727539062" x="575.6956176757812" id="rel3" class="er relationshipLabel">comentarios</text><rect height="14" width="55.390625" y="233.05804443359375" x="173.97607421875" class="er relationshipLabelBox"></rect><text style="text-anchor: middle; dominant-baseline: middle; font-size: 12px;" y="240.05804443359375" x="201.67138671875" id="rel4" class="er relationshipLabel">postagens</text><rect height="14" width="55.390625" y="253.87728881835938" x="438.33294677734375" class="er relationshipLabelBox"></rect><text style="text-anchor: middle; dominant-baseline: middle; font-size: 12px;" y="260.8772888183594" x="466.02825927734375" id="rel5" class="er relationshipLabel">postagens</text><rect height="14" width="52.703125" y="196.0602569580078" x="614.4664916992188" class="er relationshipLabelBox"></rect><text style="text-anchor: middle; dominant-baseline: middle; font-size: 12px;" y="203.0602569580078" x="640.8180541992188" id="rel6" class="er relationshipLabel">postagem</text></svg>