<svg aria-roledescription="er" role="graphics-document document" viewBox="0 0 1028.6123657226562 587" style="max-width: 1028.6123657226562px;" xmlns:xlink="http://www.w3.org/1999/xlink" xmlns="http://www.w3.org/2000/svg" width="100%" id="mermaid-1725297921171"><style>#mermaid-1725297921171{font-family:"trebuchet ms",verdana,arial,sans-serif;font-size:16px;fill:#ccc;}#mermaid-1725297921171 .error-icon{fill:#a44141;}#mermaid-1725297921171 .error-text{fill:#ddd;stroke:#ddd;}#mermaid-1725297921171 .edge-thickness-normal{stroke-width:1px;}#mermaid-1725297921171 .edge-thickness-thick{stroke-width:3.5px;}#mermaid-1725297921171 .edge-pattern-solid{stroke-dasharray:0;}#mermaid-1725297921171 .edge-thickness-invisible{stroke-width:0;fill:none;}#mermaid-1725297921171 .edge-pattern-dashed{stroke-dasharray:3;}#mermaid-1725297921171 .edge-pattern-dotted{stroke-dasharray:2;}#mermaid-1725297921171 .marker{fill:lightgrey;stroke:lightgrey;}#mermaid-1725297921171 .marker.cross{stroke:lightgrey;}#mermaid-1725297921171 svg{font-family:"trebuchet ms",verdana,arial,sans-serif;font-size:16px;}#mermaid-1725297921171 p{margin:0;}#mermaid-1725297921171 .entityBox{fill:#1f2020;stroke:#ccc;}#mermaid-1725297921171 .attributeBoxOdd{fill:hsl(0, 0%, 32%);stroke:#ccc;}#mermaid-1725297921171 .attributeBoxEven{fill:hsl(0, 0%, 22%);stroke:#ccc;}#mermaid-1725297921171 .relationshipLabelBox{fill:hsl(20, 1.5873015873%, 12.3529411765%);opacity:0.7;background-color:hsl(20, 1.5873015873%, 12.3529411765%);}#mermaid-1725297921171 .relationshipLabelBox rect{opacity:0.5;}#mermaid-1725297921171 .relationshipLine{stroke:lightgrey;}#mermaid-1725297921171 .entityTitleText{text-anchor:middle;font-size:18px;fill:#ccc;}#mermaid-1725297921171 #MD_PARENT_START{fill:#f5f5f5!important;stroke:lightgrey!important;stroke-width:1;}#mermaid-1725297921171 #MD_PARENT_END{fill:#f5f5f5!important;stroke:lightgrey!important;stroke-width:1;}#mermaid-1725297921171 :root{--mermaid-font-family:"trebuchet ms",verdana,arial,sans-serif;}</style><g></g><defs><marker orient="auto" markerHeight="240" markerWidth="190" refY="7" refX="0" id="MD_PARENT_START"><path d="M 18,7 L9,13 L1,7 L9,1 Z"></path></marker></defs><defs><marker orient="auto" markerHeight="28" markerWidth="20" refY="7" refX="19" id="MD_PARENT_END"><path d="M 18,7 L9,13 L1,7 L9,1 Z"></path></marker></defs><defs><marker orient="auto" markerHeight="18" markerWidth="18" refY="9" refX="0" id="ONLY_ONE_START"><path d="M9,0 L9,18 M15,0 L15,18" fill="none" stroke="gray"></path></marker></defs><defs><marker orient="auto" markerHeight="18" markerWidth="18" refY="9" refX="18" id="ONLY_ONE_END"><path d="M3,0 L3,18 M9,0 L9,18" fill="none" stroke="gray"></path></marker></defs><defs><marker orient="auto" markerHeight="18" markerWidth="30" refY="9" refX="0" id="ZERO_OR_ONE_START"><circle r="6" cy="9" cx="21" fill="white" stroke="gray"></circle><path d="M9,0 L9,18" fill="none" stroke="gray"></path></marker></defs><defs><marker orient="auto" markerHeight="18" markerWidth="30" refY="9" refX="30" id="ZERO_OR_ONE_END"><circle r="6" cy="9" cx="9" fill="white" stroke="gray"></circle><path d="M21,0 L21,18" fill="none" stroke="gray"></path></marker></defs><defs><marker orient="auto" markerHeight="36" markerWidth="45" refY="18" refX="18" id="ONE_OR_MORE_START"><path d="M0,18 Q 18,0 36,18 Q 18,36 0,18 M42,9 L42,27" fill="none" stroke="gray"></path></marker></defs><defs><marker orient="auto" markerHeight="36" markerWidth="45" refY="18" refX="27" id="ONE_OR_MORE_END"><path d="M3,9 L3,27 M9,18 Q27,0 45,18 Q27,36 9,18" fill="none" stroke="gray"></path></marker></defs><defs><marker orient="auto" markerHeight="36" markerWidth="57" refY="18" refX="18" id="ZERO_OR_MORE_START"><circle r="6" cy="18" cx="48" fill="white" stroke="gray"></circle><path d="M0,18 Q18,0 36,18 Q18,36 0,18" fill="none" stroke="gray"></path></marker></defs><defs><marker orient="auto" markerHeight="36" markerWidth="57" refY="18" refX="39" id="ZERO_OR_MORE_END"><circle r="6" cy="18" cx="9" fill="white" stroke="gray"></circle><path d="M21,18 Q39,0 57,18 Q39,36 21,18" fill="none" stroke="gray"></path></marker></defs><path style="stroke: gray; fill: none;" marker-start="url(#ONLY_ONE_START)" marker-end="url(#ZERO_OR_MORE_END)" d="M212.528,191L201.867,199.333C191.206,207.667,169.884,224.333,159.223,241C148.563,257.667,148.563,274.333,148.563,282.667L148.563,291" class="er relationshipLine"></path><path style="stroke: gray; fill: none;" marker-start="url(#ONLY_ONE_START)" marker-end="url(#ZERO_OR_MORE_END)" d="M431.288,191L441.949,199.333C452.61,207.667,473.931,224.333,484.592,249.75C495.253,275.167,495.253,309.333,495.253,326.417L495.253,343.5" class="er relationshipLine"></path><g transform="translate(20,291 )" id="entity-livros-8a7c2800-703b-5482-825f-7634c5124214"><rect height="276" width="257.125" y="0" x="0" class="er entityBox"></rect><text style="dominant-baseline: middle; text-anchor: middle; font-size: 12px;" transform="translate(128.5625,12)" y="0" x="0" id="text-entity-livros-8a7c2800-703b-5482-825f-7634c5124214" class="er entityLabel">livros</text><rect height="21" width="71.171875" y="24" x="0" class="er attributeBoxOdd"></rect><text style="dominant-baseline: middle; font-size: 10.2px;" transform="translate(5,34.5)" y="0" x="0" id="text-entity-livros-8a7c2800-703b-5482-825f-7634c5124214-attr-1-type" class="er entityLabel">inputText</text><rect height="21" width="85.90625" y="24" x="71.171875" class="er attributeBoxOdd"></rect><text style="dominant-baseline: middle; font-size: 10.2px;" transform="translate(76.171875,34.5)" y="0" x="0" id="text-entity-livros-8a7c2800-703b-5482-825f-7634c5124214-attr-1-name" class="er entityLabel">titulo</text><rect height="21" width="100.046875" y="24" x="157.078125" class="er attributeBoxOdd"></rect><text style="dominant-baseline: middle; font-size: 10.2px;" transform="translate(162.078125,34.5)" y="0" x="0" id="text-entity-livros-8a7c2800-703b-5482-825f-7634c5124214-attr-1-comment" class="er entityLabel">Título</text><rect height="21" width="71.171875" y="45" x="0" class="er attributeBoxEven"></rect><text style="dominant-baseline: middle; font-size: 10.2px;" transform="translate(5,55.5)" y="0" x="0" id="text-entity-livros-8a7c2800-703b-5482-825f-7634c5124214-attr-2-type" class="er entityLabel">inputText</text><rect height="21" width="85.90625" y="45" x="71.171875" class="er attributeBoxEven"></rect><text style="dominant-baseline: middle; font-size: 10.2px;" transform="translate(76.171875,55.5)" y="0" x="0" id="text-entity-livros-8a7c2800-703b-5482-825f-7634c5124214-attr-2-name" class="er entityLabel">autor</text><rect height="21" width="100.046875" y="45" x="157.078125" class="er attributeBoxEven"></rect><text style="dominant-baseline: middle; font-size: 10.2px;" transform="translate(162.078125,55.5)" y="0" x="0" id="text-entity-livros-8a7c2800-703b-5482-825f-7634c5124214-attr-2-comment" class="er entityLabel">Autor</text><rect height="21" width="71.171875" y="66" x="0" class="er attributeBoxOdd"></rect><text style="dominant-baseline: middle; font-size: 10.2px;" transform="translate(5,76.5)" y="0" x="0" id="text-entity-livros-8a7c2800-703b-5482-825f-7634c5124214-attr-3-type" class="er entityLabel">EnlDropdown</text><rect height="21" width="85.90625" y="66" x="71.171875" class="er attributeBoxOdd"></rect><text style="dominant-baseline: middle; font-size: 10.2px;" transform="translate(76.171875,76.5)" y="0" x="0" id="text-entity-livros-8a7c2800-703b-5482-825f-7634c5124214-attr-3-name" class="er entityLabel">categoria</text><rect height="21" width="100.046875" y="66" x="157.078125" class="er attributeBoxOdd"></rect><text style="dominant-baseline: middle; font-size: 10.2px;" transform="translate(162.078125,76.5)" y="0" x="0" id="text-entity-livros-8a7c2800-703b-5482-825f-7634c5124214-attr-3-comment" class="er entityLabel">Categoria</text><rect height="21" width="71.171875" y="87" x="0" class="er attributeBoxEven"></rect><text style="dominant-baseline: middle; font-size: 10.2px;" transform="translate(5,97.5)" y="0" x="0" id="text-entity-livros-8a7c2800-703b-5482-825f-7634c5124214-attr-4-type" class="er entityLabel">inputText</text><rect height="21" width="85.90625" y="87" x="71.171875" class="er attributeBoxEven"></rect><text style="dominant-baseline: middle; font-size: 10.2px;" transform="translate(76.171875,97.5)" y="0" x="0" id="text-entity-livros-8a7c2800-703b-5482-825f-7634c5124214-attr-4-name" class="er entityLabel">isbn</text><rect height="21" width="100.046875" y="87" x="157.078125" class="er attributeBoxEven"></rect><text style="dominant-baseline: middle; font-size: 10.2px;" transform="translate(162.078125,97.5)" y="0" x="0" id="text-entity-livros-8a7c2800-703b-5482-825f-7634c5124214-attr-4-comment" class="er entityLabel">ISBN</text><rect height="21" width="71.171875" y="108" x="0" class="er attributeBoxOdd"></rect><text style="dominant-baseline: middle; font-size: 10.2px;" transform="translate(5,118.5)" y="0" x="0" id="text-entity-livros-8a7c2800-703b-5482-825f-7634c5124214-attr-5-type" class="er entityLabel">inputText</text><rect height="21" width="85.90625" y="108" x="71.171875" class="er attributeBoxOdd"></rect><text style="dominant-baseline: middle; font-size: 10.2px;" transform="translate(76.171875,118.5)" y="0" x="0" id="text-entity-livros-8a7c2800-703b-5482-825f-7634c5124214-attr-5-name" class="er entityLabel">editora</text><rect height="21" width="100.046875" y="108" x="157.078125" class="er attributeBoxOdd"></rect><text style="dominant-baseline: middle; font-size: 10.2px;" transform="translate(162.078125,118.5)" y="0" x="0" id="text-entity-livros-8a7c2800-703b-5482-825f-7634c5124214-attr-5-comment" class="er entityLabel">Editora</text><rect height="21" width="71.171875" y="129" x="0" class="er attributeBoxEven"></rect><text style="dominant-baseline: middle; font-size: 10.2px;" transform="translate(5,139.5)" y="0" x="0" id="text-entity-livros-8a7c2800-703b-5482-825f-7634c5124214-attr-6-type" class="er entityLabel">inputText</text><rect height="21" width="85.90625" y="129" x="71.171875" class="er attributeBoxEven"></rect><text style="dominant-baseline: middle; font-size: 10.2px;" transform="translate(76.171875,139.5)" y="0" x="0" id="text-entity-livros-8a7c2800-703b-5482-825f-7634c5124214-attr-6-name" class="er entityLabel">ano_publicacao</text><rect height="21" width="100.046875" y="129" x="157.078125" class="er attributeBoxEven"></rect><text style="dominant-baseline: middle; font-size: 10.2px;" transform="translate(162.078125,139.5)" y="0" x="0" id="text-entity-livros-8a7c2800-703b-5482-825f-7634c5124214-attr-6-comment" class="er entityLabel">Ano de Publicação</text><rect height="21" width="71.171875" y="150" x="0" class="er attributeBoxOdd"></rect><text style="dominant-baseline: middle; font-size: 10.2px;" transform="translate(5,160.5)" y="0" x="0" id="text-entity-livros-8a7c2800-703b-5482-825f-7634c5124214-attr-7-type" class="er entityLabel">inputText</text><rect height="21" width="85.90625" y="150" x="71.171875" class="er attributeBoxOdd"></rect><text style="dominant-baseline: middle; font-size: 10.2px;" transform="translate(76.171875,160.5)" y="0" x="0" id="text-entity-livros-8a7c2800-703b-5482-825f-7634c5124214-attr-7-name" class="er entityLabel">edicao</text><rect height="21" width="100.046875" y="150" x="157.078125" class="er attributeBoxOdd"></rect><text style="dominant-baseline: middle; font-size: 10.2px;" transform="translate(162.078125,160.5)" y="0" x="0" id="text-entity-livros-8a7c2800-703b-5482-825f-7634c5124214-attr-7-comment" class="er entityLabel">Edição</text><rect height="21" width="71.171875" y="171" x="0" class="er attributeBoxEven"></rect><text style="dominant-baseline: middle; font-size: 10.2px;" transform="translate(5,181.5)" y="0" x="0" id="text-entity-livros-8a7c2800-703b-5482-825f-7634c5124214-attr-8-type" class="er entityLabel">inputText</text><rect height="21" width="85.90625" y="171" x="71.171875" class="er attributeBoxEven"></rect><text style="dominant-baseline: middle; font-size: 10.2px;" transform="translate(76.171875,181.5)" y="0" x="0" id="text-entity-livros-8a7c2800-703b-5482-825f-7634c5124214-attr-8-name" class="er entityLabel">numero_paginas</text><rect height="21" width="100.046875" y="171" x="157.078125" class="er attributeBoxEven"></rect><text style="dominant-baseline: middle; font-size: 10.2px;" transform="translate(162.078125,181.5)" y="0" x="0" id="text-entity-livros-8a7c2800-703b-5482-825f-7634c5124214-attr-8-comment" class="er entityLabel">Número de Páginas</text><rect height="21" width="71.171875" y="192" x="0" class="er attributeBoxOdd"></rect><text style="dominant-baseline: middle; font-size: 10.2px;" transform="translate(5,202.5)" y="0" x="0" id="text-entity-livros-8a7c2800-703b-5482-825f-7634c5124214-attr-9-type" class="er entityLabel">EnlDropdown</text><rect height="21" width="85.90625" y="192" x="71.171875" class="er attributeBoxOdd"></rect><text style="dominant-baseline: middle; font-size: 10.2px;" transform="translate(76.171875,202.5)" y="0" x="0" id="text-entity-livros-8a7c2800-703b-5482-825f-7634c5124214-attr-9-name" class="er entityLabel">idioma</text><rect height="21" width="100.046875" y="192" x="157.078125" class="er attributeBoxOdd"></rect><text style="dominant-baseline: middle; font-size: 10.2px;" transform="translate(162.078125,202.5)" y="0" x="0" id="text-entity-livros-8a7c2800-703b-5482-825f-7634c5124214-attr-9-comment" class="er entityLabel">Idioma</text><rect height="21" width="71.171875" y="213" x="0" class="er attributeBoxEven"></rect><text style="dominant-baseline: middle; font-size: 10.2px;" transform="translate(5,223.5)" y="0" x="0" id="text-entity-livros-8a7c2800-703b-5482-825f-7634c5124214-attr-10-type" class="er entityLabel">inputSwitch</text><rect height="21" width="85.90625" y="213" x="71.171875" class="er attributeBoxEven"></rect><text style="dominant-baseline: middle; font-size: 10.2px;" transform="translate(76.171875,223.5)" y="0" x="0" id="text-entity-livros-8a7c2800-703b-5482-825f-7634c5124214-attr-10-name" class="er entityLabel">disponivel</text><rect height="21" width="100.046875" y="213" x="157.078125" class="er attributeBoxEven"></rect><text style="dominant-baseline: middle; font-size: 10.2px;" transform="translate(162.078125,223.5)" y="0" x="0" id="text-entity-livros-8a7c2800-703b-5482-825f-7634c5124214-attr-10-comment" class="er entityLabel">Disponível</text><rect height="21" width="71.171875" y="234" x="0" class="er attributeBoxOdd"></rect><text style="dominant-baseline: middle; font-size: 10.2px;" transform="translate(5,244.5)" y="0" x="0" id="text-entity-livros-8a7c2800-703b-5482-825f-7634c5124214-attr-11-type" class="er entityLabel">inputText</text><rect height="21" width="85.90625" y="234" x="71.171875" class="er attributeBoxOdd"></rect><text style="dominant-baseline: middle; font-size: 10.2px;" transform="translate(76.171875,244.5)" y="0" x="0" id="text-entity-livros-8a7c2800-703b-5482-825f-7634c5124214-attr-11-name" class="er entityLabel">localizacao</text><rect height="21" width="100.046875" y="234" x="157.078125" class="er attributeBoxOdd"></rect><text style="dominant-baseline: middle; font-size: 10.2px;" transform="translate(162.078125,244.5)" y="0" x="0" id="text-entity-livros-8a7c2800-703b-5482-825f-7634c5124214-attr-11-comment" class="er entityLabel">Localização</text><rect height="21" width="71.171875" y="255" x="0" class="er attributeBoxEven"></rect><text style="dominant-baseline: middle; font-size: 10.2px;" transform="translate(5,265.5)" y="0" x="0" id="text-entity-livros-8a7c2800-703b-5482-825f-7634c5124214-attr-12-type" class="er entityLabel">EnHtml</text><rect height="21" width="85.90625" y="255" x="71.171875" class="er attributeBoxEven"></rect><text style="dominant-baseline: middle; font-size: 10.2px;" transform="translate(76.171875,265.5)" y="0" x="0" id="text-entity-livros-8a7c2800-703b-5482-825f-7634c5124214-attr-12-name" class="er entityLabel">descricao</text><rect height="21" width="100.046875" y="255" x="157.078125" class="er attributeBoxEven"></rect><text style="dominant-baseline: middle; font-size: 10.2px;" transform="translate(162.078125,265.5)" y="0" x="0" id="text-entity-livros-8a7c2800-703b-5482-825f-7634c5124214-attr-12-comment" class="er entityLabel">Descrição</text></g><g transform="translate(377.125,343.5 )" id="entity-membros-da2bbbfa-e6c6-5799-9c9c-ece2436da4eb"><rect height="171" width="236.25604248046875" y="0" x="0" class="er entityBox"></rect><text style="dominant-baseline: middle; text-anchor: middle; font-size: 12px;" transform="translate(118.12802124023438,12)" y="0" x="0" id="text-entity-membros-da2bbbfa-e6c6-5799-9c9c-ece2436da4eb" class="er entityLabel">membros</text><rect height="21" width="71.171875" y="24" x="0" class="er attributeBoxOdd"></rect><text style="dominant-baseline: middle; font-size: 10.2px;" transform="translate(5,34.5)" y="0" x="0" id="text-entity-membros-da2bbbfa-e6c6-5799-9c9c-ece2436da4eb-attr-1-type" class="er entityLabel">inputText</text><rect height="21" width="74.90145874023438" y="24" x="71.171875" class="er attributeBoxOdd"></rect><text style="dominant-baseline: middle; font-size: 10.2px;" transform="translate(76.171875,34.5)" y="0" x="0" id="text-entity-membros-da2bbbfa-e6c6-5799-9c9c-ece2436da4eb-attr-1-name" class="er entityLabel">nome</text><rect height="21" width="90.18270874023438" y="24" x="146.07333374023438" class="er attributeBoxOdd"></rect><text style="dominant-baseline: middle; font-size: 10.2px;" transform="translate(151.07333374023438,34.5)" y="0" x="0" id="text-entity-membros-da2bbbfa-e6c6-5799-9c9c-ece2436da4eb-attr-1-comment" class="er entityLabel">Nome</text><rect height="21" width="71.171875" y="45" x="0" class="er attributeBoxEven"></rect><text style="dominant-baseline: middle; font-size: 10.2px;" transform="translate(5,55.5)" y="0" x="0" id="text-entity-membros-da2bbbfa-e6c6-5799-9c9c-ece2436da4eb-attr-2-type" class="er entityLabel">inputText</text><rect height="21" width="74.90145874023438" y="45" x="71.171875" class="er attributeBoxEven"></rect><text style="dominant-baseline: middle; font-size: 10.2px;" transform="translate(76.171875,55.5)" y="0" x="0" id="text-entity-membros-da2bbbfa-e6c6-5799-9c9c-ece2436da4eb-attr-2-name" class="er entityLabel">cpf</text><rect height="21" width="90.18270874023438" y="45" x="146.07333374023438" class="er attributeBoxEven"></rect><text style="dominant-baseline: middle; font-size: 10.2px;" transform="translate(151.07333374023438,55.5)" y="0" x="0" id="text-entity-membros-da2bbbfa-e6c6-5799-9c9c-ece2436da4eb-attr-2-comment" class="er entityLabel">CPF</text><rect height="21" width="71.171875" y="66" x="0" class="er attributeBoxOdd"></rect><text style="dominant-baseline: middle; font-size: 10.2px;" transform="translate(5,76.5)" y="0" x="0" id="text-entity-membros-da2bbbfa-e6c6-5799-9c9c-ece2436da4eb-attr-3-type" class="er entityLabel">inputText</text><rect height="21" width="74.90145874023438" y="66" x="71.171875" class="er attributeBoxOdd"></rect><text style="dominant-baseline: middle; font-size: 10.2px;" transform="translate(76.171875,76.5)" y="0" x="0" id="text-entity-membros-da2bbbfa-e6c6-5799-9c9c-ece2436da4eb-attr-3-name" class="er entityLabel">email</text><rect height="21" width="90.18270874023438" y="66" x="146.07333374023438" class="er attributeBoxOdd"></rect><text style="dominant-baseline: middle; font-size: 10.2px;" transform="translate(151.07333374023438,76.5)" y="0" x="0" id="text-entity-membros-da2bbbfa-e6c6-5799-9c9c-ece2436da4eb-attr-3-comment" class="er entityLabel">E-mail</text><rect height="21" width="71.171875" y="87" x="0" class="er attributeBoxEven"></rect><text style="dominant-baseline: middle; font-size: 10.2px;" transform="translate(5,97.5)" y="0" x="0" id="text-entity-membros-da2bbbfa-e6c6-5799-9c9c-ece2436da4eb-attr-4-type" class="er entityLabel">inputText</text><rect height="21" width="74.90145874023438" y="87" x="71.171875" class="er attributeBoxEven"></rect><text style="dominant-baseline: middle; font-size: 10.2px;" transform="translate(76.171875,97.5)" y="0" x="0" id="text-entity-membros-da2bbbfa-e6c6-5799-9c9c-ece2436da4eb-attr-4-name" class="er entityLabel">telefone</text><rect height="21" width="90.18270874023438" y="87" x="146.07333374023438" class="er attributeBoxEven"></rect><text style="dominant-baseline: middle; font-size: 10.2px;" transform="translate(151.07333374023438,97.5)" y="0" x="0" id="text-entity-membros-da2bbbfa-e6c6-5799-9c9c-ece2436da4eb-attr-4-comment" class="er entityLabel">Telefone</text><rect height="21" width="71.171875" y="108" x="0" class="er attributeBoxOdd"></rect><text style="dominant-baseline: middle; font-size: 10.2px;" transform="translate(5,118.5)" y="0" x="0" id="text-entity-membros-da2bbbfa-e6c6-5799-9c9c-ece2436da4eb-attr-5-type" class="er entityLabel">inputText</text><rect height="21" width="74.90145874023438" y="108" x="71.171875" class="er attributeBoxOdd"></rect><text style="dominant-baseline: middle; font-size: 10.2px;" transform="translate(76.171875,118.5)" y="0" x="0" id="text-entity-membros-da2bbbfa-e6c6-5799-9c9c-ece2436da4eb-attr-5-name" class="er entityLabel">endereco</text><rect height="21" width="90.18270874023438" y="108" x="146.07333374023438" class="er attributeBoxOdd"></rect><text style="dominant-baseline: middle; font-size: 10.2px;" transform="translate(151.07333374023438,118.5)" y="0" x="0" id="text-entity-membros-da2bbbfa-e6c6-5799-9c9c-ece2436da4eb-attr-5-comment" class="er entityLabel">Endereço</text><rect height="21" width="71.171875" y="129" x="0" class="er attributeBoxEven"></rect><text style="dominant-baseline: middle; font-size: 10.2px;" transform="translate(5,139.5)" y="0" x="0" id="text-entity-membros-da2bbbfa-e6c6-5799-9c9c-ece2436da4eb-attr-6-type" class="er entityLabel">EnlCalendar</text><rect height="21" width="74.90145874023438" y="129" x="71.171875" class="er attributeBoxEven"></rect><text style="dominant-baseline: middle; font-size: 10.2px;" transform="translate(76.171875,139.5)" y="0" x="0" id="text-entity-membros-da2bbbfa-e6c6-5799-9c9c-ece2436da4eb-attr-6-name" class="er entityLabel">data_cadastro</text><rect height="21" width="90.18270874023438" y="129" x="146.07333374023438" class="er attributeBoxEven"></rect><text style="dominant-baseline: middle; font-size: 10.2px;" transform="translate(151.07333374023438,139.5)" y="0" x="0" id="text-entity-membros-da2bbbfa-e6c6-5799-9c9c-ece2436da4eb-attr-6-comment" class="er entityLabel">Data de Cadastro</text><rect height="21" width="71.171875" y="150" x="0" class="er attributeBoxOdd"></rect><text style="dominant-baseline: middle; font-size: 10.2px;" transform="translate(5,160.5)" y="0" x="0" id="text-entity-membros-da2bbbfa-e6c6-5799-9c9c-ece2436da4eb-attr-7-type" class="er entityLabel">EnlDropdown</text><rect height="21" width="74.90145874023438" y="150" x="71.171875" class="er attributeBoxOdd"></rect><text style="dominant-baseline: middle; font-size: 10.2px;" transform="translate(76.171875,160.5)" y="0" x="0" id="text-entity-membros-da2bbbfa-e6c6-5799-9c9c-ece2436da4eb-attr-7-name" class="er entityLabel">status</text><rect height="21" width="90.18270874023438" y="150" x="146.07333374023438" class="er attributeBoxOdd"></rect><text style="dominant-baseline: middle; font-size: 10.2px;" transform="translate(151.07333374023438,160.5)" y="0" x="0" id="text-entity-membros-da2bbbfa-e6c6-5799-9c9c-ece2436da4eb-attr-7-comment" class="er entityLabel">Status</text></g><g transform="translate(156.2098846435547,20 )" id="entity-emprestimos-673b3e03-d5e6-599c-8fc6-201c32bdb6ee"><rect height="171" width="331.395751953125" y="0" x="0" class="er entityBox"></rect><text style="dominant-baseline: middle; text-anchor: middle; font-size: 12px;" transform="translate(165.6978759765625,12)" y="0" x="0" id="text-entity-emprestimos-673b3e03-d5e6-599c-8fc6-201c32bdb6ee" class="er entityLabel">emprestimos</text><rect height="21" width="71.171875" y="24" x="0" class="er attributeBoxOdd"></rect><text style="dominant-baseline: middle; font-size: 10.2px;" transform="translate(5,34.5)" y="0" x="0" id="text-entity-emprestimos-673b3e03-d5e6-599c-8fc6-201c32bdb6ee-attr-1-type" class="er entityLabel">EnRel</text><rect height="21" width="123.61044311523438" y="24" x="71.171875" class="er attributeBoxOdd"></rect><text style="dominant-baseline: middle; font-size: 10.2px;" transform="translate(76.171875,34.5)" y="0" x="0" id="text-entity-emprestimos-673b3e03-d5e6-599c-8fc6-201c32bdb6ee-attr-1-name" class="er entityLabel">livro</text><rect height="21" width="136.61343383789062" y="24" x="194.78231811523438" class="er attributeBoxOdd"></rect><text style="dominant-baseline: middle; font-size: 10.2px;" transform="translate(199.78231811523438,34.5)" y="0" x="0" id="text-entity-emprestimos-673b3e03-d5e6-599c-8fc6-201c32bdb6ee-attr-1-comment" class="er entityLabel">Livro</text><rect height="21" width="71.171875" y="45" x="0" class="er attributeBoxEven"></rect><text style="dominant-baseline: middle; font-size: 10.2px;" transform="translate(5,55.5)" y="0" x="0" id="text-entity-emprestimos-673b3e03-d5e6-599c-8fc6-201c32bdb6ee-attr-2-type" class="er entityLabel">EnRel</text><rect height="21" width="123.61044311523438" y="45" x="71.171875" class="er attributeBoxEven"></rect><text style="dominant-baseline: middle; font-size: 10.2px;" transform="translate(76.171875,55.5)" y="0" x="0" id="text-entity-emprestimos-673b3e03-d5e6-599c-8fc6-201c32bdb6ee-attr-2-name" class="er entityLabel">membro</text><rect height="21" width="136.61343383789062" y="45" x="194.78231811523438" class="er attributeBoxEven"></rect><text style="dominant-baseline: middle; font-size: 10.2px;" transform="translate(199.78231811523438,55.5)" y="0" x="0" id="text-entity-emprestimos-673b3e03-d5e6-599c-8fc6-201c32bdb6ee-attr-2-comment" class="er entityLabel">Membro</text><rect height="21" width="71.171875" y="66" x="0" class="er attributeBoxOdd"></rect><text style="dominant-baseline: middle; font-size: 10.2px;" transform="translate(5,76.5)" y="0" x="0" id="text-entity-emprestimos-673b3e03-d5e6-599c-8fc6-201c32bdb6ee-attr-3-type" class="er entityLabel">EnlCalendar</text><rect height="21" width="123.61044311523438" y="66" x="71.171875" class="er attributeBoxOdd"></rect><text style="dominant-baseline: middle; font-size: 10.2px;" transform="translate(76.171875,76.5)" y="0" x="0" id="text-entity-emprestimos-673b3e03-d5e6-599c-8fc6-201c32bdb6ee-attr-3-name" class="er entityLabel">data_emprestimo</text><rect height="21" width="136.61343383789062" y="66" x="194.78231811523438" class="er attributeBoxOdd"></rect><text style="dominant-baseline: middle; font-size: 10.2px;" transform="translate(199.78231811523438,76.5)" y="0" x="0" id="text-entity-emprestimos-673b3e03-d5e6-599c-8fc6-201c32bdb6ee-attr-3-comment" class="er entityLabel">Data de Empréstimo</text><rect height="21" width="71.171875" y="87" x="0" class="er attributeBoxEven"></rect><text style="dominant-baseline: middle; font-size: 10.2px;" transform="translate(5,97.5)" y="0" x="0" id="text-entity-emprestimos-673b3e03-d5e6-599c-8fc6-201c32bdb6ee-attr-4-type" class="er entityLabel">EnlCalendar</text><rect height="21" width="123.61044311523438" y="87" x="71.171875" class="er attributeBoxEven"></rect><text style="dominant-baseline: middle; font-size: 10.2px;" transform="translate(76.171875,97.5)" y="0" x="0" id="text-entity-emprestimos-673b3e03-d5e6-599c-8fc6-201c32bdb6ee-attr-4-name" class="er entityLabel">data_devolucao_prevista</text><rect height="21" width="136.61343383789062" y="87" x="194.78231811523438" class="er attributeBoxEven"></rect><text style="dominant-baseline: middle; font-size: 10.2px;" transform="translate(199.78231811523438,97.5)" y="0" x="0" id="text-entity-emprestimos-673b3e03-d5e6-599c-8fc6-201c32bdb6ee-attr-4-comment" class="er entityLabel">Data de Devolução Prevista</text><rect height="21" width="71.171875" y="108" x="0" class="er attributeBoxOdd"></rect><text style="dominant-baseline: middle; font-size: 10.2px;" transform="translate(5,118.5)" y="0" x="0" id="text-entity-emprestimos-673b3e03-d5e6-599c-8fc6-201c32bdb6ee-attr-5-type" class="er entityLabel">EnlCalendar</text><rect height="21" width="123.61044311523438" y="108" x="71.171875" class="er attributeBoxOdd"></rect><text style="dominant-baseline: middle; font-size: 10.2px;" transform="translate(76.171875,118.5)" y="0" x="0" id="text-entity-emprestimos-673b3e03-d5e6-599c-8fc6-201c32bdb6ee-attr-5-name" class="er entityLabel">data_devolucao_real</text><rect height="21" width="136.61343383789062" y="108" x="194.78231811523438" class="er attributeBoxOdd"></rect><text style="dominant-baseline: middle; font-size: 10.2px;" transform="translate(199.78231811523438,118.5)" y="0" x="0" id="text-entity-emprestimos-673b3e03-d5e6-599c-8fc6-201c32bdb6ee-attr-5-comment" class="er entityLabel">Data de Devolução Real</text><rect height="21" width="71.171875" y="129" x="0" class="er attributeBoxEven"></rect><text style="dominant-baseline: middle; font-size: 10.2px;" transform="translate(5,139.5)" y="0" x="0" id="text-entity-emprestimos-673b3e03-d5e6-599c-8fc6-201c32bdb6ee-attr-6-type" class="er entityLabel">EnlDropdown</text><rect height="21" width="123.61044311523438" y="129" x="71.171875" class="er attributeBoxEven"></rect><text style="dominant-baseline: middle; font-size: 10.2px;" transform="translate(76.171875,139.5)" y="0" x="0" id="text-entity-emprestimos-673b3e03-d5e6-599c-8fc6-201c32bdb6ee-attr-6-name" class="er entityLabel">status</text><rect height="21" width="136.61343383789062" y="129" x="194.78231811523438" class="er attributeBoxEven"></rect><text style="dominant-baseline: middle; font-size: 10.2px;" transform="translate(199.78231811523438,139.5)" y="0" x="0" id="text-entity-emprestimos-673b3e03-d5e6-599c-8fc6-201c32bdb6ee-attr-6-comment" class="er entityLabel">Status</text><rect height="21" width="71.171875" y="150" x="0" class="er attributeBoxOdd"></rect><text style="dominant-baseline: middle; font-size: 10.2px;" transform="translate(5,160.5)" y="0" x="0" id="text-entity-emprestimos-673b3e03-d5e6-599c-8fc6-201c32bdb6ee-attr-7-type" class="er entityLabel">inputText</text><rect height="21" width="123.61044311523438" y="150" x="71.171875" class="er attributeBoxOdd"></rect><text style="dominant-baseline: middle; font-size: 10.2px;" transform="translate(76.171875,160.5)" y="0" x="0" id="text-entity-emprestimos-673b3e03-d5e6-599c-8fc6-201c32bdb6ee-attr-7-name" class="er entityLabel">observacoes</text><rect height="21" width="136.61343383789062" y="150" x="194.78231811523438" class="er attributeBoxOdd"></rect><text style="dominant-baseline: middle; font-size: 10.2px;" transform="translate(199.78231811523438,160.5)" y="0" x="0" id="text-entity-emprestimos-673b3e03-d5e6-599c-8fc6-201c32bdb6ee-attr-7-comment" class="er entityLabel">Observações</text></g><g transform="translate(587.6056365966797,72.5 )" id="entity-categorias-197a0a7a-fe9a-5764-9516-641a8d715c91"><rect height="66" width="160.5033721923828" y="0" x="0" class="er entityBox"></rect><text style="dominant-baseline: middle; text-anchor: middle; font-size: 12px;" transform="translate(80.2516860961914,12)" y="0" x="0" id="text-entity-categorias-197a0a7a-fe9a-5764-9516-641a8d715c91" class="er entityLabel">categorias</text><rect height="21" width="50.94306945800781" y="24" x="0" class="er attributeBoxOdd"></rect><text style="dominant-baseline: middle; font-size: 10.2px;" transform="translate(5,34.5)" y="0" x="0" id="text-entity-categorias-197a0a7a-fe9a-5764-9516-641a8d715c91-attr-1-type" class="er entityLabel">inputText</text><rect height="21" width="53.93450927734375" y="24" x="50.94306945800781" class="er attributeBoxOdd"></rect><text style="dominant-baseline: middle; font-size: 10.2px;" transform="translate(55.94306945800781,34.5)" y="0" x="0" id="text-entity-categorias-197a0a7a-fe9a-5764-9516-641a8d715c91-attr-1-name" class="er entityLabel">nome</text><rect height="21" width="55.62579345703125" y="24" x="104.87757873535156" class="er attributeBoxOdd"></rect><text style="dominant-baseline: middle; font-size: 10.2px;" transform="translate(109.87757873535156,34.5)" y="0" x="0" id="text-entity-categorias-197a0a7a-fe9a-5764-9516-641a8d715c91-attr-1-comment" class="er entityLabel">Nome</text><rect height="21" width="50.94306945800781" y="45" x="0" class="er attributeBoxEven"></rect><text style="dominant-baseline: middle; font-size: 10.2px;" transform="translate(5,55.5)" y="0" x="0" id="text-entity-categorias-197a0a7a-fe9a-5764-9516-641a8d715c91-attr-2-type" class="er entityLabel">inputText</text><rect height="21" width="53.93450927734375" y="45" x="50.94306945800781" class="er attributeBoxEven"></rect><text style="dominant-baseline: middle; font-size: 10.2px;" transform="translate(55.94306945800781,55.5)" y="0" x="0" id="text-entity-categorias-197a0a7a-fe9a-5764-9516-641a8d715c91-attr-2-name" class="er entityLabel">descricao</text><rect height="21" width="55.62579345703125" y="45" x="104.87757873535156" class="er attributeBoxEven"></rect><text style="dominant-baseline: middle; font-size: 10.2px;" transform="translate(109.87757873535156,55.5)" y="0" x="0" id="text-entity-categorias-197a0a7a-fe9a-5764-9516-641a8d715c91-attr-2-comment" class="er entityLabel">Descrição</text></g><g transform="translate(848.1090087890625,30.5 )" id="entity-fornecedores-835a447c-f99d-56dd-ab06-bb9cb14470ff"><rect height="150" width="160.5033721923828" y="0" x="0" class="er entityBox"></rect><text style="dominant-baseline: middle; text-anchor: middle; font-size: 12px;" transform="translate(80.2516860961914,12)" y="0" x="0" id="text-entity-fornecedores-835a447c-f99d-56dd-ab06-bb9cb14470ff" class="er entityLabel">fornecedores</text><rect height="21" width="50.94306945800781" y="24" x="0" class="er attributeBoxOdd"></rect><text style="dominant-baseline: middle; font-size: 10.2px;" transform="translate(5,34.5)" y="0" x="0" id="text-entity-fornecedores-835a447c-f99d-56dd-ab06-bb9cb14470ff-attr-1-type" class="er entityLabel">inputText</text><rect height="21" width="53.93450927734375" y="24" x="50.94306945800781" class="er attributeBoxOdd"></rect><text style="dominant-baseline: middle; font-size: 10.2px;" transform="translate(55.94306945800781,34.5)" y="0" x="0" id="text-entity-fornecedores-835a447c-f99d-56dd-ab06-bb9cb14470ff-attr-1-name" class="er entityLabel">nome</text><rect height="21" width="55.62579345703125" y="24" x="104.87757873535156" class="er attributeBoxOdd"></rect><text style="dominant-baseline: middle; font-size: 10.2px;" transform="translate(109.87757873535156,34.5)" y="0" x="0" id="text-entity-fornecedores-835a447c-f99d-56dd-ab06-bb9cb14470ff-attr-1-comment" class="er entityLabel">Nome</text><rect height="21" width="50.94306945800781" y="45" x="0" class="er attributeBoxEven"></rect><text style="dominant-baseline: middle; font-size: 10.2px;" transform="translate(5,55.5)" y="0" x="0" id="text-entity-fornecedores-835a447c-f99d-56dd-ab06-bb9cb14470ff-attr-2-type" class="er entityLabel">inputText</text><rect height="21" width="53.93450927734375" y="45" x="50.94306945800781" class="er attributeBoxEven"></rect><text style="dominant-baseline: middle; font-size: 10.2px;" transform="translate(55.94306945800781,55.5)" y="0" x="0" id="text-entity-fornecedores-835a447c-f99d-56dd-ab06-bb9cb14470ff-attr-2-name" class="er entityLabel">cnpj</text><rect height="21" width="55.62579345703125" y="45" x="104.87757873535156" class="er attributeBoxEven"></rect><text style="dominant-baseline: middle; font-size: 10.2px;" transform="translate(109.87757873535156,55.5)" y="0" x="0" id="text-entity-fornecedores-835a447c-f99d-56dd-ab06-bb9cb14470ff-attr-2-comment" class="er entityLabel">CNPJ</text><rect height="21" width="50.94306945800781" y="66" x="0" class="er attributeBoxOdd"></rect><text style="dominant-baseline: middle; font-size: 10.2px;" transform="translate(5,76.5)" y="0" x="0" id="text-entity-fornecedores-835a447c-f99d-56dd-ab06-bb9cb14470ff-attr-3-type" class="er entityLabel">inputText</text><rect height="21" width="53.93450927734375" y="66" x="50.94306945800781" class="er attributeBoxOdd"></rect><text style="dominant-baseline: middle; font-size: 10.2px;" transform="translate(55.94306945800781,76.5)" y="0" x="0" id="text-entity-fornecedores-835a447c-f99d-56dd-ab06-bb9cb14470ff-attr-3-name" class="er entityLabel">telefone</text><rect height="21" width="55.62579345703125" y="66" x="104.87757873535156" class="er attributeBoxOdd"></rect><text style="dominant-baseline: middle; font-size: 10.2px;" transform="translate(109.87757873535156,76.5)" y="0" x="0" id="text-entity-fornecedores-835a447c-f99d-56dd-ab06-bb9cb14470ff-attr-3-comment" class="er entityLabel">Telefone</text><rect height="21" width="50.94306945800781" y="87" x="0" class="er attributeBoxEven"></rect><text style="dominant-baseline: middle; font-size: 10.2px;" transform="translate(5,97.5)" y="0" x="0" id="text-entity-fornecedores-835a447c-f99d-56dd-ab06-bb9cb14470ff-attr-4-type" class="er entityLabel">inputText</text><rect height="21" width="53.93450927734375" y="87" x="50.94306945800781" class="er attributeBoxEven"></rect><text style="dominant-baseline: middle; font-size: 10.2px;" transform="translate(55.94306945800781,97.5)" y="0" x="0" id="text-entity-fornecedores-835a447c-f99d-56dd-ab06-bb9cb14470ff-attr-4-name" class="er entityLabel">email</text><rect height="21" width="55.62579345703125" y="87" x="104.87757873535156" class="er attributeBoxEven"></rect><text style="dominant-baseline: middle; font-size: 10.2px;" transform="translate(109.87757873535156,97.5)" y="0" x="0" id="text-entity-fornecedores-835a447c-f99d-56dd-ab06-bb9cb14470ff-attr-4-comment" class="er entityLabel">E-mail</text><rect height="21" width="50.94306945800781" y="108" x="0" class="er attributeBoxOdd"></rect><text style="dominant-baseline: middle; font-size: 10.2px;" transform="translate(5,118.5)" y="0" x="0" id="text-entity-fornecedores-835a447c-f99d-56dd-ab06-bb9cb14470ff-attr-5-type" class="er entityLabel">inputText</text><rect height="21" width="53.93450927734375" y="108" x="50.94306945800781" class="er attributeBoxOdd"></rect><text style="dominant-baseline: middle; font-size: 10.2px;" transform="translate(55.94306945800781,118.5)" y="0" x="0" id="text-entity-fornecedores-835a447c-f99d-56dd-ab06-bb9cb14470ff-attr-5-name" class="er entityLabel">endereco</text><rect height="21" width="55.62579345703125" y="108" x="104.87757873535156" class="er attributeBoxOdd"></rect><text style="dominant-baseline: middle; font-size: 10.2px;" transform="translate(109.87757873535156,118.5)" y="0" x="0" id="text-entity-fornecedores-835a447c-f99d-56dd-ab06-bb9cb14470ff-attr-5-comment" class="er entityLabel">Endereço</text><rect height="21" width="50.94306945800781" y="129" x="0" class="er attributeBoxEven"></rect><text style="dominant-baseline: middle; font-size: 10.2px;" transform="translate(5,139.5)" y="0" x="0" id="text-entity-fornecedores-835a447c-f99d-56dd-ab06-bb9cb14470ff-attr-6-type" class="er entityLabel">EnHtml</text><rect height="21" width="53.93450927734375" y="129" x="50.94306945800781" class="er attributeBoxEven"></rect><text style="dominant-baseline: middle; font-size: 10.2px;" transform="translate(55.94306945800781,139.5)" y="0" x="0" id="text-entity-fornecedores-835a447c-f99d-56dd-ab06-bb9cb14470ff-attr-6-name" class="er entityLabel">descricao</text><rect height="21" width="55.62579345703125" y="129" x="104.87757873535156" class="er attributeBoxEven"></rect><text style="dominant-baseline: middle; font-size: 10.2px;" transform="translate(109.87757873535156,139.5)" y="0" x="0" id="text-entity-fornecedores-835a447c-f99d-56dd-ab06-bb9cb14470ff-attr-6-comment" class="er entityLabel">Descrição</text></g><rect height="14" width="22.328125" y="225.4008331298828" x="154.4324951171875" class="er relationshipLabelBox"></rect><text style="text-anchor: middle; dominant-baseline: middle; font-size: 12px;" y="232.4008331298828" x="165.5965576171875" id="rel1" class="er relationshipLabel">livro</text><rect height="14" width="44.3359375" y="249.61056518554688" x="464.986083984375" class="er relationshipLabelBox"></rect><text style="text-anchor: middle; dominant-baseline: middle; font-size: 12px;" y="256.6105651855469" x="487.154052734375" id="rel2" class="er relationshipLabel">membro</text></svg>