<svg aria-roledescription="er" role="graphics-document document" viewBox="0 0 1123.0714111328125 940" style="max-width: 1123.0714111328125px;" xmlns:xlink="http://www.w3.org/1999/xlink" xmlns="http://www.w3.org/2000/svg" width="100%" id="mermaid-1725300628050"><style>#mermaid-1725300628050{font-family:"trebuchet ms",verdana,arial,sans-serif;font-size:16px;fill:#ccc;}#mermaid-1725300628050 .error-icon{fill:#a44141;}#mermaid-1725300628050 .error-text{fill:#ddd;stroke:#ddd;}#mermaid-1725300628050 .edge-thickness-normal{stroke-width:1px;}#mermaid-1725300628050 .edge-thickness-thick{stroke-width:3.5px;}#mermaid-1725300628050 .edge-pattern-solid{stroke-dasharray:0;}#mermaid-1725300628050 .edge-thickness-invisible{stroke-width:0;fill:none;}#mermaid-1725300628050 .edge-pattern-dashed{stroke-dasharray:3;}#mermaid-1725300628050 .edge-pattern-dotted{stroke-dasharray:2;}#mermaid-1725300628050 .marker{fill:lightgrey;stroke:lightgrey;}#mermaid-1725300628050 .marker.cross{stroke:lightgrey;}#mermaid-1725300628050 svg{font-family:"trebuchet ms",verdana,arial,sans-serif;font-size:16px;}#mermaid-1725300628050 p{margin:0;}#mermaid-1725300628050 .entityBox{fill:#1f2020;stroke:#ccc;}#mermaid-1725300628050 .attributeBoxOdd{fill:hsl(0, 0%, 32%);stroke:#ccc;}#mermaid-1725300628050 .attributeBoxEven{fill:hsl(0, 0%, 22%);stroke:#ccc;}#mermaid-1725300628050 .relationshipLabelBox{fill:hsl(20, 1.5873015873%, 12.3529411765%);opacity:0.7;background-color:hsl(20, 1.5873015873%, 12.3529411765%);}#mermaid-1725300628050 .relationshipLabelBox rect{opacity:0.5;}#mermaid-1725300628050 .relationshipLine{stroke:lightgrey;}#mermaid-1725300628050 .entityTitleText{text-anchor:middle;font-size:18px;fill:#ccc;}#mermaid-1725300628050 #MD_PARENT_START{fill:#f5f5f5!important;stroke:lightgrey!important;stroke-width:1;}#mermaid-1725300628050 #MD_PARENT_END{fill:#f5f5f5!important;stroke:lightgrey!important;stroke-width:1;}#mermaid-1725300628050 :root{--mermaid-font-family:"trebuchet ms",verdana,arial,sans-serif;}</style><g></g><defs><marker orient="auto" markerHeight="240" markerWidth="190" refY="7" refX="0" id="MD_PARENT_START"><path d="M 18,7 L9,13 L1,7 L9,1 Z"></path></marker></defs><defs><marker orient="auto" markerHeight="28" markerWidth="20" refY="7" refX="19" id="MD_PARENT_END"><path d="M 18,7 L9,13 L1,7 L9,1 Z"></path></marker></defs><defs><marker orient="auto" markerHeight="18" markerWidth="18" refY="9" refX="0" id="ONLY_ONE_START"><path d="M9,0 L9,18 M15,0 L15,18" fill="none" stroke="gray"></path></marker></defs><defs><marker orient="auto" markerHeight="18" markerWidth="18" refY="9" refX="18" id="ONLY_ONE_END"><path d="M3,0 L3,18 M9,0 L9,18" fill="none" stroke="gray"></path></marker></defs><defs><marker orient="auto" markerHeight="18" markerWidth="30" refY="9" refX="0" id="ZERO_OR_ONE_START"><circle r="6" cy="9" cx="21" fill="white" stroke="gray"></circle><path d="M9,0 L9,18" fill="none" stroke="gray"></path></marker></defs><defs><marker orient="auto" markerHeight="18" markerWidth="30" refY="9" refX="30" id="ZERO_OR_ONE_END"><circle r="6" cy="9" cx="9" fill="white" stroke="gray"></circle><path d="M21,0 L21,18" fill="none" stroke="gray"></path></marker></defs><defs><marker orient="auto" markerHeight="36" markerWidth="45" refY="18" refX="18" id="ONE_OR_MORE_START"><path d="M0,18 Q 18,0 36,18 Q 18,36 0,18 M42,9 L42,27" fill="none" stroke="gray"></path></marker></defs><defs><marker orient="auto" markerHeight="36" markerWidth="45" refY="18" refX="27" id="ONE_OR_MORE_END"><path d="M3,9 L3,27 M9,18 Q27,0 45,18 Q27,36 9,18" fill="none" stroke="gray"></path></marker></defs><defs><marker orient="auto" markerHeight="36" markerWidth="57" refY="18" refX="18" id="ZERO_OR_MORE_START"><circle r="6" cy="18" cx="48" fill="white" stroke="gray"></circle><path d="M0,18 Q18,0 36,18 Q18,36 0,18" fill="none" stroke="gray"></path></marker></defs><defs><marker orient="auto" markerHeight="36" markerWidth="57" refY="18" refX="39" id="ZERO_OR_MORE_END"><circle r="6" cy="18" cx="9" fill="white" stroke="gray"></circle><path d="M21,18 Q39,0 57,18 Q39,36 21,18" fill="none" stroke="gray"></path></marker></defs><path style="stroke: gray; fill: none;" marker-start="url(#ONLY_ONE_START)" marker-end="url(#ZERO_OR_MORE_END)" d="M645.964,180.845L626.519,190.871C607.074,200.897,568.183,220.948,554.431,239.308C540.68,257.667,552.066,274.333,557.76,282.667L563.453,291" class="er relationshipLine"></path><path style="stroke: gray; fill: none;" marker-start="url(#ONLY_ONE_START)" marker-end="url(#ZERO_OR_ONE_END)" d="M823.647,191L826.723,199.333C829.798,207.667,835.948,224.333,851.123,242.75C866.298,261.167,890.498,281.333,902.598,291.417L914.698,301.5" class="er relationshipLine"></path><path style="stroke: gray; fill: none;" marker-start="url(#ONLY_ONE_START)" marker-end="url(#ZERO_OR_ONE_END)" d="M306.921,691L303.343,699.333C299.766,707.667,292.612,724.333,307.41,741.845C322.208,759.357,358.959,777.713,377.335,786.891L395.71,796.07" class="er relationshipLine"></path><path style="stroke: gray; fill: none;" marker-start="url(#ONLY_ONE_START)" marker-end="url(#ZERO_OR_ONE_END)" d="M446.434,586.386L504.044,570.488C561.655,554.59,676.876,522.795,722.66,498.564C768.444,474.333,744.79,457.667,732.963,449.333L721.136,441" class="er relationshipLine"></path><path style="stroke: gray; fill: none;" marker-start="url(#ONLY_ONE_START)" marker-end="url(#ZERO_OR_MORE_END)" d="M490.302,441L476.481,449.333C462.66,457.667,435.017,474.333,416.646,491C398.274,507.667,389.173,524.333,384.622,532.667L380.071,541" class="er relationshipLine"></path><path style="stroke: gray; fill: none;" marker-start="url(#ONLY_ONE_START)" marker-end="url(#ZERO_OR_ONE_END)" d="M758.529,311.085L789.124,299.404C819.718,287.723,880.908,264.362,902.278,244.347C923.647,224.333,905.197,207.667,895.972,199.333L886.747,191" class="er relationshipLine"></path><path style="stroke: gray; fill: none;" marker-start="url(#ONLY_ONE_START)" marker-end="url(#ZERO_OR_ONE_END)" d="M584.693,441L581.36,449.333C578.026,457.667,571.36,474.333,568.026,503.5C564.693,532.667,564.693,574.333,564.693,616C564.693,657.667,564.693,699.333,561.054,728.5C557.415,757.667,550.137,774.333,546.498,782.667L542.859,791" class="er relationshipLine"></path><path style="stroke: gray; fill: none;" marker-start="url(#ONLY_ONE_START)" marker-end="url(#ZERO_OR_ONE_END)" d="M614.628,791L627.54,782.667C640.451,774.333,666.275,757.667,679.186,728.5C692.098,699.333,692.098,657.667,692.098,616C692.098,574.333,692.098,532.667,686.937,503.5C681.777,474.333,671.456,457.667,666.296,449.333L661.136,441" class="er relationshipLine"></path><path style="stroke: gray; fill: none;" marker-start="url(#ONLY_ONE_START)" marker-end="url(#ZERO_OR_ONE_END)" d="M456.3,791L448.756,782.667C441.211,774.333,426.123,757.667,413.784,741C401.445,724.333,391.856,707.667,387.061,699.333L382.267,691" class="er relationshipLine"></path><path style="stroke: gray; fill: none;" marker-start="url(#ONLY_ONE_START)" marker-end="url(#ZERO_OR_MORE_END)" d="M76.447,180.5L69.006,190.583C61.564,200.667,46.681,220.833,112.416,246.609C178.151,272.385,324.504,303.77,397.68,319.462L470.857,335.155" class="er relationshipLine"></path><path style="stroke: gray; fill: none;" marker-start="url(#ONLY_ONE_START)" marker-end="url(#ZERO_OR_MORE_END)" d="M131.798,180.5L131.798,190.583C131.798,200.667,131.798,220.833,131.798,251.75C131.798,282.667,131.798,324.333,131.798,366C131.798,407.667,131.798,449.333,131.798,491C131.798,532.667,131.798,574.333,131.798,616C131.798,657.667,131.798,699.333,175.783,733.32C219.769,767.307,307.739,793.613,351.725,806.766L395.71,819.92" class="er relationshipLine"></path><path style="stroke: gray; fill: none;" marker-start="url(#ONLY_ONE_START)" marker-end="url(#ZERO_OR_MORE_END)" d="M187.149,180.5L194.59,190.583C202.032,200.667,216.915,220.833,224.356,251.75C231.798,282.667,231.798,324.333,231.798,366C231.798,407.667,231.798,449.333,238.953,478.5C246.107,507.667,260.416,524.333,267.571,532.667L274.725,541" class="er relationshipLine"></path><path style="stroke: gray; fill: none;" marker-start="url(#ONLY_ONE_START)" marker-end="url(#ZERO_OR_MORE_END)" d="M1032.039,301.5L1038.283,291.417C1044.527,281.333,1057.015,261.167,1041.38,240.397C1025.745,219.627,981.988,198.253,960.11,187.567L938.231,176.88" class="er relationshipLine"></path><path style="stroke: gray; fill: none;" marker-start="url(#ONLY_ONE_START)" marker-end="url(#ZERO_OR_MORE_END)" d="M992.098,430.5L992.098,440.583C992.098,450.667,992.098,470.833,992.098,501.75C992.098,532.667,992.098,574.333,992.098,616C992.098,657.667,992.098,699.333,932.361,734.494C872.624,769.654,753.15,798.309,693.413,812.636L633.676,826.963" class="er relationshipLine"></path><g transform="translate(645.9640274047852,20 )" id="entity-alunos-a4b2b208-c1a5-512c-a828-bc37a403903c"><rect height="171" width="292.2673034667969" y="0" x="0" class="er entityBox"></rect><text style="dominant-baseline: middle; text-anchor: middle; font-size: 12px;" transform="translate(146.13365173339844,12)" y="0" x="0" id="text-entity-alunos-a4b2b208-c1a5-512c-a828-bc37a403903c" class="er entityLabel">alunos</text><rect height="21" width="66.67355346679688" y="24" x="0" class="er attributeBoxOdd"></rect><text style="dominant-baseline: middle; font-size: 10.2px;" transform="translate(5,34.5)" y="0" x="0" id="text-entity-alunos-a4b2b208-c1a5-512c-a828-bc37a403903c-attr-1-type" class="er entityLabel">inputText</text><rect height="21" width="104.015625" y="24" x="66.67355346679688" class="er attributeBoxOdd"></rect><text style="dominant-baseline: middle; font-size: 10.2px;" transform="translate(71.67355346679688,34.5)" y="0" x="0" id="text-entity-alunos-a4b2b208-c1a5-512c-a828-bc37a403903c-attr-1-name" class="er entityLabel">matricula</text><rect height="21" width="121.578125" y="24" x="170.68917846679688" class="er attributeBoxOdd"></rect><text style="dominant-baseline: middle; font-size: 10.2px;" transform="translate(175.68917846679688,34.5)" y="0" x="0" id="text-entity-alunos-a4b2b208-c1a5-512c-a828-bc37a403903c-attr-1-comment" class="er entityLabel">Matrícula</text><rect height="21" width="66.67355346679688" y="45" x="0" class="er attributeBoxEven"></rect><text style="dominant-baseline: middle; font-size: 10.2px;" transform="translate(5,55.5)" y="0" x="0" id="text-entity-alunos-a4b2b208-c1a5-512c-a828-bc37a403903c-attr-2-type" class="er entityLabel">inputText</text><rect height="21" width="104.015625" y="45" x="66.67355346679688" class="er attributeBoxEven"></rect><text style="dominant-baseline: middle; font-size: 10.2px;" transform="translate(71.67355346679688,55.5)" y="0" x="0" id="text-entity-alunos-a4b2b208-c1a5-512c-a828-bc37a403903c-attr-2-name" class="er entityLabel">nome</text><rect height="21" width="121.578125" y="45" x="170.68917846679688" class="er attributeBoxEven"></rect><text style="dominant-baseline: middle; font-size: 10.2px;" transform="translate(175.68917846679688,55.5)" y="0" x="0" id="text-entity-alunos-a4b2b208-c1a5-512c-a828-bc37a403903c-attr-2-comment" class="er entityLabel">Nome do Aluno</text><rect height="21" width="66.67355346679688" y="66" x="0" class="er attributeBoxOdd"></rect><text style="dominant-baseline: middle; font-size: 10.2px;" transform="translate(5,76.5)" y="0" x="0" id="text-entity-alunos-a4b2b208-c1a5-512c-a828-bc37a403903c-attr-3-type" class="er entityLabel">EnlCalendar</text><rect height="21" width="104.015625" y="66" x="66.67355346679688" class="er attributeBoxOdd"></rect><text style="dominant-baseline: middle; font-size: 10.2px;" transform="translate(71.67355346679688,76.5)" y="0" x="0" id="text-entity-alunos-a4b2b208-c1a5-512c-a828-bc37a403903c-attr-3-name" class="er entityLabel">data_nascimento</text><rect height="21" width="121.578125" y="66" x="170.68917846679688" class="er attributeBoxOdd"></rect><text style="dominant-baseline: middle; font-size: 10.2px;" transform="translate(175.68917846679688,76.5)" y="0" x="0" id="text-entity-alunos-a4b2b208-c1a5-512c-a828-bc37a403903c-attr-3-comment" class="er entityLabel">Data de Nascimento</text><rect height="21" width="66.67355346679688" y="87" x="0" class="er attributeBoxEven"></rect><text style="dominant-baseline: middle; font-size: 10.2px;" transform="translate(5,97.5)" y="0" x="0" id="text-entity-alunos-a4b2b208-c1a5-512c-a828-bc37a403903c-attr-4-type" class="er entityLabel">inputText</text><rect height="21" width="104.015625" y="87" x="66.67355346679688" class="er attributeBoxEven"></rect><text style="dominant-baseline: middle; font-size: 10.2px;" transform="translate(71.67355346679688,97.5)" y="0" x="0" id="text-entity-alunos-a4b2b208-c1a5-512c-a828-bc37a403903c-attr-4-name" class="er entityLabel">endereco</text><rect height="21" width="121.578125" y="87" x="170.68917846679688" class="er attributeBoxEven"></rect><text style="dominant-baseline: middle; font-size: 10.2px;" transform="translate(175.68917846679688,97.5)" y="0" x="0" id="text-entity-alunos-a4b2b208-c1a5-512c-a828-bc37a403903c-attr-4-comment" class="er entityLabel">Endereço</text><rect height="21" width="66.67355346679688" y="108" x="0" class="er attributeBoxOdd"></rect><text style="dominant-baseline: middle; font-size: 10.2px;" transform="translate(5,118.5)" y="0" x="0" id="text-entity-alunos-a4b2b208-c1a5-512c-a828-bc37a403903c-attr-5-type" class="er entityLabel">EnRel</text><rect height="21" width="104.015625" y="108" x="66.67355346679688" class="er attributeBoxOdd"></rect><text style="dominant-baseline: middle; font-size: 10.2px;" transform="translate(71.67355346679688,118.5)" y="0" x="0" id="text-entity-alunos-a4b2b208-c1a5-512c-a828-bc37a403903c-attr-5-name" class="er entityLabel">turma</text><rect height="21" width="121.578125" y="108" x="170.68917846679688" class="er attributeBoxOdd"></rect><text style="dominant-baseline: middle; font-size: 10.2px;" transform="translate(175.68917846679688,118.5)" y="0" x="0" id="text-entity-alunos-a4b2b208-c1a5-512c-a828-bc37a403903c-attr-5-comment" class="er entityLabel">Turma</text><rect height="21" width="66.67355346679688" y="129" x="0" class="er attributeBoxEven"></rect><text style="dominant-baseline: middle; font-size: 10.2px;" transform="translate(5,139.5)" y="0" x="0" id="text-entity-alunos-a4b2b208-c1a5-512c-a828-bc37a403903c-attr-6-type" class="er entityLabel">EnRelMulti</text><rect height="21" width="104.015625" y="129" x="66.67355346679688" class="er attributeBoxEven"></rect><text style="dominant-baseline: middle; font-size: 10.2px;" transform="translate(71.67355346679688,139.5)" y="0" x="0" id="text-entity-alunos-a4b2b208-c1a5-512c-a828-bc37a403903c-attr-6-name" class="er entityLabel">notas</text><rect height="21" width="121.578125" y="129" x="170.68917846679688" class="er attributeBoxEven"></rect><text style="dominant-baseline: middle; font-size: 10.2px;" transform="translate(175.68917846679688,139.5)" y="0" x="0" id="text-entity-alunos-a4b2b208-c1a5-512c-a828-bc37a403903c-attr-6-comment" class="er entityLabel">Notas</text><rect height="21" width="66.67355346679688" y="150" x="0" class="er attributeBoxOdd"></rect><text style="dominant-baseline: middle; font-size: 10.2px;" transform="translate(5,160.5)" y="0" x="0" id="text-entity-alunos-a4b2b208-c1a5-512c-a828-bc37a403903c-attr-7-type" class="er entityLabel">inputText</text><rect height="21" width="104.015625" y="150" x="66.67355346679688" class="er attributeBoxOdd"></rect><text style="dominant-baseline: middle; font-size: 10.2px;" transform="translate(71.67355346679688,160.5)" y="0" x="0" id="text-entity-alunos-a4b2b208-c1a5-512c-a828-bc37a403903c-attr-7-name" class="er entityLabel">contato_responsavel</text><rect height="21" width="121.578125" y="150" x="170.68917846679688" class="er attributeBoxOdd"></rect><text style="dominant-baseline: middle; font-size: 10.2px;" transform="translate(175.68917846679688,160.5)" y="0" x="0" id="text-entity-alunos-a4b2b208-c1a5-512c-a828-bc37a403903c-attr-7-comment" class="er entityLabel">Contato do Responsável</text></g><g transform="translate(231.79802703857422,541 )" id="entity-professores-510fa989-2152-559c-b25c-ee23d05f78a9"><rect height="150" width="214.63583374023438" y="0" x="0" class="er entityBox"></rect><text style="dominant-baseline: middle; text-anchor: middle; font-size: 12px;" transform="translate(107.31791687011719,12)" y="0" x="0" id="text-entity-professores-510fa989-2152-559c-b25c-ee23d05f78a9" class="er entityLabel">professores</text><rect height="21" width="59.265625" y="24" x="0" class="er attributeBoxOdd"></rect><text style="dominant-baseline: middle; font-size: 10.2px;" transform="translate(5,34.5)" y="0" x="0" id="text-entity-professores-510fa989-2152-559c-b25c-ee23d05f78a9-attr-1-type" class="er entityLabel">inputText</text><rect height="21" width="57" y="24" x="59.265625" class="er attributeBoxOdd"></rect><text style="dominant-baseline: middle; font-size: 10.2px;" transform="translate(64.265625,34.5)" y="0" x="0" id="text-entity-professores-510fa989-2152-559c-b25c-ee23d05f78a9-attr-1-name" class="er entityLabel">nome</text><rect height="21" width="98.37020874023438" y="24" x="116.265625" class="er attributeBoxOdd"></rect><text style="dominant-baseline: middle; font-size: 10.2px;" transform="translate(121.265625,34.5)" y="0" x="0" id="text-entity-professores-510fa989-2152-559c-b25c-ee23d05f78a9-attr-1-comment" class="er entityLabel">Nome do Professor</text><rect height="21" width="59.265625" y="45" x="0" class="er attributeBoxEven"></rect><text style="dominant-baseline: middle; font-size: 10.2px;" transform="translate(5,55.5)" y="0" x="0" id="text-entity-professores-510fa989-2152-559c-b25c-ee23d05f78a9-attr-2-type" class="er entityLabel">inputText</text><rect height="21" width="57" y="45" x="59.265625" class="er attributeBoxEven"></rect><text style="dominant-baseline: middle; font-size: 10.2px;" transform="translate(64.265625,55.5)" y="0" x="0" id="text-entity-professores-510fa989-2152-559c-b25c-ee23d05f78a9-attr-2-name" class="er entityLabel">cpf</text><rect height="21" width="98.37020874023438" y="45" x="116.265625" class="er attributeBoxEven"></rect><text style="dominant-baseline: middle; font-size: 10.2px;" transform="translate(121.265625,55.5)" y="0" x="0" id="text-entity-professores-510fa989-2152-559c-b25c-ee23d05f78a9-attr-2-comment" class="er entityLabel">CPF</text><rect height="21" width="59.265625" y="66" x="0" class="er attributeBoxOdd"></rect><text style="dominant-baseline: middle; font-size: 10.2px;" transform="translate(5,76.5)" y="0" x="0" id="text-entity-professores-510fa989-2152-559c-b25c-ee23d05f78a9-attr-3-type" class="er entityLabel">inputText</text><rect height="21" width="57" y="66" x="59.265625" class="er attributeBoxOdd"></rect><text style="dominant-baseline: middle; font-size: 10.2px;" transform="translate(64.265625,76.5)" y="0" x="0" id="text-entity-professores-510fa989-2152-559c-b25c-ee23d05f78a9-attr-3-name" class="er entityLabel">email</text><rect height="21" width="98.37020874023438" y="66" x="116.265625" class="er attributeBoxOdd"></rect><text style="dominant-baseline: middle; font-size: 10.2px;" transform="translate(121.265625,76.5)" y="0" x="0" id="text-entity-professores-510fa989-2152-559c-b25c-ee23d05f78a9-attr-3-comment" class="er entityLabel">E-mail</text><rect height="21" width="59.265625" y="87" x="0" class="er attributeBoxEven"></rect><text style="dominant-baseline: middle; font-size: 10.2px;" transform="translate(5,97.5)" y="0" x="0" id="text-entity-professores-510fa989-2152-559c-b25c-ee23d05f78a9-attr-4-type" class="er entityLabel">inputText</text><rect height="21" width="57" y="87" x="59.265625" class="er attributeBoxEven"></rect><text style="dominant-baseline: middle; font-size: 10.2px;" transform="translate(64.265625,97.5)" y="0" x="0" id="text-entity-professores-510fa989-2152-559c-b25c-ee23d05f78a9-attr-4-name" class="er entityLabel">telefone</text><rect height="21" width="98.37020874023438" y="87" x="116.265625" class="er attributeBoxEven"></rect><text style="dominant-baseline: middle; font-size: 10.2px;" transform="translate(121.265625,97.5)" y="0" x="0" id="text-entity-professores-510fa989-2152-559c-b25c-ee23d05f78a9-attr-4-comment" class="er entityLabel">Telefone</text><rect height="21" width="59.265625" y="108" x="0" class="er attributeBoxOdd"></rect><text style="dominant-baseline: middle; font-size: 10.2px;" transform="translate(5,118.5)" y="0" x="0" id="text-entity-professores-510fa989-2152-559c-b25c-ee23d05f78a9-attr-5-type" class="er entityLabel">EnRelMulti</text><rect height="21" width="57" y="108" x="59.265625" class="er attributeBoxOdd"></rect><text style="dominant-baseline: middle; font-size: 10.2px;" transform="translate(64.265625,118.5)" y="0" x="0" id="text-entity-professores-510fa989-2152-559c-b25c-ee23d05f78a9-attr-5-name" class="er entityLabel">disciplinas</text><rect height="21" width="98.37020874023438" y="108" x="116.265625" class="er attributeBoxOdd"></rect><text style="dominant-baseline: middle; font-size: 10.2px;" transform="translate(121.265625,118.5)" y="0" x="0" id="text-entity-professores-510fa989-2152-559c-b25c-ee23d05f78a9-attr-5-comment" class="er entityLabel">Disciplinas</text><rect height="21" width="59.265625" y="129" x="0" class="er attributeBoxEven"></rect><text style="dominant-baseline: middle; font-size: 10.2px;" transform="translate(5,139.5)" y="0" x="0" id="text-entity-professores-510fa989-2152-559c-b25c-ee23d05f78a9-attr-6-type" class="er entityLabel">EnRelMulti</text><rect height="21" width="57" y="129" x="59.265625" class="er attributeBoxEven"></rect><text style="dominant-baseline: middle; font-size: 10.2px;" transform="translate(64.265625,139.5)" y="0" x="0" id="text-entity-professores-510fa989-2152-559c-b25c-ee23d05f78a9-attr-6-name" class="er entityLabel">turmas</text><rect height="21" width="98.37020874023438" y="129" x="116.265625" class="er attributeBoxEven"></rect><text style="dominant-baseline: middle; font-size: 10.2px;" transform="translate(121.265625,139.5)" y="0" x="0" id="text-entity-professores-510fa989-2152-559c-b25c-ee23d05f78a9-attr-6-comment" class="er entityLabel">Turmas</text></g><g transform="translate(470.85693359375,291 )" id="entity-turmas-65068dcc-0365-5281-8a9f-cb4464406e49"><rect height="150" width="287.671875" y="0" x="0" class="er entityBox"></rect><text style="dominant-baseline: middle; text-anchor: middle; font-size: 12px;" transform="translate(143.8359375,12)" y="0" x="0" id="text-entity-turmas-65068dcc-0365-5281-8a9f-cb4464406e49" class="er entityLabel">turmas</text><rect height="21" width="59.265625" y="24" x="0" class="er attributeBoxOdd"></rect><text style="dominant-baseline: middle; font-size: 10.2px;" transform="translate(5,34.5)" y="0" x="0" id="text-entity-turmas-65068dcc-0365-5281-8a9f-cb4464406e49-attr-1-type" class="er entityLabel">inputText</text><rect height="21" width="113.078125" y="24" x="59.265625" class="er attributeBoxOdd"></rect><text style="dominant-baseline: middle; font-size: 10.2px;" transform="translate(64.265625,34.5)" y="0" x="0" id="text-entity-turmas-65068dcc-0365-5281-8a9f-cb4464406e49-attr-1-name" class="er entityLabel">codigo</text><rect height="21" width="115.328125" y="24" x="172.34375" class="er attributeBoxOdd"></rect><text style="dominant-baseline: middle; font-size: 10.2px;" transform="translate(177.34375,34.5)" y="0" x="0" id="text-entity-turmas-65068dcc-0365-5281-8a9f-cb4464406e49-attr-1-comment" class="er entityLabel">Código da Turma</text><rect height="21" width="59.265625" y="45" x="0" class="er attributeBoxEven"></rect><text style="dominant-baseline: middle; font-size: 10.2px;" transform="translate(5,55.5)" y="0" x="0" id="text-entity-turmas-65068dcc-0365-5281-8a9f-cb4464406e49-attr-2-type" class="er entityLabel">inputText</text><rect height="21" width="113.078125" y="45" x="59.265625" class="er attributeBoxEven"></rect><text style="dominant-baseline: middle; font-size: 10.2px;" transform="translate(64.265625,55.5)" y="0" x="0" id="text-entity-turmas-65068dcc-0365-5281-8a9f-cb4464406e49-attr-2-name" class="er entityLabel">nome</text><rect height="21" width="115.328125" y="45" x="172.34375" class="er attributeBoxEven"></rect><text style="dominant-baseline: middle; font-size: 10.2px;" transform="translate(177.34375,55.5)" y="0" x="0" id="text-entity-turmas-65068dcc-0365-5281-8a9f-cb4464406e49-attr-2-comment" class="er entityLabel">Nome da Turma</text><rect height="21" width="59.265625" y="66" x="0" class="er attributeBoxOdd"></rect><text style="dominant-baseline: middle; font-size: 10.2px;" transform="translate(5,76.5)" y="0" x="0" id="text-entity-turmas-65068dcc-0365-5281-8a9f-cb4464406e49-attr-3-type" class="er entityLabel">inputText</text><rect height="21" width="113.078125" y="66" x="59.265625" class="er attributeBoxOdd"></rect><text style="dominant-baseline: middle; font-size: 10.2px;" transform="translate(64.265625,76.5)" y="0" x="0" id="text-entity-turmas-65068dcc-0365-5281-8a9f-cb4464406e49-attr-3-name" class="er entityLabel">ano_letivo</text><rect height="21" width="115.328125" y="66" x="172.34375" class="er attributeBoxOdd"></rect><text style="dominant-baseline: middle; font-size: 10.2px;" transform="translate(177.34375,76.5)" y="0" x="0" id="text-entity-turmas-65068dcc-0365-5281-8a9f-cb4464406e49-attr-3-comment" class="er entityLabel">Ano Letivo</text><rect height="21" width="59.265625" y="87" x="0" class="er attributeBoxEven"></rect><text style="dominant-baseline: middle; font-size: 10.2px;" transform="translate(5,97.5)" y="0" x="0" id="text-entity-turmas-65068dcc-0365-5281-8a9f-cb4464406e49-attr-4-type" class="er entityLabel">EnRel</text><rect height="21" width="113.078125" y="87" x="59.265625" class="er attributeBoxEven"></rect><text style="dominant-baseline: middle; font-size: 10.2px;" transform="translate(64.265625,97.5)" y="0" x="0" id="text-entity-turmas-65068dcc-0365-5281-8a9f-cb4464406e49-attr-4-name" class="er entityLabel">professor_responsavel</text><rect height="21" width="115.328125" y="87" x="172.34375" class="er attributeBoxEven"></rect><text style="dominant-baseline: middle; font-size: 10.2px;" transform="translate(177.34375,97.5)" y="0" x="0" id="text-entity-turmas-65068dcc-0365-5281-8a9f-cb4464406e49-attr-4-comment" class="er entityLabel">Professor Responsável</text><rect height="21" width="59.265625" y="108" x="0" class="er attributeBoxOdd"></rect><text style="dominant-baseline: middle; font-size: 10.2px;" transform="translate(5,118.5)" y="0" x="0" id="text-entity-turmas-65068dcc-0365-5281-8a9f-cb4464406e49-attr-5-type" class="er entityLabel">EnRelMulti</text><rect height="21" width="113.078125" y="108" x="59.265625" class="er attributeBoxOdd"></rect><text style="dominant-baseline: middle; font-size: 10.2px;" transform="translate(64.265625,118.5)" y="0" x="0" id="text-entity-turmas-65068dcc-0365-5281-8a9f-cb4464406e49-attr-5-name" class="er entityLabel">alunos</text><rect height="21" width="115.328125" y="108" x="172.34375" class="er attributeBoxOdd"></rect><text style="dominant-baseline: middle; font-size: 10.2px;" transform="translate(177.34375,118.5)" y="0" x="0" id="text-entity-turmas-65068dcc-0365-5281-8a9f-cb4464406e49-attr-5-comment" class="er entityLabel">Alunos</text><rect height="21" width="59.265625" y="129" x="0" class="er attributeBoxEven"></rect><text style="dominant-baseline: middle; font-size: 10.2px;" transform="translate(5,139.5)" y="0" x="0" id="text-entity-turmas-65068dcc-0365-5281-8a9f-cb4464406e49-attr-6-type" class="er entityLabel">EnRelMulti</text><rect height="21" width="113.078125" y="129" x="59.265625" class="er attributeBoxEven"></rect><text style="dominant-baseline: middle; font-size: 10.2px;" transform="translate(64.265625,139.5)" y="0" x="0" id="text-entity-turmas-65068dcc-0365-5281-8a9f-cb4464406e49-attr-6-name" class="er entityLabel">disciplinas</text><rect height="21" width="115.328125" y="129" x="172.34375" class="er attributeBoxEven"></rect><text style="dominant-baseline: middle; font-size: 10.2px;" transform="translate(177.34375,139.5)" y="0" x="0" id="text-entity-turmas-65068dcc-0365-5281-8a9f-cb4464406e49-attr-6-comment" class="er entityLabel">Disciplinas</text></g><g transform="translate(395.7100067138672,791 )" id="entity-disciplinas-7adc3b05-894a-5742-abc2-4699a1c04b44"><rect height="129" width="237.96572875976562" y="0" x="0" class="er entityBox"></rect><text style="dominant-baseline: middle; text-anchor: middle; font-size: 12px;" transform="translate(118.98286437988281,12)" y="0" x="0" id="text-entity-disciplinas-7adc3b05-894a-5742-abc2-4699a1c04b44" class="er entityLabel">disciplinas</text><rect height="21" width="61.56488037109375" y="24" x="0" class="er attributeBoxOdd"></rect><text style="dominant-baseline: middle; font-size: 10.2px;" transform="translate(5,34.5)" y="0" x="0" id="text-entity-disciplinas-7adc3b05-894a-5742-abc2-4699a1c04b44-attr-1-type" class="er entityLabel">inputText</text><rect height="21" width="73.19525146484375" y="24" x="61.56488037109375" class="er attributeBoxOdd"></rect><text style="dominant-baseline: middle; font-size: 10.2px;" transform="translate(66.56488037109375,34.5)" y="0" x="0" id="text-entity-disciplinas-7adc3b05-894a-5742-abc2-4699a1c04b44-attr-1-name" class="er entityLabel">codigo</text><rect height="21" width="103.20559692382812" y="24" x="134.7601318359375" class="er attributeBoxOdd"></rect><text style="dominant-baseline: middle; font-size: 10.2px;" transform="translate(139.7601318359375,34.5)" y="0" x="0" id="text-entity-disciplinas-7adc3b05-894a-5742-abc2-4699a1c04b44-attr-1-comment" class="er entityLabel">Código da Disciplina</text><rect height="21" width="61.56488037109375" y="45" x="0" class="er attributeBoxEven"></rect><text style="dominant-baseline: middle; font-size: 10.2px;" transform="translate(5,55.5)" y="0" x="0" id="text-entity-disciplinas-7adc3b05-894a-5742-abc2-4699a1c04b44-attr-2-type" class="er entityLabel">inputText</text><rect height="21" width="73.19525146484375" y="45" x="61.56488037109375" class="er attributeBoxEven"></rect><text style="dominant-baseline: middle; font-size: 10.2px;" transform="translate(66.56488037109375,55.5)" y="0" x="0" id="text-entity-disciplinas-7adc3b05-894a-5742-abc2-4699a1c04b44-attr-2-name" class="er entityLabel">nome</text><rect height="21" width="103.20559692382812" y="45" x="134.7601318359375" class="er attributeBoxEven"></rect><text style="dominant-baseline: middle; font-size: 10.2px;" transform="translate(139.7601318359375,55.5)" y="0" x="0" id="text-entity-disciplinas-7adc3b05-894a-5742-abc2-4699a1c04b44-attr-2-comment" class="er entityLabel">Nome da Disciplina</text><rect height="21" width="61.56488037109375" y="66" x="0" class="er attributeBoxOdd"></rect><text style="dominant-baseline: middle; font-size: 10.2px;" transform="translate(5,76.5)" y="0" x="0" id="text-entity-disciplinas-7adc3b05-894a-5742-abc2-4699a1c04b44-attr-3-type" class="er entityLabel">EnlNumber</text><rect height="21" width="73.19525146484375" y="66" x="61.56488037109375" class="er attributeBoxOdd"></rect><text style="dominant-baseline: middle; font-size: 10.2px;" transform="translate(66.56488037109375,76.5)" y="0" x="0" id="text-entity-disciplinas-7adc3b05-894a-5742-abc2-4699a1c04b44-attr-3-name" class="er entityLabel">carga_horaria</text><rect height="21" width="103.20559692382812" y="66" x="134.7601318359375" class="er attributeBoxOdd"></rect><text style="dominant-baseline: middle; font-size: 10.2px;" transform="translate(139.7601318359375,76.5)" y="0" x="0" id="text-entity-disciplinas-7adc3b05-894a-5742-abc2-4699a1c04b44-attr-3-comment" class="er entityLabel">Carga Horária</text><rect height="21" width="61.56488037109375" y="87" x="0" class="er attributeBoxEven"></rect><text style="dominant-baseline: middle; font-size: 10.2px;" transform="translate(5,97.5)" y="0" x="0" id="text-entity-disciplinas-7adc3b05-894a-5742-abc2-4699a1c04b44-attr-4-type" class="er entityLabel">EnRelMulti</text><rect height="21" width="73.19525146484375" y="87" x="61.56488037109375" class="er attributeBoxEven"></rect><text style="dominant-baseline: middle; font-size: 10.2px;" transform="translate(66.56488037109375,97.5)" y="0" x="0" id="text-entity-disciplinas-7adc3b05-894a-5742-abc2-4699a1c04b44-attr-4-name" class="er entityLabel">turmas</text><rect height="21" width="103.20559692382812" y="87" x="134.7601318359375" class="er attributeBoxEven"></rect><text style="dominant-baseline: middle; font-size: 10.2px;" transform="translate(139.7601318359375,97.5)" y="0" x="0" id="text-entity-disciplinas-7adc3b05-894a-5742-abc2-4699a1c04b44-attr-4-comment" class="er entityLabel">Turmas</text><rect height="21" width="61.56488037109375" y="108" x="0" class="er attributeBoxOdd"></rect><text style="dominant-baseline: middle; font-size: 10.2px;" transform="translate(5,118.5)" y="0" x="0" id="text-entity-disciplinas-7adc3b05-894a-5742-abc2-4699a1c04b44-attr-5-type" class="er entityLabel">EnRelMulti</text><rect height="21" width="73.19525146484375" y="108" x="61.56488037109375" class="er attributeBoxOdd"></rect><text style="dominant-baseline: middle; font-size: 10.2px;" transform="translate(66.56488037109375,118.5)" y="0" x="0" id="text-entity-disciplinas-7adc3b05-894a-5742-abc2-4699a1c04b44-attr-5-name" class="er entityLabel">professores</text><rect height="21" width="103.20559692382812" y="108" x="134.7601318359375" class="er attributeBoxOdd"></rect><text style="dominant-baseline: middle; font-size: 10.2px;" transform="translate(139.7601318359375,118.5)" y="0" x="0" id="text-entity-disciplinas-7adc3b05-894a-5742-abc2-4699a1c04b44-attr-5-comment" class="er entityLabel">Professores</text></g><g transform="translate(20,30.5 )" id="entity-horarios-10179ca9-4b79-5708-b2a3-ea7ba8a4d6ad"><rect height="150" width="223.59605407714844" y="0" x="0" class="er entityBox"></rect><text style="dominant-baseline: middle; text-anchor: middle; font-size: 12px;" transform="translate(111.79802703857422,12)" y="0" x="0" id="text-entity-horarios-10179ca9-4b79-5708-b2a3-ea7ba8a4d6ad" class="er entityLabel">horarios</text><rect height="21" width="71.171875" y="24" x="0" class="er attributeBoxOdd"></rect><text style="dominant-baseline: middle; font-size: 10.2px;" transform="translate(5,34.5)" y="0" x="0" id="text-entity-horarios-10179ca9-4b79-5708-b2a3-ea7ba8a4d6ad-attr-1-type" class="er entityLabel">EnRel</text><rect height="21" width="65.83816528320312" y="24" x="71.171875" class="er attributeBoxOdd"></rect><text style="dominant-baseline: middle; font-size: 10.2px;" transform="translate(76.171875,34.5)" y="0" x="0" id="text-entity-horarios-10179ca9-4b79-5708-b2a3-ea7ba8a4d6ad-attr-1-name" class="er entityLabel">turma</text><rect height="21" width="86.58601379394531" y="24" x="137.01004028320312" class="er attributeBoxOdd"></rect><text style="dominant-baseline: middle; font-size: 10.2px;" transform="translate(142.01004028320312,34.5)" y="0" x="0" id="text-entity-horarios-10179ca9-4b79-5708-b2a3-ea7ba8a4d6ad-attr-1-comment" class="er entityLabel">Turma</text><rect height="21" width="71.171875" y="45" x="0" class="er attributeBoxEven"></rect><text style="dominant-baseline: middle; font-size: 10.2px;" transform="translate(5,55.5)" y="0" x="0" id="text-entity-horarios-10179ca9-4b79-5708-b2a3-ea7ba8a4d6ad-attr-2-type" class="er entityLabel">EnRel</text><rect height="21" width="65.83816528320312" y="45" x="71.171875" class="er attributeBoxEven"></rect><text style="dominant-baseline: middle; font-size: 10.2px;" transform="translate(76.171875,55.5)" y="0" x="0" id="text-entity-horarios-10179ca9-4b79-5708-b2a3-ea7ba8a4d6ad-attr-2-name" class="er entityLabel">disciplina</text><rect height="21" width="86.58601379394531" y="45" x="137.01004028320312" class="er attributeBoxEven"></rect><text style="dominant-baseline: middle; font-size: 10.2px;" transform="translate(142.01004028320312,55.5)" y="0" x="0" id="text-entity-horarios-10179ca9-4b79-5708-b2a3-ea7ba8a4d6ad-attr-2-comment" class="er entityLabel">Disciplina</text><rect height="21" width="71.171875" y="66" x="0" class="er attributeBoxOdd"></rect><text style="dominant-baseline: middle; font-size: 10.2px;" transform="translate(5,76.5)" y="0" x="0" id="text-entity-horarios-10179ca9-4b79-5708-b2a3-ea7ba8a4d6ad-attr-3-type" class="er entityLabel">EnRel</text><rect height="21" width="65.83816528320312" y="66" x="71.171875" class="er attributeBoxOdd"></rect><text style="dominant-baseline: middle; font-size: 10.2px;" transform="translate(76.171875,76.5)" y="0" x="0" id="text-entity-horarios-10179ca9-4b79-5708-b2a3-ea7ba8a4d6ad-attr-3-name" class="er entityLabel">professor</text><rect height="21" width="86.58601379394531" y="66" x="137.01004028320312" class="er attributeBoxOdd"></rect><text style="dominant-baseline: middle; font-size: 10.2px;" transform="translate(142.01004028320312,76.5)" y="0" x="0" id="text-entity-horarios-10179ca9-4b79-5708-b2a3-ea7ba8a4d6ad-attr-3-comment" class="er entityLabel">Professor</text><rect height="21" width="71.171875" y="87" x="0" class="er attributeBoxEven"></rect><text style="dominant-baseline: middle; font-size: 10.2px;" transform="translate(5,97.5)" y="0" x="0" id="text-entity-horarios-10179ca9-4b79-5708-b2a3-ea7ba8a4d6ad-attr-4-type" class="er entityLabel">EnlDropdown</text><rect height="21" width="65.83816528320312" y="87" x="71.171875" class="er attributeBoxEven"></rect><text style="dominant-baseline: middle; font-size: 10.2px;" transform="translate(76.171875,97.5)" y="0" x="0" id="text-entity-horarios-10179ca9-4b79-5708-b2a3-ea7ba8a4d6ad-attr-4-name" class="er entityLabel">dia_semana</text><rect height="21" width="86.58601379394531" y="87" x="137.01004028320312" class="er attributeBoxEven"></rect><text style="dominant-baseline: middle; font-size: 10.2px;" transform="translate(142.01004028320312,97.5)" y="0" x="0" id="text-entity-horarios-10179ca9-4b79-5708-b2a3-ea7ba8a4d6ad-attr-4-comment" class="er entityLabel">Dia da Semana</text><rect height="21" width="71.171875" y="108" x="0" class="er attributeBoxOdd"></rect><text style="dominant-baseline: middle; font-size: 10.2px;" transform="translate(5,118.5)" y="0" x="0" id="text-entity-horarios-10179ca9-4b79-5708-b2a3-ea7ba8a4d6ad-attr-5-type" class="er entityLabel">inputText</text><rect height="21" width="65.83816528320312" y="108" x="71.171875" class="er attributeBoxOdd"></rect><text style="dominant-baseline: middle; font-size: 10.2px;" transform="translate(76.171875,118.5)" y="0" x="0" id="text-entity-horarios-10179ca9-4b79-5708-b2a3-ea7ba8a4d6ad-attr-5-name" class="er entityLabel">hora_inicio</text><rect height="21" width="86.58601379394531" y="108" x="137.01004028320312" class="er attributeBoxOdd"></rect><text style="dominant-baseline: middle; font-size: 10.2px;" transform="translate(142.01004028320312,118.5)" y="0" x="0" id="text-entity-horarios-10179ca9-4b79-5708-b2a3-ea7ba8a4d6ad-attr-5-comment" class="er entityLabel">Hora de Início</text><rect height="21" width="71.171875" y="129" x="0" class="er attributeBoxEven"></rect><text style="dominant-baseline: middle; font-size: 10.2px;" transform="translate(5,139.5)" y="0" x="0" id="text-entity-horarios-10179ca9-4b79-5708-b2a3-ea7ba8a4d6ad-attr-6-type" class="er entityLabel">inputText</text><rect height="21" width="65.83816528320312" y="129" x="71.171875" class="er attributeBoxEven"></rect><text style="dominant-baseline: middle; font-size: 10.2px;" transform="translate(76.171875,139.5)" y="0" x="0" id="text-entity-horarios-10179ca9-4b79-5708-b2a3-ea7ba8a4d6ad-attr-6-name" class="er entityLabel">hora_fim</text><rect height="21" width="86.58601379394531" y="129" x="137.01004028320312" class="er attributeBoxEven"></rect><text style="dominant-baseline: middle; font-size: 10.2px;" transform="translate(142.01004028320312,139.5)" y="0" x="0" id="text-entity-horarios-10179ca9-4b79-5708-b2a3-ea7ba8a4d6ad-attr-6-comment" class="er entityLabel">Hora de Término</text></g><g transform="translate(881.1240005493164,301.5 )" id="entity-notas-647b19ae-da5e-5986-9518-419c550c8021"><rect height="129" width="221.94735717773438" y="0" x="0" class="er entityBox"></rect><text style="dominant-baseline: middle; text-anchor: middle; font-size: 12px;" transform="translate(110.97367858886719,12)" y="0" x="0" id="text-entity-notas-647b19ae-da5e-5986-9518-419c550c8021" class="er entityLabel">notas</text><rect height="21" width="66.67355346679688" y="24" x="0" class="er attributeBoxOdd"></rect><text style="dominant-baseline: middle; font-size: 10.2px;" transform="translate(5,34.5)" y="0" x="0" id="text-entity-notas-647b19ae-da5e-5986-9518-419c550c8021-attr-1-type" class="er entityLabel">EnRel</text><rect height="21" width="63.002777099609375" y="24" x="66.67355346679688" class="er attributeBoxOdd"></rect><text style="dominant-baseline: middle; font-size: 10.2px;" transform="translate(71.67355346679688,34.5)" y="0" x="0" id="text-entity-notas-647b19ae-da5e-5986-9518-419c550c8021-attr-1-name" class="er entityLabel">aluno</text><rect height="21" width="92.27102661132812" y="24" x="129.67633056640625" class="er attributeBoxOdd"></rect><text style="dominant-baseline: middle; font-size: 10.2px;" transform="translate(134.67633056640625,34.5)" y="0" x="0" id="text-entity-notas-647b19ae-da5e-5986-9518-419c550c8021-attr-1-comment" class="er entityLabel">Aluno</text><rect height="21" width="66.67355346679688" y="45" x="0" class="er attributeBoxEven"></rect><text style="dominant-baseline: middle; font-size: 10.2px;" transform="translate(5,55.5)" y="0" x="0" id="text-entity-notas-647b19ae-da5e-5986-9518-419c550c8021-attr-2-type" class="er entityLabel">EnRel</text><rect height="21" width="63.002777099609375" y="45" x="66.67355346679688" class="er attributeBoxEven"></rect><text style="dominant-baseline: middle; font-size: 10.2px;" transform="translate(71.67355346679688,55.5)" y="0" x="0" id="text-entity-notas-647b19ae-da5e-5986-9518-419c550c8021-attr-2-name" class="er entityLabel">disciplina</text><rect height="21" width="92.27102661132812" y="45" x="129.67633056640625" class="er attributeBoxEven"></rect><text style="dominant-baseline: middle; font-size: 10.2px;" transform="translate(134.67633056640625,55.5)" y="0" x="0" id="text-entity-notas-647b19ae-da5e-5986-9518-419c550c8021-attr-2-comment" class="er entityLabel">Disciplina</text><rect height="21" width="66.67355346679688" y="66" x="0" class="er attributeBoxOdd"></rect><text style="dominant-baseline: middle; font-size: 10.2px;" transform="translate(5,76.5)" y="0" x="0" id="text-entity-notas-647b19ae-da5e-5986-9518-419c550c8021-attr-3-type" class="er entityLabel">EnlNumber</text><rect height="21" width="63.002777099609375" y="66" x="66.67355346679688" class="er attributeBoxOdd"></rect><text style="dominant-baseline: middle; font-size: 10.2px;" transform="translate(71.67355346679688,76.5)" y="0" x="0" id="text-entity-notas-647b19ae-da5e-5986-9518-419c550c8021-attr-3-name" class="er entityLabel">nota</text><rect height="21" width="92.27102661132812" y="66" x="129.67633056640625" class="er attributeBoxOdd"></rect><text style="dominant-baseline: middle; font-size: 10.2px;" transform="translate(134.67633056640625,76.5)" y="0" x="0" id="text-entity-notas-647b19ae-da5e-5986-9518-419c550c8021-attr-3-comment" class="er entityLabel">Nota</text><rect height="21" width="66.67355346679688" y="87" x="0" class="er attributeBoxEven"></rect><text style="dominant-baseline: middle; font-size: 10.2px;" transform="translate(5,97.5)" y="0" x="0" id="text-entity-notas-647b19ae-da5e-5986-9518-419c550c8021-attr-4-type" class="er entityLabel">EnlCalendar</text><rect height="21" width="63.002777099609375" y="87" x="66.67355346679688" class="er attributeBoxEven"></rect><text style="dominant-baseline: middle; font-size: 10.2px;" transform="translate(71.67355346679688,97.5)" y="0" x="0" id="text-entity-notas-647b19ae-da5e-5986-9518-419c550c8021-attr-4-name" class="er entityLabel">data</text><rect height="21" width="92.27102661132812" y="87" x="129.67633056640625" class="er attributeBoxEven"></rect><text style="dominant-baseline: middle; font-size: 10.2px;" transform="translate(134.67633056640625,97.5)" y="0" x="0" id="text-entity-notas-647b19ae-da5e-5986-9518-419c550c8021-attr-4-comment" class="er entityLabel">Data da Avaliação</text><rect height="21" width="66.67355346679688" y="108" x="0" class="er attributeBoxOdd"></rect><text style="dominant-baseline: middle; font-size: 10.2px;" transform="translate(5,118.5)" y="0" x="0" id="text-entity-notas-647b19ae-da5e-5986-9518-419c550c8021-attr-5-type" class="er entityLabel">inputText</text><rect height="21" width="63.002777099609375" y="108" x="66.67355346679688" class="er attributeBoxOdd"></rect><text style="dominant-baseline: middle; font-size: 10.2px;" transform="translate(71.67355346679688,118.5)" y="0" x="0" id="text-entity-notas-647b19ae-da5e-5986-9518-419c550c8021-attr-5-name" class="er entityLabel">observacao</text><rect height="21" width="92.27102661132812" y="108" x="129.67633056640625" class="er attributeBoxOdd"></rect><text style="dominant-baseline: middle; font-size: 10.2px;" transform="translate(134.67633056640625,118.5)" y="0" x="0" id="text-entity-notas-647b19ae-da5e-5986-9518-419c550c8021-attr-5-comment" class="er entityLabel">Observação</text></g><rect height="14" width="31" y="214.7908172607422" x="558.0579833984375" class="er relationshipLabelBox"></rect><text style="text-anchor: middle; dominant-baseline: middle; font-size: 12px;" y="221.7908172607422" x="573.5579833984375" id="rel15" class="er relationshipLabel">turma</text><rect height="14" width="29.359375" y="246.09515380859375" x="845.6769409179688" class="er relationshipLabelBox"></rect><text style="text-anchor: middle; dominant-baseline: middle; font-size: 12px;" y="253.09515380859375" x="860.3566284179688" id="rel16" class="er relationshipLabel">notas</text><rect height="14" width="55.359375" y="750.978515625" x="298.4808654785156" class="er relationshipLabelBox"></rect><text style="text-anchor: middle; dominant-baseline: middle; font-size: 12px;" y="757.978515625" x="326.1605529785156" id="rel17" class="er relationshipLabel">disciplinas</text><rect height="14" width="36.6875" y="528.1015014648438" x="607.5844116210938" class="er relationshipLabelBox"></rect><text style="text-anchor: middle; dominant-baseline: middle; font-size: 12px;" y="535.1015014648438" x="625.9281616210938" id="rel18" class="er relationshipLabel">turmas</text><rect height="14" width="121.40625" y="475.37109375" x="366.21875" class="er relationshipLabelBox"></rect><text style="text-anchor: middle; dominant-baseline: middle; font-size: 12px;" y="482.37109375" x="426.921875" id="rel19" class="er relationshipLabel">professor_responsavel</text><rect height="14" width="35.375" y="261.6424865722656" x="845.095703125" class="er relationshipLabelBox"></rect><text style="text-anchor: middle; dominant-baseline: middle; font-size: 12px;" y="268.6424865722656" x="862.783203125" id="rel20" class="er relationshipLabel">alunos</text><rect height="14" width="55.359375" y="609.2369384765625" x="537.01318359375" class="er relationshipLabelBox"></rect><text style="text-anchor: middle; dominant-baseline: middle; font-size: 12px;" y="616.2369384765625" x="564.69287109375" id="rel21" class="er relationshipLabel">disciplinas</text><rect height="14" width="36.6875" y="621.2272338867188" x="673.74169921875" class="er relationshipLabelBox"></rect><text style="text-anchor: middle; dominant-baseline: middle; font-size: 12px;" y="628.2272338867188" x="692.08544921875" id="rel22" class="er relationshipLabel">turmas</text><rect height="14" width="62.703125" y="736.6087646484375" x="384.3861083984375" class="er relationshipLabelBox"></rect><text style="text-anchor: middle; dominant-baseline: middle; font-size: 12px;" y="743.6087646484375" x="415.7376708984375" id="rel23" class="er relationshipLabel">professores</text><rect height="14" width="31" y="277.53125" x="227.35931396484375" class="er relationshipLabelBox"></rect><text style="text-anchor: middle; dominant-baseline: middle; font-size: 12px;" y="284.53125" x="242.85931396484375" id="rel24" class="er relationshipLabel">turma</text><rect height="14" width="49.685546875" y="575.4873046875" x="106.95523071289062" class="er relationshipLabelBox"></rect><text style="text-anchor: middle; dominant-baseline: middle; font-size: 12px;" y="582.4873046875" x="131.79800415039062" id="rel25" class="er relationshipLabel">disciplina</text><rect height="14" width="50.03125" y="354.02520751953125" x="206.78121948242188" class="er relationshipLabelBox"></rect><text style="text-anchor: middle; dominant-baseline: middle; font-size: 12px;" y="361.02520751953125" x="231.79684448242188" id="rel26" class="er relationshipLabel">professor</text><rect height="14" width="29.6875" y="214.8836669921875" x="1006.2738037109375" class="er relationshipLabelBox"></rect><text style="text-anchor: middle; dominant-baseline: middle; font-size: 12px;" y="221.8836669921875" x="1021.1175537109375" id="rel27" class="er relationshipLabel">aluno</text><rect height="14" width="49.685546875" y="724.0444946289062" x="913.1561889648438" class="er relationshipLabelBox"></rect><text style="text-anchor: middle; dominant-baseline: middle; font-size: 12px;" y="731.0444946289062" x="937.9989624023438" id="rel28" class="er relationshipLabel">disciplina</text></svg>