<svg aria-roledescription="er" role="graphics-document document" viewBox="0 0 1108.4962158203125 440" style="max-width: 1108.4962158203125px;" xmlns:xlink="http://www.w3.org/1999/xlink" xmlns="http://www.w3.org/2000/svg" width="100%" id="mermaid-1725317319247"><style>#mermaid-1725317319247{font-family:"trebuchet ms",verdana,arial,sans-serif;font-size:16px;fill:#ccc;}#mermaid-1725317319247 .error-icon{fill:#a44141;}#mermaid-1725317319247 .error-text{fill:#ddd;stroke:#ddd;}#mermaid-1725317319247 .edge-thickness-normal{stroke-width:1px;}#mermaid-1725317319247 .edge-thickness-thick{stroke-width:3.5px;}#mermaid-1725317319247 .edge-pattern-solid{stroke-dasharray:0;}#mermaid-1725317319247 .edge-thickness-invisible{stroke-width:0;fill:none;}#mermaid-1725317319247 .edge-pattern-dashed{stroke-dasharray:3;}#mermaid-1725317319247 .edge-pattern-dotted{stroke-dasharray:2;}#mermaid-1725317319247 .marker{fill:lightgrey;stroke:lightgrey;}#mermaid-1725317319247 .marker.cross{stroke:lightgrey;}#mermaid-1725317319247 svg{font-family:"trebuchet ms",verdana,arial,sans-serif;font-size:16px;}#mermaid-1725317319247 p{margin:0;}#mermaid-1725317319247 .entityBox{fill:#1f2020;stroke:#ccc;}#mermaid-1725317319247 .attributeBoxOdd{fill:hsl(0, 0%, 32%);stroke:#ccc;}#mermaid-1725317319247 .attributeBoxEven{fill:hsl(0, 0%, 22%);stroke:#ccc;}#mermaid-1725317319247 .relationshipLabelBox{fill:hsl(20, 1.5873015873%, 12.3529411765%);opacity:0.7;background-color:hsl(20, 1.5873015873%, 12.3529411765%);}#mermaid-1725317319247 .relationshipLabelBox rect{opacity:0.5;}#mermaid-1725317319247 .relationshipLine{stroke:lightgrey;}#mermaid-1725317319247 .entityTitleText{text-anchor:middle;font-size:18px;fill:#ccc;}#mermaid-1725317319247 #MD_PARENT_START{fill:#f5f5f5!important;stroke:lightgrey!important;stroke-width:1;}#mermaid-1725317319247 #MD_PARENT_END{fill:#f5f5f5!important;stroke:lightgrey!important;stroke-width:1;}#mermaid-1725317319247 :root{--mermaid-font-family:"trebuchet ms",verdana,arial,sans-serif;}</style><g></g><defs><marker orient="auto" markerHeight="240" markerWidth="190" refY="7" refX="0" id="MD_PARENT_START"><path d="M 18,7 L9,13 L1,7 L9,1 Z"></path></marker></defs><defs><marker orient="auto" markerHeight="28" markerWidth="20" refY="7" refX="19" id="MD_PARENT_END"><path d="M 18,7 L9,13 L1,7 L9,1 Z"></path></marker></defs><defs><marker orient="auto" markerHeight="18" markerWidth="18" refY="9" refX="0" id="ONLY_ONE_START"><path d="M9,0 L9,18 M15,0 L15,18" fill="none" stroke="gray"></path></marker></defs><defs><marker orient="auto" markerHeight="18" markerWidth="18" refY="9" refX="18" id="ONLY_ONE_END"><path d="M3,0 L3,18 M9,0 L9,18" fill="none" stroke="gray"></path></marker></defs><defs><marker orient="auto" markerHeight="18" markerWidth="30" refY="9" refX="0" id="ZERO_OR_ONE_START"><circle r="6" cy="9" cx="21" fill="white" stroke="gray"></circle><path d="M9,0 L9,18" fill="none" stroke="gray"></path></marker></defs><defs><marker orient="auto" markerHeight="18" markerWidth="30" refY="9" refX="30" id="ZERO_OR_ONE_END"><circle r="6" cy="9" cx="9" fill="white" stroke="gray"></circle><path d="M21,0 L21,18" fill="none" stroke="gray"></path></marker></defs><defs><marker orient="auto" markerHeight="36" markerWidth="45" refY="18" refX="18" id="ONE_OR_MORE_START"><path d="M0,18 Q 18,0 36,18 Q 18,36 0,18 M42,9 L42,27" fill="none" stroke="gray"></path></marker></defs><defs><marker orient="auto" markerHeight="36" markerWidth="45" refY="18" refX="27" id="ONE_OR_MORE_END"><path d="M3,9 L3,27 M9,18 Q27,0 45,18 Q27,36 9,18" fill="none" stroke="gray"></path></marker></defs><defs><marker orient="auto" markerHeight="36" markerWidth="57" refY="18" refX="18" id="ZERO_OR_MORE_START"><circle r="6" cy="18" cx="48" fill="white" stroke="gray"></circle><path d="M0,18 Q18,0 36,18 Q18,36 0,18" fill="none" stroke="gray"></path></marker></defs><defs><marker orient="auto" markerHeight="36" markerWidth="57" refY="18" refX="39" id="ZERO_OR_MORE_END"><circle r="6" cy="18" cx="9" fill="white" stroke="gray"></circle><path d="M21,18 Q39,0 57,18 Q39,36 21,18" fill="none" stroke="gray"></path></marker></defs><path style="stroke: gray; fill: none;" marker-start="url(#ONLY_ONE_START)" marker-end="url(#ZERO_OR_MORE_END)" d="M162.771,191L162.771,199.333C162.771,207.667,162.771,224.333,186.387,244.091C210.002,263.849,257.234,286.699,280.849,298.123L304.465,309.548" class="er relationshipLine"></path><path style="stroke: gray; fill: none;" marker-start="url(#ONLY_ONE_START)" marker-end="url(#ZERO_OR_MORE_END)" d="M449.886,191L441.48,199.333C433.074,207.667,416.263,224.333,407.857,241C399.451,257.667,399.451,274.333,399.451,282.667L399.451,291" class="er relationshipLine"></path><path style="stroke: gray; fill: none;" marker-start="url(#ONLY_ONE_START)" marker-end="url(#ZERO_OR_ONE_END)" d="M666.719,146.059L717.666,161.883C768.613,177.706,870.507,209.353,921.454,235.26C972.401,261.167,972.401,281.333,972.401,291.417L972.401,301.5" class="er relationshipLine"></path><path style="stroke: gray; fill: none;" marker-start="url(#ONLY_ONE_START)" marker-end="url(#ZERO_OR_MORE_END)" d="M849.07,159.5L835.369,173.083C821.667,186.667,794.264,213.833,735.158,241.566C676.053,269.3,585.245,297.599,539.841,311.749L494.437,325.899" class="er relationshipLine"></path><g transform="translate(304.4650115966797,291 )" id="entity-clientes-9055733f-fb4a-5ba3-a121-190c13505948"><rect height="129" width="189.9715118408203" y="0" x="0" class="er entityBox"></rect><text style="dominant-baseline: middle; text-anchor: middle; font-size: 12px;" transform="translate(94.98575592041016,12)" y="0" x="0" id="text-entity-clientes-9055733f-fb4a-5ba3-a121-190c13505948" class="er entityLabel">clientes</text><rect height="21" width="50.94306945800781" y="24" x="0" class="er attributeBoxOdd"></rect><text style="dominant-baseline: middle; font-size: 10.2px;" transform="translate(5,34.5)" y="0" x="0" id="text-entity-clientes-9055733f-fb4a-5ba3-a121-190c13505948-attr-1-type" class="er entityLabel">inputText</text><rect height="21" width="52.815277099609375" y="24" x="50.94306945800781" class="er attributeBoxOdd"></rect><text style="dominant-baseline: middle; font-size: 10.2px;" transform="translate(55.94306945800781,34.5)" y="0" x="0" id="text-entity-clientes-9055733f-fb4a-5ba3-a121-190c13505948-attr-1-name" class="er entityLabel">nome</text><rect height="21" width="86.21316528320312" y="24" x="103.75834655761719" class="er attributeBoxOdd"></rect><text style="dominant-baseline: middle; font-size: 10.2px;" transform="translate(108.75834655761719,34.5)" y="0" x="0" id="text-entity-clientes-9055733f-fb4a-5ba3-a121-190c13505948-attr-1-comment" class="er entityLabel">Nome do Cliente</text><rect height="21" width="50.94306945800781" y="45" x="0" class="er attributeBoxEven"></rect><text style="dominant-baseline: middle; font-size: 10.2px;" transform="translate(5,55.5)" y="0" x="0" id="text-entity-clientes-9055733f-fb4a-5ba3-a121-190c13505948-attr-2-type" class="er entityLabel">inputText</text><rect height="21" width="52.815277099609375" y="45" x="50.94306945800781" class="er attributeBoxEven"></rect><text style="dominant-baseline: middle; font-size: 10.2px;" transform="translate(55.94306945800781,55.5)" y="0" x="0" id="text-entity-clientes-9055733f-fb4a-5ba3-a121-190c13505948-attr-2-name" class="er entityLabel">cpf_cnpj</text><rect height="21" width="86.21316528320312" y="45" x="103.75834655761719" class="er attributeBoxEven"></rect><text style="dominant-baseline: middle; font-size: 10.2px;" transform="translate(108.75834655761719,55.5)" y="0" x="0" id="text-entity-clientes-9055733f-fb4a-5ba3-a121-190c13505948-attr-2-comment" class="er entityLabel">CPF / CNPJ</text><rect height="21" width="50.94306945800781" y="66" x="0" class="er attributeBoxOdd"></rect><text style="dominant-baseline: middle; font-size: 10.2px;" transform="translate(5,76.5)" y="0" x="0" id="text-entity-clientes-9055733f-fb4a-5ba3-a121-190c13505948-attr-3-type" class="er entityLabel">inputText</text><rect height="21" width="52.815277099609375" y="66" x="50.94306945800781" class="er attributeBoxOdd"></rect><text style="dominant-baseline: middle; font-size: 10.2px;" transform="translate(55.94306945800781,76.5)" y="0" x="0" id="text-entity-clientes-9055733f-fb4a-5ba3-a121-190c13505948-attr-3-name" class="er entityLabel">email</text><rect height="21" width="86.21316528320312" y="66" x="103.75834655761719" class="er attributeBoxOdd"></rect><text style="dominant-baseline: middle; font-size: 10.2px;" transform="translate(108.75834655761719,76.5)" y="0" x="0" id="text-entity-clientes-9055733f-fb4a-5ba3-a121-190c13505948-attr-3-comment" class="er entityLabel">E-mail</text><rect height="21" width="50.94306945800781" y="87" x="0" class="er attributeBoxEven"></rect><text style="dominant-baseline: middle; font-size: 10.2px;" transform="translate(5,97.5)" y="0" x="0" id="text-entity-clientes-9055733f-fb4a-5ba3-a121-190c13505948-attr-4-type" class="er entityLabel">inputText</text><rect height="21" width="52.815277099609375" y="87" x="50.94306945800781" class="er attributeBoxEven"></rect><text style="dominant-baseline: middle; font-size: 10.2px;" transform="translate(55.94306945800781,97.5)" y="0" x="0" id="text-entity-clientes-9055733f-fb4a-5ba3-a121-190c13505948-attr-4-name" class="er entityLabel">telefone</text><rect height="21" width="86.21316528320312" y="87" x="103.75834655761719" class="er attributeBoxEven"></rect><text style="dominant-baseline: middle; font-size: 10.2px;" transform="translate(108.75834655761719,97.5)" y="0" x="0" id="text-entity-clientes-9055733f-fb4a-5ba3-a121-190c13505948-attr-4-comment" class="er entityLabel">Telefone</text><rect height="21" width="50.94306945800781" y="108" x="0" class="er attributeBoxOdd"></rect><text style="dominant-baseline: middle; font-size: 10.2px;" transform="translate(5,118.5)" y="0" x="0" id="text-entity-clientes-9055733f-fb4a-5ba3-a121-190c13505948-attr-5-type" class="er entityLabel">inputText</text><rect height="21" width="52.815277099609375" y="108" x="50.94306945800781" class="er attributeBoxOdd"></rect><text style="dominant-baseline: middle; font-size: 10.2px;" transform="translate(55.94306945800781,118.5)" y="0" x="0" id="text-entity-clientes-9055733f-fb4a-5ba3-a121-190c13505948-attr-5-name" class="er entityLabel">endereco</text><rect height="21" width="86.21316528320312" y="108" x="103.75834655761719" class="er attributeBoxOdd"></rect><text style="dominant-baseline: middle; font-size: 10.2px;" transform="translate(108.75834655761719,118.5)" y="0" x="0" id="text-entity-clientes-9055733f-fb4a-5ba3-a121-190c13505948-attr-5-comment" class="er entityLabel">Endereço</text></g><g transform="translate(20,20 )" id="entity-pagamentos-8569c892-59c2-5ede-a17f-77362351557b"><rect height="171" width="285.54205322265625" y="0" x="0" class="er entityBox"></rect><text style="dominant-baseline: middle; text-anchor: middle; font-size: 12px;" transform="translate(142.77102661132812,12)" y="0" x="0" id="text-entity-pagamentos-8569c892-59c2-5ede-a17f-77362351557b" class="er entityLabel">pagamentos</text><rect height="21" width="71.171875" y="24" x="0" class="er attributeBoxOdd"></rect><text style="dominant-baseline: middle; font-size: 10.2px;" transform="translate(5,34.5)" y="0" x="0" id="text-entity-pagamentos-8569c892-59c2-5ede-a17f-77362351557b-attr-1-type" class="er entityLabel">inputText</text><rect height="21" width="100.95718383789062" y="24" x="71.171875" class="er attributeBoxOdd"></rect><text style="dominant-baseline: middle; font-size: 10.2px;" transform="translate(76.171875,34.5)" y="0" x="0" id="text-entity-pagamentos-8569c892-59c2-5ede-a17f-77362351557b-attr-1-name" class="er entityLabel">codigo_pagamento</text><rect height="21" width="113.41299438476562" y="24" x="172.12905883789062" class="er attributeBoxOdd"></rect><text style="dominant-baseline: middle; font-size: 10.2px;" transform="translate(177.12905883789062,34.5)" y="0" x="0" id="text-entity-pagamentos-8569c892-59c2-5ede-a17f-77362351557b-attr-1-comment" class="er entityLabel">Código do Pagamento</text><rect height="21" width="71.171875" y="45" x="0" class="er attributeBoxEven"></rect><text style="dominant-baseline: middle; font-size: 10.2px;" transform="translate(5,55.5)" y="0" x="0" id="text-entity-pagamentos-8569c892-59c2-5ede-a17f-77362351557b-attr-2-type" class="er entityLabel">EnRel</text><rect height="21" width="100.95718383789062" y="45" x="71.171875" class="er attributeBoxEven"></rect><text style="dominant-baseline: middle; font-size: 10.2px;" transform="translate(76.171875,55.5)" y="0" x="0" id="text-entity-pagamentos-8569c892-59c2-5ede-a17f-77362351557b-attr-2-name" class="er entityLabel">cliente</text><rect height="21" width="113.41299438476562" y="45" x="172.12905883789062" class="er attributeBoxEven"></rect><text style="dominant-baseline: middle; font-size: 10.2px;" transform="translate(177.12905883789062,55.5)" y="0" x="0" id="text-entity-pagamentos-8569c892-59c2-5ede-a17f-77362351557b-attr-2-comment" class="er entityLabel">Cliente</text><rect height="21" width="71.171875" y="66" x="0" class="er attributeBoxOdd"></rect><text style="dominant-baseline: middle; font-size: 10.2px;" transform="translate(5,76.5)" y="0" x="0" id="text-entity-pagamentos-8569c892-59c2-5ede-a17f-77362351557b-attr-3-type" class="er entityLabel">EnlNumber</text><rect height="21" width="100.95718383789062" y="66" x="71.171875" class="er attributeBoxOdd"></rect><text style="dominant-baseline: middle; font-size: 10.2px;" transform="translate(76.171875,76.5)" y="0" x="0" id="text-entity-pagamentos-8569c892-59c2-5ede-a17f-77362351557b-attr-3-name" class="er entityLabel">valor</text><rect height="21" width="113.41299438476562" y="66" x="172.12905883789062" class="er attributeBoxOdd"></rect><text style="dominant-baseline: middle; font-size: 10.2px;" transform="translate(177.12905883789062,76.5)" y="0" x="0" id="text-entity-pagamentos-8569c892-59c2-5ede-a17f-77362351557b-attr-3-comment" class="er entityLabel">Valor do Pagamento</text><rect height="21" width="71.171875" y="87" x="0" class="er attributeBoxEven"></rect><text style="dominant-baseline: middle; font-size: 10.2px;" transform="translate(5,97.5)" y="0" x="0" id="text-entity-pagamentos-8569c892-59c2-5ede-a17f-77362351557b-attr-4-type" class="er entityLabel">EnlCalendar</text><rect height="21" width="100.95718383789062" y="87" x="71.171875" class="er attributeBoxEven"></rect><text style="dominant-baseline: middle; font-size: 10.2px;" transform="translate(76.171875,97.5)" y="0" x="0" id="text-entity-pagamentos-8569c892-59c2-5ede-a17f-77362351557b-attr-4-name" class="er entityLabel">data_pagamento</text><rect height="21" width="113.41299438476562" y="87" x="172.12905883789062" class="er attributeBoxEven"></rect><text style="dominant-baseline: middle; font-size: 10.2px;" transform="translate(177.12905883789062,97.5)" y="0" x="0" id="text-entity-pagamentos-8569c892-59c2-5ede-a17f-77362351557b-attr-4-comment" class="er entityLabel">Data do Pagamento</text><rect height="21" width="71.171875" y="108" x="0" class="er attributeBoxOdd"></rect><text style="dominant-baseline: middle; font-size: 10.2px;" transform="translate(5,118.5)" y="0" x="0" id="text-entity-pagamentos-8569c892-59c2-5ede-a17f-77362351557b-attr-5-type" class="er entityLabel">EnlDropdown</text><rect height="21" width="100.95718383789062" y="108" x="71.171875" class="er attributeBoxOdd"></rect><text style="dominant-baseline: middle; font-size: 10.2px;" transform="translate(76.171875,118.5)" y="0" x="0" id="text-entity-pagamentos-8569c892-59c2-5ede-a17f-77362351557b-attr-5-name" class="er entityLabel">metodo_pagamento</text><rect height="21" width="113.41299438476562" y="108" x="172.12905883789062" class="er attributeBoxOdd"></rect><text style="dominant-baseline: middle; font-size: 10.2px;" transform="translate(177.12905883789062,118.5)" y="0" x="0" id="text-entity-pagamentos-8569c892-59c2-5ede-a17f-77362351557b-attr-5-comment" class="er entityLabel">Método de Pagamento</text><rect height="21" width="71.171875" y="129" x="0" class="er attributeBoxEven"></rect><text style="dominant-baseline: middle; font-size: 10.2px;" transform="translate(5,139.5)" y="0" x="0" id="text-entity-pagamentos-8569c892-59c2-5ede-a17f-77362351557b-attr-6-type" class="er entityLabel">EnlDropdown</text><rect height="21" width="100.95718383789062" y="129" x="71.171875" class="er attributeBoxEven"></rect><text style="dominant-baseline: middle; font-size: 10.2px;" transform="translate(76.171875,139.5)" y="0" x="0" id="text-entity-pagamentos-8569c892-59c2-5ede-a17f-77362351557b-attr-6-name" class="er entityLabel">status_pagamento</text><rect height="21" width="113.41299438476562" y="129" x="172.12905883789062" class="er attributeBoxEven"></rect><text style="dominant-baseline: middle; font-size: 10.2px;" transform="translate(177.12905883789062,139.5)" y="0" x="0" id="text-entity-pagamentos-8569c892-59c2-5ede-a17f-77362351557b-attr-6-comment" class="er entityLabel">Status do Pagamento</text><rect height="21" width="71.171875" y="150" x="0" class="er attributeBoxOdd"></rect><text style="dominant-baseline: middle; font-size: 10.2px;" transform="translate(5,160.5)" y="0" x="0" id="text-entity-pagamentos-8569c892-59c2-5ede-a17f-77362351557b-attr-7-type" class="er entityLabel">inputText</text><rect height="21" width="100.95718383789062" y="150" x="71.171875" class="er attributeBoxOdd"></rect><text style="dominant-baseline: middle; font-size: 10.2px;" transform="translate(76.171875,160.5)" y="0" x="0" id="text-entity-pagamentos-8569c892-59c2-5ede-a17f-77362351557b-attr-7-name" class="er entityLabel">descricao</text><rect height="21" width="113.41299438476562" y="150" x="172.12905883789062" class="er attributeBoxOdd"></rect><text style="dominant-baseline: middle; font-size: 10.2px;" transform="translate(177.12905883789062,160.5)" y="0" x="0" id="text-entity-pagamentos-8569c892-59c2-5ede-a17f-77362351557b-attr-7-comment" class="er entityLabel">Descrição</text></g><g transform="translate(405.54205322265625,20 )" id="entity-faturas-c4fc3998-8f5b-55d1-9fb1-a6c46aec6500"><rect height="171" width="261.1769256591797" y="0" x="0" class="er entityBox"></rect><text style="dominant-baseline: middle; text-anchor: middle; font-size: 12px;" transform="translate(130.58846282958984,12)" y="0" x="0" id="text-entity-faturas-c4fc3998-8f5b-55d1-9fb1-a6c46aec6500" class="er entityLabel">faturas</text><rect height="21" width="71.171875" y="24" x="0" class="er attributeBoxOdd"></rect><text style="dominant-baseline: middle; font-size: 10.2px;" transform="translate(5,34.5)" y="0" x="0" id="text-entity-faturas-c4fc3998-8f5b-55d1-9fb1-a6c46aec6500-attr-1-type" class="er entityLabel">inputText</text><rect height="21" width="87.92434692382812" y="24" x="71.171875" class="er attributeBoxOdd"></rect><text style="dominant-baseline: middle; font-size: 10.2px;" transform="translate(76.171875,34.5)" y="0" x="0" id="text-entity-faturas-c4fc3998-8f5b-55d1-9fb1-a6c46aec6500-attr-1-name" class="er entityLabel">codigo_fatura</text><rect height="21" width="102.08070373535156" y="24" x="159.09622192382812" class="er attributeBoxOdd"></rect><text style="dominant-baseline: middle; font-size: 10.2px;" transform="translate(164.09622192382812,34.5)" y="0" x="0" id="text-entity-faturas-c4fc3998-8f5b-55d1-9fb1-a6c46aec6500-attr-1-comment" class="er entityLabel">Código da Fatura</text><rect height="21" width="71.171875" y="45" x="0" class="er attributeBoxEven"></rect><text style="dominant-baseline: middle; font-size: 10.2px;" transform="translate(5,55.5)" y="0" x="0" id="text-entity-faturas-c4fc3998-8f5b-55d1-9fb1-a6c46aec6500-attr-2-type" class="er entityLabel">EnRel</text><rect height="21" width="87.92434692382812" y="45" x="71.171875" class="er attributeBoxEven"></rect><text style="dominant-baseline: middle; font-size: 10.2px;" transform="translate(76.171875,55.5)" y="0" x="0" id="text-entity-faturas-c4fc3998-8f5b-55d1-9fb1-a6c46aec6500-attr-2-name" class="er entityLabel">cliente</text><rect height="21" width="102.08070373535156" y="45" x="159.09622192382812" class="er attributeBoxEven"></rect><text style="dominant-baseline: middle; font-size: 10.2px;" transform="translate(164.09622192382812,55.5)" y="0" x="0" id="text-entity-faturas-c4fc3998-8f5b-55d1-9fb1-a6c46aec6500-attr-2-comment" class="er entityLabel">Cliente</text><rect height="21" width="71.171875" y="66" x="0" class="er attributeBoxOdd"></rect><text style="dominant-baseline: middle; font-size: 10.2px;" transform="translate(5,76.5)" y="0" x="0" id="text-entity-faturas-c4fc3998-8f5b-55d1-9fb1-a6c46aec6500-attr-3-type" class="er entityLabel">EnlCalendar</text><rect height="21" width="87.92434692382812" y="66" x="71.171875" class="er attributeBoxOdd"></rect><text style="dominant-baseline: middle; font-size: 10.2px;" transform="translate(76.171875,76.5)" y="0" x="0" id="text-entity-faturas-c4fc3998-8f5b-55d1-9fb1-a6c46aec6500-attr-3-name" class="er entityLabel">data_emissao</text><rect height="21" width="102.08070373535156" y="66" x="159.09622192382812" class="er attributeBoxOdd"></rect><text style="dominant-baseline: middle; font-size: 10.2px;" transform="translate(164.09622192382812,76.5)" y="0" x="0" id="text-entity-faturas-c4fc3998-8f5b-55d1-9fb1-a6c46aec6500-attr-3-comment" class="er entityLabel">Data de Emissão</text><rect height="21" width="71.171875" y="87" x="0" class="er attributeBoxEven"></rect><text style="dominant-baseline: middle; font-size: 10.2px;" transform="translate(5,97.5)" y="0" x="0" id="text-entity-faturas-c4fc3998-8f5b-55d1-9fb1-a6c46aec6500-attr-4-type" class="er entityLabel">EnlCalendar</text><rect height="21" width="87.92434692382812" y="87" x="71.171875" class="er attributeBoxEven"></rect><text style="dominant-baseline: middle; font-size: 10.2px;" transform="translate(76.171875,97.5)" y="0" x="0" id="text-entity-faturas-c4fc3998-8f5b-55d1-9fb1-a6c46aec6500-attr-4-name" class="er entityLabel">data_vencimento</text><rect height="21" width="102.08070373535156" y="87" x="159.09622192382812" class="er attributeBoxEven"></rect><text style="dominant-baseline: middle; font-size: 10.2px;" transform="translate(164.09622192382812,97.5)" y="0" x="0" id="text-entity-faturas-c4fc3998-8f5b-55d1-9fb1-a6c46aec6500-attr-4-comment" class="er entityLabel">Data de Vencimento</text><rect height="21" width="71.171875" y="108" x="0" class="er attributeBoxOdd"></rect><text style="dominant-baseline: middle; font-size: 10.2px;" transform="translate(5,118.5)" y="0" x="0" id="text-entity-faturas-c4fc3998-8f5b-55d1-9fb1-a6c46aec6500-attr-5-type" class="er entityLabel">EnlNumber</text><rect height="21" width="87.92434692382812" y="108" x="71.171875" class="er attributeBoxOdd"></rect><text style="dominant-baseline: middle; font-size: 10.2px;" transform="translate(76.171875,118.5)" y="0" x="0" id="text-entity-faturas-c4fc3998-8f5b-55d1-9fb1-a6c46aec6500-attr-5-name" class="er entityLabel">valor_total</text><rect height="21" width="102.08070373535156" y="108" x="159.09622192382812" class="er attributeBoxOdd"></rect><text style="dominant-baseline: middle; font-size: 10.2px;" transform="translate(164.09622192382812,118.5)" y="0" x="0" id="text-entity-faturas-c4fc3998-8f5b-55d1-9fb1-a6c46aec6500-attr-5-comment" class="er entityLabel">Valor Total</text><rect height="21" width="71.171875" y="129" x="0" class="er attributeBoxEven"></rect><text style="dominant-baseline: middle; font-size: 10.2px;" transform="translate(5,139.5)" y="0" x="0" id="text-entity-faturas-c4fc3998-8f5b-55d1-9fb1-a6c46aec6500-attr-6-type" class="er entityLabel">EnlDropdown</text><rect height="21" width="87.92434692382812" y="129" x="71.171875" class="er attributeBoxEven"></rect><text style="dominant-baseline: middle; font-size: 10.2px;" transform="translate(76.171875,139.5)" y="0" x="0" id="text-entity-faturas-c4fc3998-8f5b-55d1-9fb1-a6c46aec6500-attr-6-name" class="er entityLabel">status_fatura</text><rect height="21" width="102.08070373535156" y="129" x="159.09622192382812" class="er attributeBoxEven"></rect><text style="dominant-baseline: middle; font-size: 10.2px;" transform="translate(164.09622192382812,139.5)" y="0" x="0" id="text-entity-faturas-c4fc3998-8f5b-55d1-9fb1-a6c46aec6500-attr-6-comment" class="er entityLabel">Status da Fatura</text><rect height="21" width="71.171875" y="150" x="0" class="er attributeBoxOdd"></rect><text style="dominant-baseline: middle; font-size: 10.2px;" transform="translate(5,160.5)" y="0" x="0" id="text-entity-faturas-c4fc3998-8f5b-55d1-9fb1-a6c46aec6500-attr-7-type" class="er entityLabel">EnRelMulti</text><rect height="21" width="87.92434692382812" y="150" x="71.171875" class="er attributeBoxOdd"></rect><text style="dominant-baseline: middle; font-size: 10.2px;" transform="translate(76.171875,160.5)" y="0" x="0" id="text-entity-faturas-c4fc3998-8f5b-55d1-9fb1-a6c46aec6500-attr-7-name" class="er entityLabel">itens_fatura</text><rect height="21" width="102.08070373535156" y="150" x="159.09622192382812" class="er attributeBoxOdd"></rect><text style="dominant-baseline: middle; font-size: 10.2px;" transform="translate(164.09622192382812,160.5)" y="0" x="0" id="text-entity-faturas-c4fc3998-8f5b-55d1-9fb1-a6c46aec6500-attr-7-comment" class="er entityLabel">Itens da Fatura</text></g><g transform="translate(856.3063163757324,301.5 )" id="entity-itensfatura-413dfc93-e7cc-5460-8f87-d6f3648f722e"><rect height="108" width="232.18988037109375" y="0" x="0" class="er entityBox"></rect><text style="dominant-baseline: middle; text-anchor: middle; font-size: 12px;" transform="translate(116.09494018554688,12)" y="0" x="0" id="text-entity-itensfatura-413dfc93-e7cc-5460-8f87-d6f3648f722e" class="er entityLabel">itens_fatura</text><rect height="21" width="61.56488037109375" y="24" x="0" class="er attributeBoxOdd"></rect><text style="dominant-baseline: middle; font-size: 10.2px;" transform="translate(5,34.5)" y="0" x="0" id="text-entity-itensfatura-413dfc93-e7cc-5460-8f87-d6f3648f722e-attr-1-type" class="er entityLabel">inputText</text><rect height="21" width="78.515625" y="24" x="61.56488037109375" class="er attributeBoxOdd"></rect><text style="dominant-baseline: middle; font-size: 10.2px;" transform="translate(66.56488037109375,34.5)" y="0" x="0" id="text-entity-itensfatura-413dfc93-e7cc-5460-8f87-d6f3648f722e-attr-1-name" class="er entityLabel">descricao_item</text><rect height="21" width="92.109375" y="24" x="140.08050537109375" class="er attributeBoxOdd"></rect><text style="dominant-baseline: middle; font-size: 10.2px;" transform="translate(145.08050537109375,34.5)" y="0" x="0" id="text-entity-itensfatura-413dfc93-e7cc-5460-8f87-d6f3648f722e-attr-1-comment" class="er entityLabel">Descrição do Item</text><rect height="21" width="61.56488037109375" y="45" x="0" class="er attributeBoxEven"></rect><text style="dominant-baseline: middle; font-size: 10.2px;" transform="translate(5,55.5)" y="0" x="0" id="text-entity-itensfatura-413dfc93-e7cc-5460-8f87-d6f3648f722e-attr-2-type" class="er entityLabel">EnlNumber</text><rect height="21" width="78.515625" y="45" x="61.56488037109375" class="er attributeBoxEven"></rect><text style="dominant-baseline: middle; font-size: 10.2px;" transform="translate(66.56488037109375,55.5)" y="0" x="0" id="text-entity-itensfatura-413dfc93-e7cc-5460-8f87-d6f3648f722e-attr-2-name" class="er entityLabel">quantidade</text><rect height="21" width="92.109375" y="45" x="140.08050537109375" class="er attributeBoxEven"></rect><text style="dominant-baseline: middle; font-size: 10.2px;" transform="translate(145.08050537109375,55.5)" y="0" x="0" id="text-entity-itensfatura-413dfc93-e7cc-5460-8f87-d6f3648f722e-attr-2-comment" class="er entityLabel">Quantidade</text><rect height="21" width="61.56488037109375" y="66" x="0" class="er attributeBoxOdd"></rect><text style="dominant-baseline: middle; font-size: 10.2px;" transform="translate(5,76.5)" y="0" x="0" id="text-entity-itensfatura-413dfc93-e7cc-5460-8f87-d6f3648f722e-attr-3-type" class="er entityLabel">EnlNumber</text><rect height="21" width="78.515625" y="66" x="61.56488037109375" class="er attributeBoxOdd"></rect><text style="dominant-baseline: middle; font-size: 10.2px;" transform="translate(66.56488037109375,76.5)" y="0" x="0" id="text-entity-itensfatura-413dfc93-e7cc-5460-8f87-d6f3648f722e-attr-3-name" class="er entityLabel">preco_unitario</text><rect height="21" width="92.109375" y="66" x="140.08050537109375" class="er attributeBoxOdd"></rect><text style="dominant-baseline: middle; font-size: 10.2px;" transform="translate(145.08050537109375,76.5)" y="0" x="0" id="text-entity-itensfatura-413dfc93-e7cc-5460-8f87-d6f3648f722e-attr-3-comment" class="er entityLabel">Preço Unitário</text><rect height="21" width="61.56488037109375" y="87" x="0" class="er attributeBoxEven"></rect><text style="dominant-baseline: middle; font-size: 10.2px;" transform="translate(5,97.5)" y="0" x="0" id="text-entity-itensfatura-413dfc93-e7cc-5460-8f87-d6f3648f722e-attr-4-type" class="er entityLabel">EnlNumber</text><rect height="21" width="78.515625" y="87" x="61.56488037109375" class="er attributeBoxEven"></rect><text style="dominant-baseline: middle; font-size: 10.2px;" transform="translate(66.56488037109375,97.5)" y="0" x="0" id="text-entity-itensfatura-413dfc93-e7cc-5460-8f87-d6f3648f722e-attr-4-name" class="er entityLabel">valor_total</text><rect height="21" width="92.109375" y="87" x="140.08050537109375" class="er attributeBoxEven"></rect><text style="dominant-baseline: middle; font-size: 10.2px;" transform="translate(145.08050537109375,97.5)" y="0" x="0" id="text-entity-itensfatura-413dfc93-e7cc-5460-8f87-d6f3648f722e-attr-4-comment" class="er entityLabel">Valor Total</text></g><g transform="translate(766.7189636230469,51.5 )" id="entity-relatoriospagamentos-ead5f4aa-00f7-54bb-a8f1-7be882a811f6"><rect height="108" width="273.64337158203125" y="0" x="0" class="er entityBox"></rect><text style="dominant-baseline: middle; text-anchor: middle; font-size: 12px;" transform="translate(136.82168579101562,12)" y="0" x="0" id="text-entity-relatoriospagamentos-ead5f4aa-00f7-54bb-a8f1-7be882a811f6" class="er entityLabel">relatorios_pagamentos</text><rect height="21" width="71.171875" y="24" x="0" class="er attributeBoxOdd"></rect><text style="dominant-baseline: middle; font-size: 10.2px;" transform="translate(5,34.5)" y="0" x="0" id="text-entity-relatoriospagamentos-ead5f4aa-00f7-54bb-a8f1-7be882a811f6-attr-1-type" class="er entityLabel">EnlCalendar</text><rect height="21" width="94.1572265625" y="24" x="71.171875" class="er attributeBoxOdd"></rect><text style="dominant-baseline: middle; font-size: 10.2px;" transform="translate(76.171875,34.5)" y="0" x="0" id="text-entity-relatoriospagamentos-ead5f4aa-00f7-54bb-a8f1-7be882a811f6-attr-1-name" class="er entityLabel">periodo_inicio</text><rect height="21" width="108.31427001953125" y="24" x="165.3291015625" class="er attributeBoxOdd"></rect><text style="dominant-baseline: middle; font-size: 10.2px;" transform="translate(170.3291015625,34.5)" y="0" x="0" id="text-entity-relatoriospagamentos-ead5f4aa-00f7-54bb-a8f1-7be882a811f6-attr-1-comment" class="er entityLabel">Período de Início</text><rect height="21" width="71.171875" y="45" x="0" class="er attributeBoxEven"></rect><text style="dominant-baseline: middle; font-size: 10.2px;" transform="translate(5,55.5)" y="0" x="0" id="text-entity-relatoriospagamentos-ead5f4aa-00f7-54bb-a8f1-7be882a811f6-attr-2-type" class="er entityLabel">EnlCalendar</text><rect height="21" width="94.1572265625" y="45" x="71.171875" class="er attributeBoxEven"></rect><text style="dominant-baseline: middle; font-size: 10.2px;" transform="translate(76.171875,55.5)" y="0" x="0" id="text-entity-relatoriospagamentos-ead5f4aa-00f7-54bb-a8f1-7be882a811f6-attr-2-name" class="er entityLabel">periodo_fim</text><rect height="21" width="108.31427001953125" y="45" x="165.3291015625" class="er attributeBoxEven"></rect><text style="dominant-baseline: middle; font-size: 10.2px;" transform="translate(170.3291015625,55.5)" y="0" x="0" id="text-entity-relatoriospagamentos-ead5f4aa-00f7-54bb-a8f1-7be882a811f6-attr-2-comment" class="er entityLabel">Período de Fim</text><rect height="21" width="71.171875" y="66" x="0" class="er attributeBoxOdd"></rect><text style="dominant-baseline: middle; font-size: 10.2px;" transform="translate(5,76.5)" y="0" x="0" id="text-entity-relatoriospagamentos-ead5f4aa-00f7-54bb-a8f1-7be882a811f6-attr-3-type" class="er entityLabel">EnlDropdown</text><rect height="21" width="94.1572265625" y="66" x="71.171875" class="er attributeBoxOdd"></rect><text style="dominant-baseline: middle; font-size: 10.2px;" transform="translate(76.171875,76.5)" y="0" x="0" id="text-entity-relatoriospagamentos-ead5f4aa-00f7-54bb-a8f1-7be882a811f6-attr-3-name" class="er entityLabel">status_pagamento</text><rect height="21" width="108.31427001953125" y="66" x="165.3291015625" class="er attributeBoxOdd"></rect><text style="dominant-baseline: middle; font-size: 10.2px;" transform="translate(170.3291015625,76.5)" y="0" x="0" id="text-entity-relatoriospagamentos-ead5f4aa-00f7-54bb-a8f1-7be882a811f6-attr-3-comment" class="er entityLabel">Status do Pagamento</text><rect height="21" width="71.171875" y="87" x="0" class="er attributeBoxEven"></rect><text style="dominant-baseline: middle; font-size: 10.2px;" transform="translate(5,97.5)" y="0" x="0" id="text-entity-relatoriospagamentos-ead5f4aa-00f7-54bb-a8f1-7be882a811f6-attr-4-type" class="er entityLabel">EnRel</text><rect height="21" width="94.1572265625" y="87" x="71.171875" class="er attributeBoxEven"></rect><text style="dominant-baseline: middle; font-size: 10.2px;" transform="translate(76.171875,97.5)" y="0" x="0" id="text-entity-relatoriospagamentos-ead5f4aa-00f7-54bb-a8f1-7be882a811f6-attr-4-name" class="er entityLabel">cliente</text><rect height="21" width="108.31427001953125" y="87" x="165.3291015625" class="er attributeBoxEven"></rect><text style="dominant-baseline: middle; font-size: 10.2px;" transform="translate(170.3291015625,97.5)" y="0" x="0" id="text-entity-relatoriospagamentos-ead5f4aa-00f7-54bb-a8f1-7be882a811f6-attr-4-comment" class="er entityLabel">Cliente</text></g><rect height="14" width="35.013671875" y="257.9443054199219" x="199.63821411132812" class="er relationshipLabelBox"></rect><text style="text-anchor: middle; dominant-baseline: middle; font-size: 12px;" y="264.9443054199219" x="217.14505004882812" id="rel44" class="er relationshipLabel">cliente</text><rect height="14" width="35.013671875" y="227.75717163085938" x="393.86920166015625" class="er relationshipLabelBox"></rect><text style="text-anchor: middle; dominant-baseline: middle; font-size: 12px;" y="234.75717163085938" x="411.37603759765625" id="rel45" class="er relationshipLabel">cliente</text><rect height="14" width="63.033203125" y="194.2953643798828" x="806.662353515625" class="er relationshipLabelBox"></rect><text style="text-anchor: middle; dominant-baseline: middle; font-size: 12px;" y="201.2953643798828" x="838.178955078125" id="rel46" class="er relationshipLabel">itens_fatura</text><rect height="14" width="35.013671875" y="256.5699157714844" x="665.1300659179688" class="er relationshipLabelBox"></rect><text style="text-anchor: middle; dominant-baseline: middle; font-size: 12px;" y="263.5699157714844" x="682.6369018554688" id="rel47" class="er relationshipLabel">cliente</text></svg>